<mxfile host="Electron" modified="2024-05-05T15:13:30.189Z" agent="Mozilla/5.0 (Macintosh; Intel Mac OS X 10_15_7) AppleWebKit/537.36 (KHTML, like Gecko) draw.io/24.2.5 Chrome/120.0.6099.109 Electron/28.1.0 Safari/537.36" etag="hQpdYllhKnWuuXG9MU65" version="24.2.5" type="device">
  <diagram name="Page-1" id="s9QroiTIih9tSUmH2SlO">
    <mxGraphModel dx="1434" dy="907" grid="1" gridSize="10" guides="1" tooltips="1" connect="1" arrows="1" fold="1" page="1" pageScale="1" pageWidth="850" pageHeight="1100" math="0" shadow="0">
      <root>
        <mxCell id="0" />
        <mxCell id="1" parent="0" />
        <mxCell id="8HKQdC73j9jO4bcsfkeK-2" value="" style="shape=image;aspect=fixed;image=data:image/png,iVBORw0KGgoAAAANSUhEUgAAAgAAAAIACAYAAAD0eNT6AAAABHNCSVQICAgIfAhkiAAAAAlwSFlzAAAOxAAADsQBlSsOGwAAABl0RVh0U29mdHdhcmUAd3d3Lmlua3NjYXBlLm9yZ5vuPBoAACAASURBVHic7N13vB1V1f/xz02HAIEk1FBCR3qRjiKIIAiKFQsgKAjKo6CoiIrELoqIXVQQREURRAUVRQSkiHTpLRA6BAIhpJd7f3+se3+5XG45Z9bae2bO+b5fr/3y0SczZ83cc2bW7Nl77Q5EpMcYYHvgVcDGwCbAWsBYYCVgOWBkadFJq5oB3Af8ETgDmJXxs3cBPgjsAawBjM742R6zgNnAHOBZ4AHsHN4H3Aw8Ul5oIlIXWwOfBy4H5gFdamoltunAvqS3LHBuCceXqz0I/Ax4N5bAi4gAsDrwSeB2yr9Qqan1bYuBt5POaODfFTjOXO0l4Bzg9cCwgPMnIjW0EXAWsJDyL0pqaoO12cDapHFaBY6vrHYPcCgwwn0WRaQW1gPOw56syr4Aqak12n5OvDWBBRU4trLbQ8DhQIfvdIpIVY0EjsWepsq+4KipNdtmAqOI9fEKHFeV2k3YwN+2pPch0qp2BO4ETkeDgKSexgHrB+9zm+D91d12wHXAN4lPtipPCYC0mg7geOBq7J2/SJ1NDN7fhOD9tYIRwKewgZGTyw0lLyUA0kqWB/4EnIrm60treC54fzOC99dKdgRuAfYrO5BclABIqxgP/AM4oOxARILMBKYG7/Pm4P21mpWAPwNHlh1IDkoApBVMBv4D7FRyHCKRfo9NWY10ITYLQAY2HKvIeELZgaQ2vOwARJwmYe/7owdLiZRpNnAQ8WWBZwErYiWAZWAdwF5YddBrS45FRPqxEnAH5U8lUlOLbIuBt5LOKOCqChxnHVoncFihsywiyYwGrqH8C4SaWmR7GtiH9JbByuN2Zj6+OrZF5FmfQUQa9APKvzCoqUW0Z7Fk9nhsxcmcdsIWzZmKFsMarM0A1il4jitLZRCljt4OXJBw/7OwLtKrgbuxlcWmY+9lFyX8XBFpzApYga91sGW7twP2BDZN+JnXA69F1wCR0qyNTY+KzvAXYUnFAaiGgEhdrQt8AZhGmp6Ab2Q7EhF5hT8S+4NejHWBahaBSOsYCbwf672LflDYMuNxiEi3/Yn9MV+PaqOLtLIxwBRgPnHXjWvQ63ORrEZjS3hG/ICXAF9Da4KLtIttie0NeH/e8EXa21HE/HDnkXaOtYhU0zjgCmKuIw+iBwiRLEZg05S8P9rZwOvyhi4iFTKauHFEB2eOXaQtHYL/x7oQeGPuwEWkcsYQ0xNwF1pPRyS56/D/WD+UPWoRqapxwAP4ryt75g5cpJ1shP9H+uvsUYtI1W2Lf3bAL7JHLdJGvozvB/ocMCF71CJSB1PwXV9ewioSikgC3m66w7JHLCJ1MQb/AON3Zo9apA2sje+H+QAwPHvUIlInh+O7zvwkf8girc/7wzw8f8hSMcOAlbrbasB6WL34nv9N3bcyEt/aAfdnjziIChlIle3h2HYW8NuoQKRylmXpzXxyd1sTWAUb89HTRje4v5nYsrwzutsz2E3h4V7/+URM6FIxi7DBfFMKbr8hsBbwWFRAImLzbItm5T8vIV5JYxJWvfFkbMXGB7Byzp7eoSJtJrZE9A+xypQ7opUjW8X6+L4bB+YPWaR1jQAWUPwHqXK/9bUFcAw2fXMa+W/0zbS5wFXY2hL7A8vHnw7J5B6Kfw8+U0K8Ii1rA4r/GJegqX91MhY4ADgDeJTyb+qethi4CetO3g6tGlcnP6T43/2sEuIVaVn7UfzH+EAJ8UpzVsIGaf4NK9Nc9o07VXsY+Cbw6pjTJgl5Bh1fU0K8Ii3rYIr/GC8pIV4Z2mjgIOzv43m9U9c2Ffgq1rsl1bMLxf+295QQr0jL+jDFf4w/KiFeGdjGwKnAdMq/CVehdQL/xJKhRmcpSHqTKP431QwRkUCfpviP8ZQS4pWX68Be41yO3fDKvulWtU0HvohNX5RyLU/xv+OsEuJ101KGUlWeAi1zwqKQZo0GPgjcCfwFWy1NA+EGtjLwBeAR4KfAJuWG09Y8141aFpRSAiBV5blpdIVFIY0aiS25PBWrwbBpueHUzhjgSOBu4GJgy3LDaUudjm1reS+tZdAiUhnDsMVQ7sGm8U0qN5za68DqCdwKnI9VmRNJQgmAiBT1JuyJ9XyskprE6Ums7gJOx6ZNioRSAiAizdoI66a+BBvhL+mMBI4FHuz+T63fImGUAIhIo5bFpvPdiXVTSz7jsZ6Am4GdSo5FWoSySRFpxF7YO/71yg6kSUtYOkVrAVa7vwNYsft/G0W9RnBvCVwLfB/4PDC73HCkzpQAiMhgVgROAw6jetP5lmBrsd/Py5fufQZb0vdZbAW/oYzG1o6Y2N3WwpYZ7mmbU6138MOw1wEHYjMv/lFuOFJXSgBEZCC7A78E1i47EGyK1l1YzfUbgdu7//v8gH0vAJ7sbgNZC3v63gbYGSsbu+Ig/z6HdYBLsd6AE4g5FyIipfsixatynVRCvK1kJLa87WLKrZJ3D9b7sC8wLukRN28YsBnwf9hgyDmUe67uwJZRFh/P30BEgigBKMc6wA2UcxNbAvwbu6lOTnyc0cYAewM/wV49lHH+5gFHpz7QFqcEQKQClADktxfl3LxuBY6jdYoIjQD2Ac6mnJ6BX2AJiTRPCYBIBXwJJQC5dGCDyhaR7yY1CxtfsFeG4yvTCthAvZvJn1Stm+H4Wo0SAJEKUA9AHqOBX5PvxvQocDx2Y2w3uwEXYa86cpzr6dhgRWmcEgCRClACkN547J17jpvRncB7sQGG7W5DbOW/haQ/7/OwksLSGCUAIhWgBCCt9YF7SX8Duh94H6o62p/1sHECqWdbLAE+leeQak8JgEgFKAFIZ3PgKdLedJ7B3n2r1sjQNsGmEqZOxk6lesWcqkYJgEgFaBBgGtuSdqT/QuC7VG/efh28HitwlDIJOAP1xgxGCYBIBagHIN4uWGncVDeXf2NPs1LcSKyq31zS/Z3OAYbnOqCaUQIgUgFKAGLtiE29S3FDmY3dtPRkGWc94DLSJQHnor9Xf5QAiFSAEoA42wAvkOZGcgXVWCugFXUAx5CuN+AMNCagLyUAIhWgBCDGxsDTxN88FgFTUFdyDq8CbiFNEvDdjMdRB0oARCpACYDf2sATxN80Hga2y3gcYgWbvk+aJODzGY+j6pQAiFSAEgCfFYD/EX+zuAJYJeNxyMu9l/j1BTqBQ3IeRIUpARCpACUAxY0kzQCyr6Mu/yrYGphG7N92PrB7xmOoKiUAIhWgBKC4nxN7c1gIfCDrEchQVgNuJPbvPAPYKOdBVJASAJEKUAJQzDHE3hRmAftmPQJp1Fjgj8T+ve+lPRdq6qEEQKQCpqAEoFk7AwuIuxlMx7qbpbqGA2cRmwScT/tOD2yrBECFIKSq2vUCVNSqwO+BUUH7exrYE7gtaH+SxhLgg8Dpgft8J7Zks4hIKaagHoBGDQP+SdwT4KPYaoFSL6cQ9x1YhJWObjfqARCpAPUANO54bCGZCNOBvYGpQfuTfE7AVvyLMAL4Fe09HkBESqJBgI3ZHJhHzFPfs8BmecOXYB1Yid+onoBf5g2/dOoBEKmAWv6gMlsG+B0wJmBfs4E3AncF7EvK0wV8BLggaH+HAO8O2pdUjBIAqSq9AhjaycCmAftZAhwM3BywLynfEuzGfV3Q/n6Aqj+2JCUAIvW0FfCJoH0dB/wpaF9SDfOBNwMPBOxrAnBawH6kYpQASFXpFcDARmBzv0cG7OsH3U1azwwsCXgpYF/vA/YL2I9UiBIAkfo5Ftg2YD/XEteLINV0L3AYMQn1j4FlA/YjFaEEQKReViFmlsPTwEHYfG9pbX/AagR4rY1NNRQRSWoKmgbYn4iFfpYAe+QOXEo1HLga/3dnLpYItCpNAxSRStoGODxgP6cCVwTsR+pjCfBe4AXnfpYBvukPR6pACYBIfZyG/zd7K63dQyIDewz4aMB+3oUtPCU1pwRApB72Al7n3MdC4NDu/5T29GvgQuc+OoAvB8QiJVMCIFIPERfcrwF3BuxH6u3/8L8KeD0aR1J7SgBEqm9/YCfnPu4FvhEQi9Tf08CnA/ajXoCaUwIgUn0nO7fvAo4EFgTEIq3hTOAa5z52xV5NSU0pARCptj2AVzv38Tv8F3tpLV3Ax4BO534+GRCLlEQJgEi1He/cfh7wmYhApOXcCvzCuY99gK0DYpESKAEQqa5N8NdfPw14JCAWaU2fw5aC9vh4RCCSnxIAkeo6Dt+yyC9gRX9EBvIM8D3nPt4NrB4Qi2SmBECkmpYD3uPcx6nAzIBYpLV9C9+0wFHYgkNSM0oARKrpPcAKju2fxf9kJ+1hJnC6cx9H4OutkhIoARCppg85t/8+/ne70j6835f1gD2DYpFMlACIVM9W+Kb+zcPWbhdp1AtYbQCPIyICkXxGlB2AiLzCe53bnwM8FxFItz2AdwDbAWOxSnLXYXXl7w/8nBW7P2c/YANszYKHgL8B5wHzAz8rwlbA+4BdgHHADOAW4LfADYGfMwZ4M3AgsDH24PYkcBn2t/aW9e1xOnAMxe8Lb8bGrqjnSURcplB8Xe46r3bXATxM8WPvxKYPRlgbuHKIz7ocOAhYvuBnDMMqyv0CW2t+oM96Anhjwc+INg5LfjoZON5bsNc4Kzs+ZyvgO1hiMdDnzAKOdnxGXxcM8lmNNO/A1bJ5jl1EgkyhPROAHfBdhK4KimMD7Em/0c+djz2pn4StXbA2tnZ8XysDu2M3rd9ggxWbSW4ODTq+olYE/kfjMS8Grsbq5r8DWB9Ytp/9jgO2Bz4InAE82sRndAGnBB3fPk1+bt92UVAcZVECIFIBU2jPBODb+C5CBwfEMBK4yxlHT5uHzTV/Pmh/C7En47JcNEBcRY7jOSwBWhS0z4MCjm8YMM0Rwzx8s1fKpgRApAKm0J4JwIMUP+4Z2Ptir2McMeRolwUcYxG7NxFjGe0xLHnz+oIzjncFxFAWz3HXjmYBiFTHhlgXcVEXEjNQ7vCAfaS0J7BWCZ9b9fOyJvD6gP382rl9VcZqyBCUAIhUx77O7X8XEMMYYJuA/aQ0DNixhM/dtYTPbNbOAfuYCtzk2H5fVBSoFpQASFXVskvNyfPkNJ2YAYCrUY/rwholfGYd6t1HnRdPMrka5Y7TkAbV4Ycu0g5GA69zbH8RNuLcqy5zuMuI86USPrNZs4L2c4Fz+71DopCklABIVbVbF+J29D9trlF/DYrjOeqxfPAtJXzmrSV8ZrOiYpwG3OPYfregOCQhJQBSVe32CsDz7nYh8K+oQIA/BO4rhQeA20v4XO9TcWpzsFoMUTxJ5S60XxJfO0oARKrBM8DsamK7xL9NXFdyCl/EigLl9iss+aiq72NTQaNc6th2AnEVKSURJQAi1bCLY9vLw6IwTwBHUs5Ndijn4p+mVtRCrNTtnJI+fzDXY7UzIl0DLHBsX4dZE21NCYBI+dYEVnVsf11UIL2cD7yb6vQEdGFPuGXPxb8Zm2v/eMlx9HYJNujOc7Puz3x80wG3jQpE0lACIFK+LR3bLgRujAqkj99jq899D5iZ6DOGsgS7we0GfKz7v5ftv8CrgJOx3pKyXAu8DTiAdDMUrnVs6/lei0gbO5niJTnrVgr4MxQ/1uszxbgscBjW25CrrO0Uyqn414zh2DK4f8GSk9Tn5QXgu8BmOQ4OO7aisc6kfgMB26oUsEhVtVMCcB7Fj/WHJcS7LrbU7fnYRT7ixrYE627+BrAXMTXtc1sZeCe2mt8TxN30p3bv8wBi1npoxprO2CdnjterrRKAEWUHICJs6tj2jrAoGvcw8NPuNgp717s51i2+GbaewQRsidu+rxlnYd3Vj2ArDt7d3W4mdgR7GZ7FXpv8HjvuLbDzshn2N94YSxJW4JUJzhzs3DyJnY+ec3ML5b5meBxbyXF8we03w2oKSAUpARAp33qObcuYD9/bQuw1xECvIpYDxnb/uxdyBVUBncD/ult/lsESgYXYjb8KYxsGcge2EmIRnu+2JKZBgCLlmojdJIvoopwegGbMBp6hvW7+jZjH0vNS5Zs/+L5jk6OCkHhKAETKta5j2+nUoz691NtUx7ae77ckpgRApFyTHdtOC4pBZDAPO7ZVAlBhSgBEyjXJsa3nwizSKM/3rIxlm6VBSgCkqmo5raaAoqOrAR4Ni0JkYNMc246nfrUA2oYSAKmqdrlorOzY9pmwKEQGNgsrC1zECGDFwFgkkBIAkXJNcGxb93nzUh+e79rEsCgklBIAqSq9AhiaEgDJxfNd8yS5kpASAJFyLevY9vmwKEQG5/mueb7jkpASAKmqdhkDMNqxbdH3siLN8nzXRoVFIaGUAIiUy3NxXBgWhcjgFji29SS5kpASAJFyKQGQOvB815QAVJQSAKmqdhkE6Fn2dlFYFCKD8yQAdVzauS0oARApl+cmrgur5OLpqVKiWlFKAETK5Xmy0uAqycXzXfOMH5CElACIlEsJgNSB5z2+xqpUlBIAkXJ5no6WCYtCZHBjHNsqAagoJQAi5Zrr2NZTRVCkGZ7v2pywKCSUEgCRcqnGutSB57v2XFgUEkoJgEi5PBdH1ViXXLRmRQtSAiBSLs/FcZWwKEQGtgLFxwAsAV4MjEUCKQGQqmqXQkCeHoB1wqIQGZjne/YC0BkViMRSAiBV1S6LAT3p2HZyVBAig5js2PaxqCAknhIAkXJNc2w7OSgGkcFMdmw7LSgGSUAJgFRVu7wCeNix7SrAuKhARAawgWPbR8OikHBKAKSq2uUVwAzgJcf2W0QFIjIAz3dsWlQQEk8JgFRVu/QAADzk2HbLsChE+re5Y9upYVFIOCUAIuW707GtEgBJaVVgZcf2d0UFIvGUAIiU73bHttuFRSHySjs4tp2Nb4yLJKYEQKR8dzi23RpYLioQkT52cWx7F+31Kq92lACIlM/TAzAC2D4qEJE+dnZs63m1JRkoARAp3xPA047td40KRKSXUfiSyxujApE0lACIVMO1jm1fHxaFyFK7Ass6tr8uKhBJQwmASDV4EoBdUUEgibePY9tZwN1RgUgaSgBEqsGTAIwE9owKRKSbJwH4D7YSoFSYEgCRargVmOPYfr+oQESAScBWju2viQpE0lECIFINi4ArHdsfiPUEiER4J75y3JdGBSLpKAEQqQ7PRXMieg0gcd7p2PY54JaoQCQdJQBSVe1YQORvzu0PColC2t0kYCfH9pcBnUGxSEJKAESqYypwv2P7t+GbtiUCcDC+e8PfowKRtJQASFW1y3LAff3Rse04fF23IgCHObZdBFwcFIckNqLsAEQG0I6vAADOBz7t2P5I4JygWHLrwGoa7AasA7yIlZP9O/BsiXENpCfe1wKrAQuw+vcXAzNKjMvjNcAmju0vB54PikVE2tTnsSSgSDuphHgjPUjxY+8CNssfstsbgHvo/3jmAt8HVi8tupfrAN4O/I/+410AfAdYvqwAHc7F9937QP6QQ3mOXUSCtHMC8DV8F6Kf5Q/Z5VisaMxQxzUHOAUYX06YgJVdvoHG/g63YT0DdTEJS16Kfu8WUu7fJoISAJEKaOcEYHN8F6J5wKrZoy5mf2zEeDPHNxP4OjA5U4xjgEOw4jbN/i2upj6vWr+O73t3Uf6QwykBEKmAdk4AwEqpei5GX8ofctNGAY9R/BgXY1Mn30/8WggdwLbA6dj7fM/f4kPBsaWwHPbu3nOcB2SPOp4SAJEKaPcE4AP4LkYzqP4CQe/Bd4y920LsaftkbDzBKk3GMhzYFDvvZ2FLNEfFdmeTsZThBHzH+CT16ekYTFslAK3wBxNpRb/DBpKtUHD78cBxwBfDIooXWblwJDZ7YLde/9vTwEPd//k49mqk978fD0wANgTWw3okUtgMeyXzTKL9ey0PfNK5j3OwHhkREbd27wEA+CG+J5KZVHtQ1t+Je8quent10DlL4bP4jm0xlkC1grbqAVAhIJHqOh1fSdVx+GoKpFbLi2ZBVS2NOx7/0/8fsZ4WqRklACLV9QDwZ+c+jqO6T2f3lR1AJp1YmecqmgKs5NzHtwPikBIoARCpNu/FdTTwrYhAEmiXkrFXYVUNq+ZVwNHOfVyHzViRGlICIFJt1+C/wL6Nai4V/C/gprKDyODUsgMYwHewwZAeVU0uRaTGNAhwqb3xD0K7DytoUzXbAC9R/iC9VO3ssDMV6734j+1mWm/RrrYaBChSVZ9DCUBv/8Z/wf5a9qgbsyfwHOXfrKPbb/A/YacwAZuS6D2+Vij805cSAJEKUALwcrvjv2AvBLbOHXiD1gIuoPybdkR7AqtOWFVn4z/GG2i9p39QAiBSCUoAXukf+C/ct1PNVwE9Xou/DHJZbQb26mps+FmJ8zZijnXv3IFnogRApAKUALzSFljRFe/F+/TcgRewD8UW3ymjPYHNpV8uyZmIM4mYVy2X5A48IyUAIhWgBKB/P8J/Ae/EbrB1sD3wS2A+5d/o+57Dy7An6jqUVB8G/BP/cS8ENs4ce05KAEQqQAlA/ybiX7WtC5iOvXevi4nAR7BegWaXD45st2DVFddJe7jhvkjM8X8nd+CZKQEQqQAlAAP7KDEX8/9ihYLqZh3gw1gJ2lmkveG/BPwJOAZYP8fBJbA/sAT/uXgKWDFz7LkpARCpACUAAxsGXE/MDe5nmWOPNgrYAesdOAu4FZhNsXMxB7itez8fxhbwqeI0vmZsALxAzHflnZljL0NbJQB1eHclIi/XCRyBFWLxLmF7BHAPcJo3qJIsxKak3dDnf18Z6ylYE6t1PxpbHGkZbFngud1tJjaI72Gqu1xvUeOxcssRT+0XA78P2I+IyJDUAzC0qPe6S7DBbNI6RgGXE/P9mEW9xot4tFUPgEhVKQEY2misyzriIj8X2Dlv+JJIB1aFMOJ70YX1ErWLtkoAtBiQSH0twGq6zwvY1zLA34BtA/Yl5ToVeE/Qvi4Cfh60L6kYJQAi9XY3cELQvsYBlwKbBu1P8vsG8ImgfT0BHBm0LxGRhukVQOM6gL8Q1+X7OK1d7KVVnUTcd2AJ8Pq84VdCW70CEKkqJQDNmQhMI+4G8DSwZc4DEJd3E1sg6Qt5w68MJQAiFaAEoHnbYeMBom4CM7A59lJtyxOzvG9Pu5j2fT3cVglAu/6RRVrRzVhBnCjjsalk+wfuU+K9B1glaF8PAodgvQnS4pQASFXVMqOugF8APwzc33JYyd3IxEJiRS3NOwurBzEzaH9ScUoARFrPsdigwCjDsaTidFQ9tIrWCdjHIuBdwB0B+5KaUAIgVdVRdgA1tgS7mPctj+t1LHAFsHrwfsVnScA+jgX+HrAfqRElAFJVegXgMxd4K/Bo8H53A24Edg3erxQ31bn9V4EfRwQi9aIEQKR1PQnshU3pizQJuBKYgl4JVMHfHNv+hPadNSMiFfVZNA0wyubAc8RNE+vdrgPWy3co0o9R2GqGzf7tzkEPgX1pGqCItJQ7gX2AFxPse2ds4NgnsMGCkt9C4IPA4ia2uQD4AJruJyIVpB6AeNtjxX1S9AR0YWMDts52NNLXu2msENQvsF4DeaW26gEQqSolAGlsiY0JSJUELAZ+hJUmlvy2wKaALuGVf5v7sCRBBqYEQKQClACkszHwGOmSgC7geeA49KRZltWAtwMfBg4Gtio3nNpQAiBSAUoA0loDuIW0SUAXNg3xWGB0nsMScWmrBECDAEXa05PA64DLEn/OWlgFwTuxgWpKBEQqQgmASPuaBbwJODPDZ20A/Bxbsvhz2EJDIlIiJQAi7W0RcATwse7/O7XVgK8Aj2Pz0F+T4TPLNBY4APgS1hNyIrAnmjIpIjIgjQHIbzfs1UDqcQF92z3Y33v99IeYxQhgX+BXwGz6P+ZpwEElxScDa6sxACJVpQSgHKsDV5E/CehpNwKfAl6V+kCDLYM96f8cmE7jx/vtMoKVASkBEKkAJQDlGQ58HnslUFYi0IWVt/0xtqjRKkmPuHnDgG2A44FLgDkUP85jM8cuA1MCIFIBJ6IEoGw7Ag9SbhLQu90HnAUcja1GuEK6Q3+FtVn6Lv9SrM5B1HHNBlbNdygyiLZKALSSl4gM5L/YU+4pwFGUP2h4o+52eK//7WHgge7/7GlPYyWPe9pQgxuXx2YlrIS9Almru00GNsEKJy0fdAz9GYsNxPxqws8QEakN9QBUy27YYL2yewGKtCXYE/vz2OyDZ3v9984KxNcFXNH4n0ISaqsegLIzehGph2uwhX6+DCwoOZZmDcOe7lcCJmHrFPT8944S4+pt7bIDkPajBEBEGrUA+AKwKfCHkmNpNVqWV7JTAiAizXoIW2hmT+D2kmNpFQ+UHYC0HyUAIlLUFdggwfcB95ccS91dUnYA0n6UAEgrUpnVfDqB3wCbYaPzHy43nFp6Gji37CCEkY5tF4dFkZESAKmi5bFpWEUtFxWINGwxcDY2Te992FLDMrROrK7BS2UHIq6pnvr7iRQ0ETgQOA0rBbsY33ScHKvbydD2BP6CTcMre5pdFdsCbIlkqYb1Kf63nJY/XJF6Gg3shdVBv5P4udhX5TsUacC62PTBxyn/pluF1gn8DRs/IdWxD8X/pneUEK9IbayDdXX+iYFXSItq0zMdkzRnOFZO93x8tfPr2u7DplG2yqqHreZYiv9t/15CvCKVtj5wAnAT+S+2G2c4PiluLPBu4CJgHuXfnFO1e7FSytvHnDZJ6HyK/52/V0K8IpWzIbaS3y2Ue+E9OvWBSphlgTcBP6Baiw8VafOw6ZEnYOsISD0Mw0pEF/27H5M/ZJFqGAd8CLiO8i/APe3ypEcsKW2ATSk8C3uCLvu7NFibjY05+QrwemCZBOdD0tsD3/dgz/wh+1WlDrbUzzDsS38Y8Daqd+HrxFZze6zkOMRvZawLfQtgy+7/3ATfvO0ipgN3Y0nJzcANwF3YLAept7N4+SqTzViErSY5Oy6cPJQASLMmYEuXHo3dYKvsVOBTZQchSYzCFtCZjM0yWBerHTEBm1a6cvf/3cjcRCc39gAAIABJREFU7oXYyoAvsHSVwGnYrIXHgEewm/7zgfFLdayKFbAq+hBzLbZapkjL2g7Lkus0YGsWdhOQ9jacl68GOKH7/16xzKCkMk7Bd535Uv6QRdIbDryLar3bb7b9KPysiEirWA+Yi+8as0v2qEUSGg0cia1QVvYN3NsWoylYItK/S/BdXx5Er9KlRSyHFcN4jPJv3JHtAWCFwPMkIvV3DP5ry5TcQYtEGwucCMyg/Jt1qnY+WvxKRMyOwHx815RObMqqSC2NwubvP0n5N+gc7Ycxp01EamwD4Bn815M/5A5cJMIIbBWyRyj/pjxYexL4HfBRbKpNxD5PRe/sRNrVZsS94nx15thF3PYF7qH8m3t/7QngF1hxob5da68J/JxfUr3CRSKS1p5YLYeIa8jfMscu4rIJtjZ72Tf53m0hS+umb8XQT+aR8f8P1WoXaQcjgJOxGUER147FwNZZj0CkoBWB72A327Jv+F3YMrC/Bw6i+ZH5GxJbiGg+8EXUGyDSqnYFbiP2GvbdrEcgUkAH8H6sfnnZN/1ZwHnA27GV3zymJIjvSeDj2DRIEam/nYCLsZH60deKcRmPQ6RpGwH/otyb/hLgn8Ah+G/6vY0CbkoU80vA2cB+KBkQqZtNsbU/bifN9aETOCDb0WSg0dCtZRT2Pv2zwJiSYngQG2R3DvBoos/YGFuNbWyi/YOt8HUrtvrbg9ha4S9iF4FW9wLwFPA0VhuinYzGFoeZBKyC/aakesZiSfpk7HqwHbB64s88DTg+8WeIFLILdrMq62n/z8De5Esq30V8957aK9tU4HRsBHWrPjBMAj4CXIq/OIxaa7b/kH/5aZEhjQK+TtwI12bac9hKWpNTH+QAvjREfGqx7WYsyWsVk7Bpp1UZIKtWzfYwsAYiFbMl8SNcG2lTgaMp7zVDjw5sieKyLxDt1v4GrNbA36fKPogNTi37XKpVuz2LvWIQqYzh2Lv+3N2VtwHv6f78qhiOVQss+0LRbu1JYJsG/j5VMxz4KeWfP7XqtxeBHRCpkEnAVeT9IVyPjYyv6jvgEVhXbtkXjHZrLwI7N/D3qYoRKFlUa6w9RT0TXGlhbyTvvP7bqM+0lw5sPELZF452a3VJAkZgK0KWfb7Uqt8eANZDpCJGAF/DRtvn+AHci1Xqq+PyuQcDcyn/ItJOrepJgG7+ao22vwITEamINYGryfPln44N7huR5cjS2Rq4i/IvJu3UqpoE6Oav1khbBHyG6r7mlDa0K1aMJfWXfyFW5GLFPIeVxTLYGghlTI9s11a1JEA3f7VG2v+w0sEilXEEsID0X/5LaO1pLtsA11L+RaZdWlWSAN381YZqs7A1QOre4yktZATwfdJ/+R8F3pLpmMrWAbyNdDXC1V7eyk4CdPNXG6zNBr5N+tLBIk2ZQPpFfBZjXePLZzqmKhkGHIgtUqQywmlbWUmAbv5qA7XpwFeBlRGpmPWA+0j7A7gZWzRDYBPgK8D9lH9hatWWOwnQzV+tb5uH1X7YH9Xyl4ranrSD/RYCn0PvugayOXAs8CesAEjZF61WarmSAN381bqwcVM3AN/A1q2IXIq85WjKQ/n2B35LuqVt7wQOxZa2lcasCmwBrAWsjdW9H0XrvDbp4OUzPoYB43r993WB8YGfNwsrYvWfwH32NgI4D3hH8H7vxG4ofQ20LHQXMDM4BunfXOAl7H3+dGzJ7nuxhXsWlxiXSMOOIt00tSXAN7H1zUWasSHwOLHfx1Q9ASOA3wfH2oUV3hIRSeKzpOsGexzYPd+hSAuqQxKgm7+I1M4U0t38/0n9l2qVakiRBMwmJjkdDvwmOLYu4FsBsYmIvEIHVnEvxY1/EZZY1LF+v1RXFZMA3fxFpFaGAWeQ5ub/GLBLvkORNlOl1wHq9heRWhkGnE2am/91qKKVpFeFJEA3fxGplQ7gJ6S5+Z+JRvlLPmUmAanm+evmLyLJfJP4i9Zi4IScByHSrYwxAcOBXwd/Zhd65y8iCX2N+IvWi8Abch6ESB85ewL05C8itXMS8Retx4Gtch6EyAByJAG6+YtI7RxJ/EXrTqwsrUhVpHwdoG5/EamdA4gv7/svXl67XaQqUiQBs4CbgvfZBfwy0TkQEWF77Akm8qJ1MTAm50GINClFEpCizcRWfhQRCbU+8AyxF6zfojWspR7qkgQ8BKyS6ByISBtaGVuOMvJCdRb2HlSkLuqSBFyLetVEJMBI4EpiL1A/wAoIidRNXZKA89BvTEScfkzshenn6MIk9VaXJODLqU6AiLS+o4i9IJ2Fbv7SGuqSBLw71QkQkda1K7CAuAvR77HCJyKtog5JwGw0M0BEmrAOsSP+L0Q3f2lNdUgC7gNWSHUCRKpK3c3NGwVcDewQtL9/AfsCC4P2V3UjgFWBNYHVsPO5Iku/i13YfO2XgKeAZ4En84dZumHYMs+rYudpLLBSr/9/J1Y6dwF2fp7AktLOvGE2ZEPgCmBS2YEM4o/A27Dvn0hbUALQvG8Dnwja1x3Aa7ALeStaEdgNK5C0ObAFsB7NT2+cAzwA3ItViLux+z/nhkVaruWxhHIHYDtgY2ADmp+qthi4HysbfQdwA3Ad1s1dtjokAScC3yg7CBGppgOwJ6yIbsfHsKfgVjIMW8zlFOAW4ksi927zsd6TE4FX5Ti4YNsAU4BrgEWkO0+LgP8AX+r+zDKtA9xD3LEtAL4IzAja32Jgz2RHLyK1tRbwHDEXmhdorYFHWwDfxbqiU93Ihmp3AJ8D1kh8rB7rYVPPootGNdMeAr6O9TCUYQXgV0PE2Eh7GOtZAtgDe4UWcX6eACamOXQRqaMR2Hv/iAvMQlrjKWMEcDD2dFnWzay/tgj4E/C6ZEfenA7gTcBlwBLKPz89rRO4HDgQ67nJ7Q0UW/DnWazXZ/k++/tggX0N1C6KP1wRqasvE3dx+b/MsUcbDRyNPUmWfRMbql0P7J/mNAxpGDbH/PYhYqxCuxNL5sooPf0a4JvA3YPENwu7KR8FLDfIvk4ZZB/NtiPjDlFE6moH4t7R/jRz7NHeQT1u/H3b1djYhFz2xsZAlH3czbY7umMvy8rAlsB+2Ij812ADIhtdEGsY8AdizsVsYKOAYxKRmlqGuEFLV2NT3upoU+DflH+D8rROrNLiysHnpre1sJoOZR+rt10CTI49NdmMJa7X5Ua0GqdI2/o2MReSR7D53HUzAhtYN5/yb0pR7TngnZEnCXvPfxRWu6Ds44tqs4CPUM+pwhthU2sjzsNXMscuIhXwGmIGbS1g6WjlOpmMzSMv+0aUqp3LKweSFbEy8JcKHE+q9g/S9pqk8jZipuwuBLbKHLuIlGgsVlAl4gJ6XObYI+xH3NzqKrf7gM0c52lbbDpa2ceRuj2OrX1RN98i5vhvRaW6RdrGacRcOP5E/bpQP0m1pqulbi8C+xQ4T++ltV6NDNUWAocWOE9lGgFcRczxfzJz7CJSgq2IGfX/CDA+c+wew7BiPmXfaMq6uR3WxLk6gbiKkHVqncBnmzhPVbAGVjvAe+xzgPUzxy4iGQ3Daqd7LxaLgF0yx+4xDHsnXvYNpuybWyM1Gr5agVjLbt9q4DxVSc8iP972T+rXoyciDTqSmAvFSbkDd+gAzqT8m0oVWidwzCDn6isViLEqrW6j46O+4+/PHbhIKspml5qIrTY3wbmfm4GdsIVF6uB04NjMn7kAGzz3NNY9+yJLl7Edh1UbXAOrnZ+7Lnsn8D7gt33+92Oxc5Xb01jxpaewMQdzuv/3Ydi5WhVbNngy+eesfwarvlcHy2OD+bzd+E9jxYlmuSMSkco4C//TwXx8o8pz+wh5nhYfBM4A3gNsQnMlZ1cAdsfqv1+M3QBTxzsfeG2vGN5OnoGRM7FCQp/AXiGNbeI8jcQWZToUOBtbbTJ1vEuAtzYRY9l2JmZ8T12SHhFpwKuJGdT16dyBO+xF2mVoH8e6ibcMjntZ7KZzHtaTkCr+Z7DlmjclbYGfOVjyuS+xlSI7gB2xGS1Rq1j212YDWwfGnVrEa5wFwIa5AxeRNK7Ef1G4jnIWUyliVawrM8UN4XZsEZwc3dGrYpUKn0l0LNcTu3597zYNqxGxYvRJ6ccywBHA1ETHch+DL9JTJWOwV33eY/5z7sBFJN5b8F8M5mNd23XQQZrKdY9hXfxlLC27HPB5rAs9xQ0usj2DjScYneRMDG4k8GHSFHk6M+NxeL2WmB6/IvUjRKQiRhLzNPDl3IE7fIjYC38n8APsXX3ZVgMuoPyb/EDn6efkeeIfysrAr4k/xgNyHoTTGfiP927q0+snIn0cg/8iMBXrYq2DicQ+/T0LvCnrETTmHVSrN+ApbMxF1RyCjWaPOs6HsTEadbAi8CT+Yz48d+Ai4rcCMB3/BWC/3IE7RM73v4tqLxm7Iba+fdk3/+uASYmP1WNL4FHijrdO9QHegf94p1HfZb5F2tYX8P/4L8wedXGbEjeV7Rqq0ZU9lOWBKyjv5n8h5bzrb9YaWHd2xDHPxeoS1MU/8R9zIxUkRaQixgHP4/vRzwHWyh24w3nE3fwjltHNZRngr+S/+f+Seq0gtyrWqxNx7GUUTCpqC6xol+d4n6I+rz5E2t5J+C9yX8oedfMmANtg73ojnv7vBlbKegQxxgDXku/m/2fqOThsLeAJ/Mc/DyuetCX16Cn6Ef5jPiF71CLStBXwD4R7imrNex4F7IANajwbm4sfXTHveWDdTMeTwkSsImHqm//NNFfBr2q2IX6Z4xexMrw/w9bb2Jpq9Y5MxN8jOAPrWRSRCvs8/gvakdmjfqVVsLKv55O2Ul1Pe0+ew0pqG9JWD3yJ1qgQ9wnSf5/mYKWdP0Q1xgwch/+Y6lQJVKTtRDz930l53bvLA0cBN5B3PfpzcxxcJieS7jy1ypSwDuAy8n2/FmPVOA/GXteUYST+HqInqcegT5G2dDz+i9W+2aO2gUpnEDtnu9E2jdbq2hxOmumBV+Q8iAwmkaZi4FBtBvAd/Kv2FXFIgXj7tiOyRy0iQxoBPILvx31t5pg3xUaTe0cpe9rbkx9lfm8k9hwtwRaUajUfpbzv3RLs9VbOVyrD8U+HvI9yymGLyCAOwn9RylXNbR1sPfocS9AO1m7CuoNb0TXEnacLMseeyyisul+Z38GF2ODBVRIfa493BsRcpyWSRdrC9fh+1NdliHEEtlBMjkF9jbQ3pj3cUkUkhD3ttZljz+lwyv8edgEvYL+N1E/XHcAtzlhvSByjiDRhV/wXoDckjnFb4H8BcUa1a9IebulGErMk8p25A89sOOmWRC76vdwo6RHD/gFx7pw4RhFp0IX4fsypn/4PxUqoln1x7d1+k/SIq+Fn+M9THQpCeV1O+d/H3m0W6ael3uqM8ZzE8YlIA9bCP4gu1YI/K2ADncq+oPbX/pvomKvkLfjP007Zo85vGuV/H/trPybdtEHvjIB5WCVOESmRd9Gfu0gzEG4NrGJf2RfRgdpzCY65albCd47mUs+Sv80YTfmDUQdr/yZNueGR+GcNfTJBXCLSoGH4n15SVP3bmPJHVzfSWqGq3VAeo/j5uamEeHN7DeV/D4dqd5BmyeWPO+N6gNadRSNSefvg+wFPx1aTi7Q18KwzrlytHRY4+TvFz087vOc9jfK/h420acQXD1oe/xoBewfHJBKm1QtWeKty/Rh7lxdlQ+yGMzFwnym1w3zmZx3btsNrkrp8B9YB/kHsugIvYRU4PY6KCEREmrMKvoVf5mNrpEeZRDnd/p6V3TqBrQLPQRX9kOLn5+QS4s3pDZT33Sva/kfsmIDJ+MZALADGB8YjEqaVewAOwSqZFXUh8ExQLGOBS7GLSUqdwI3AV7E1C1YD3uXYXwfw5YC4qmxuSdvWgfdvvzs2C+fNwLewQa+pbQlcRNxyw9Ow325Ro4B3xIQiIo26Cd+TxB6BsZzrjGWodjO2nGl/PRbLALOd+98x5jRU0jcpfl4+VUK8ubwZ33fmCfp/wFgbW5ExdXGhb8ScBsB/Lq4KjEVEhrA+vh/sVOJG7x7ljGWg1omtp97I+gR/cH7W/4gfDFkVSgBeaRz2G/B8Z37UwOfshn2HUyxt3QkcWPQE9DEc32yiTtL3/olIt5PwXTw+ExTHptggwuiL2xXAdk3EcWjAZ/6g6aOvByUAr/R7/N+XfZr4vN3x99j1154nblCgt55I1DVFRIZwF8V/qIuIuWh0YEVKIi9o0yn2Tn8sMWu7t+LSwEoAXu7D+L8nU2m+QNIwrLdsVsDn926/azKOgUzCNxjwjqA4RGQQW+C7YPwxKI4POOPo2y7GtyTqVwNimAGs6YihipQALLUZMWtSfNQRwzrA1QEx9G77OuLpzbsmwmZBcYjIALw3uncGxDAemyMecfFagk03845JWJ2YaVk/c8ZRNUoAlroE//fjeWA5ZxwjsVdOUQnAVKyksdcHnXGcGBCDiAzibor/QF8Clg2I4cuOGHq3RcD7AuLpcWZATPNorQGBSgDMGsTU/P9aYEwfJ26A4IcD4lkRXxL9n4AYRGQA6+G7SPwqIIYVgZnOOLqAhcSNYu6xOvBiQGy7BsdVJiUA5h34vxdPYitcRjqSmCTgEXx1QXp4ZtQswWpziFRCqxUC2t+5/W8DYjgOm0bl0YUNiIoaj9DjKWLWr69LKWNp3MoB+/gkNogv0s+IGUG/NnBYwH5+49h2GP5rlIgM4FKKZ+fP439CGIlVD/Q+rXzBGcdQMd7pjM+zwMlobIW5D2BPd7uRbk33RtS1B2AsVqzqQ9iNbSd81e/ej+87cSVpV777iTO+Lmx2kJe3sNafA2IQkT6Ww/d+7syAGN7i+Pye9g/S98zshL1iKBJfJ8WmSS6LjY3ob3DkC8DXsZtabnVLACZgA+T6uwk9CXwaS/KatW0/+2u0zcKWuE5pDFbx0vv72iEgFs9rgLnEjDMSkV4OxHdhiFj17CJnDC+Q7x3hxwrG+O8Cn7UmjdVmuA9Yt+gBFVSnBGAr4LEG4rqe5heg6QDub2Df/TXPehPN2AT/TJYfBsRxuDOGZookiUgDzqD4D3I+tva3x3h8qw92AUc7Y2jWeU3G1wns2eRnjKW5mRkP4h9D0Yy6JABrAk83Edt1NP9K4L1N7L+nne44piK+WCDG3m0GxXpIelsF34yJU5yfLyJ9FH166QL+HvD53lHUd5B/UOZywK1NxFjkwlXkBpuz7HBdEoALCsR3fIHPOaeJ/V+B/2barGWwVx2e31rELJZrHZ9/Q8Dni0i3NfBdEI4NiOHHzhgOCoihiJUYusLZYuArND/IazmKTTucS+ya7oOpQwKwLsWeOB+j+ZK8I7Bu8qGm3l1Aee+yjxsitqFaxCDbExyfv5i8vVwiLe09+C4IGwTE4OmBmEa5UzI7sIJDV2PFh3riehF7TdDMwkO9vZXi5yTXugN1SACOccS4S8HPfC3wJ14+2HAh1lt2QMF9RlkWX62NIuNY+vKWHC/7HIq0DM/7//sDPn9Vx+d3AVMCYogyGiuotA7+pMTzd8lVNrUOCcB3HTF66z6MwHogJpO/u38wP6X4OVmA/1g6sMW5isbwHefni7i1SiGg3R3bXhnw+a9ybu8pLhJtAfAQVjmt07mvNzq2TTmnvG4858I74nwx8DDWS7XIua9Int/MKGB95+d34bt27OH8fBG3VkgAVsc3B/nKgBg2cWz7CDG9EFWzPlZ9raiHowJpAQ85tn01/sV5qug67PVEUZ7fbI8rHNtuTmv+XaRGWiEBKPqOs8dVATF4LiZXBnx+FW3p3P7akChawzWObYdhN5tWsxDfdyQiAbjSse1wrPiSSGlaIQEoOkANbM75EwExrOXY9s6Az68iTwJwD/BoVCAt4BasgmJR3mSsqjy/HU/vVI97sfU1ioqoSihSWLsnABFP/+ArInRfUAxVs4Vj23+ERdEaOrGpmkV5/hZV5vnteAt/gX9GwfYBMYgU5lk8pCo8CcDVQTF4LibPFthmFezpYRlsOtSt+J4QU5jk2PaWsChax60UrxXh+VuksjpW2nh57F3+f7EFuZox3fH5EQkAWFGfon8XJQBSqronAOtii6MUdVNQHJ6LyUsN/ruxWM31D/LKSmaLgb8CnyVmxbMIniWDq3IMVeLp7q7S8s07Al/FRsH37oHsxAbVnYkttrOggX15lh5ewbFtb55ryLrYMsxFHgJE2p6n/O5smq+SNpB7HXFsNsS+1wK+R2MV9RZiy7pWgadQS5HVBouqQx0A8K3Wd0/GOAfzaRqraDgD+AZ2cxzMng3sa6AW9fpvOSwBLxrHvkFxiDSt7mMAPN3/t2EXowjzHNuuNMD/vg62BvqDwEdp7IllJPALbFnisnl6RWaERdE6PK94orq7PY7G1pJo5JozHiu1+zBwKvbKqz8D/XYa4fnN9jYbX4LVijM0pCbqngAM9fQ8mKjuf7Da9UX1vYiNAU7CLipHYUVLmtEB/JzyL/pVKhrT7haX/PlrAqcV2G4stqDR/djy1X1fWXoSAM9vtq8bHdt6i4iJFFb3BMAzl/fmsCjgGce2G/b6v9+ArQr4JWyAX1ETsbECZVro2LbZpKcdeErXlp2MHYPv+zwOK4d8EzaGoMdGjn0+7di2L8/DhBIAKU2dE4DR2CCaom6NCgTfXOBtsRvet7CFViIWJoLy3y16EoA1wqJoHZ5z4vlbRNgvaD9bYUWRPotdu7Zx7Mvzm+3rbse2SgCkNHVOADag+CyGxcADgbFMdWz7Gqyi2SeJrX+/aeC+ivA8YXkSu1a1nmPbyKfdIjyv6voagc0i+Ce+MUCe32xfnjEA41DCKyWpcwLg6f5/mMamGTXK8wSwNlavPVrZK7c94tg2xfmoO885mRYVRAHDSXOd2QPfGIDIqabP0HwNg97UCyClaNcE4N6wKMztwfuL4FlAJoInAXhNWBStw3NOPH8LryVUr6zzQuIrcHquKRHrEog0rc4JgGcFwOgE4Emqt3rdv0r+fM859j7dtZoNsfffRUV/35tV9nexr5uB+cH79JzjyVFBiDSjzgmAZzGPFBfEqLLCERYAZ5Ucw3WObUcB744KpAUc4tze87eI8GOs6E1VeFZXHIhnHIBnMTGRwuqcAKzp2Pb+sCiWujTBPov6KuW/ArgNmOPY/uPU+/sZZRmsiE5RjwKPB8VS1I3AGSXH0FuK36qnB1AJgJSirhfYDnwLnKR4J/k3yp9vDfbk/5Wyg8BmWlzv2H5D4E1BsdTZ+xi6JO5gqtIz9THgz2UHgQ3W86zgN5DHHNtGLE0s0rS6JgATsYp5RSzB3tlHm4lNTSrL08CHsAJAVeluvci5/WERQdTc4c7t/xAShd8i4K3Y+gmeEfNefyRNZUTPQ8Xq1H9hNpFsPAujpOwOfacjriKtExtgdQhWGKlqVsW3UIrnqapRVV4MaARWs75ofLPwVeBLZSyWrN5I3t9LF+lmmAzDBhYWjUu9ACINejPFf2iebumhjMbWKE99EVsE/JLyi/004nKKH2dkvfaBVDkBWNERWxfwq8TxRdgZ+Ad5bv73Eltsq6+pjtj6LvEtklxdXwF4lotN2QOwAPhRwv2DXSy3Ag7FV4AoF8/5eCksinqaj2/Fyh9HBZLQf4C9u1tkdb7+fAe72abi6bHyjPMQKaSuCcB4x7apR0T/kDRPrrOwd+L7UI8bf48/UrzscuR6DXU0n+IV667DSkzXxWXAFtjvJ4XpWK9ZSp6xRap7IdnVNQHw/FhSrzX/LPC94H3ehY17OCd4vzksAb5dcNvzIgOpqd8U3O5boVHkMQ/4P+Bg4gv1fL17/ym94NhWCYBk144JgOdH2qhTiBvpfBn2njR192hKZ9P8k+xdwG/jQ6mdM4Anmtzmaqox5a6oX2OrWc4K2t8j5Hkd4vnNe3o1RQpRApDGEmwRFK+/YwMe6/4ufAH2VDezwX8/s/vfRy7YVFczsVkejT69Pgm8H5shUmdXAm8k5nXaMPKcD/UASK20YwKQYw7yB7FlPj1uBt5OfFdoWW4DXs/Q4wEe6P53tyWPqD6uAPZj6PErtwCvo3rrUhT1H6wktGcgJFilvXf4wxmSJwFQD4BIg26h+HSbnRLHNgy7AHumKz1D664RvgxwDDYdcwF2vAuA/wIfBZbNHE+VpwH2NQ74NDY4cmF3DHOAq7ABoq1aTOYk/FMAU07/7XGgI74qlRIXqbQHKP5D86wi2Ii9HbF1YV2V+yeOsSpGYr05I0uMoU4JQG+jsHMX8aqp6obhqyfR07ZIHOfujthSlCcWGVRdXwGMcmybeiTwYc7tfwVcEhBHHSzCuk2rsIZC3SzEzp23e7wOOrHKgd7xAN6yykPxvK7zXNNECqlrAuB5Ykx5s1keq3de1Cysi1dEXm4q8DXnPt5L2h4Tz7VFCYBkV9cEwPNjWRgWxSu9ieKLFAGcji3qIyKvdBrNT4nsbVXSltz1XFvKfA0mbaquCUBVewAOdGw7m/gCQiKtZB7+Akee3+hQPAmAegAku7omAFXsARiOzVsu6jzSVykUqbuzgBcd26ccYKsEQGqlrglAFXsAtsU39//MqEBEWthLWKXAojbE6gKkoARAaqWuCUAV7eHY9mFsHryIDO1C5/ae36pIy6hrAlDFTNszuOjisChEWt9VwHOO7XeOCqSP0Y5tVfZasqtrAuD5sXh+pIPZxrHtP8KiEGl9S/DVytguKpA+qjg2SWRAdU0AqtYDsArF3yvmKlMq0ko8qx1uQZppd+oBkFpRAhBjE8e2D6DR/yLNutmx7RhgclAcvXkSAPUASHZKAGJs4Nj2rrAoRNrHo/hW3/P8ZgfiSQBaZdVPqZG6JgBVGwOwnmPb+8OiEGkvdzi2XT8siqU0BkBqpR0TgLFhUSy1umPbh8OiEGkvtzu29fxmB+JZyloJgGRX1wTgJce2E8KiWGoVx7bPhEUh0l4edWy7clgUMfv0VDcUKaSBFN5iAAAdUElEQVSuCYBn0FyKBMCzz2fDohBpL7Mc204Mi2Kp8Y5tnw+LQqRBSgBiLOPYdk5YFCLtZaZjW89vdiCepMJT2EikkLomAJ4fS4oEwDP4R/N/RYrxdJunGAzsubZoKrBkV9cEwPNjSdH1N8Kx7eKwKETai6f3LEUhICUAUivtmACk6AHwzOFNVZpYpNWNcWw7LyyKpfQKQGqlrgmA58eyalgUS3meRDxTh0TaWdXG3nhmA6kHQLKrawLg+bGsExbFUp6LyQphUYi0l3GObaMTgA581xYlAJJdXROAxx3broXvnX1/PBeTNcOiEGkvkxzbzg6LwqxK8R6JTuDJwFhEGlLnBGBRwW1H4rtw9Mfz4y26iqBIu1vbsW30DXddx7ZPobUApAR1TQCWAI85tvf8WPszzbFtikVJRNqBp57/tKgguk12bKty4FKKuiYA4PsBTw6Kocc0x7bbRAUh0ma2dWwbfdP1LAimBEBKUecEwPOjie4B8MSyCb7pTCLtaC180+6mBcXRY7Jj22lBMYg0pc4JwDTHttFLgd6DvZYoYiSwU2AsdbAe8E3gFqwG+nPAf4GTSbNKW6tYF/gGcDN23p4Hrge+BKxRYlxl2M2x7Ux8A4n747mmqAdApEnvA7oKtv8liOcORzxfTRBPFQ0DPo8N4BzoXMwCPpQxpm8OEstQ7VOZYuwATsQGig0Uy1zgI5niqYIzKf53uyxBPM864tkjQTwiLW0Xiv/gFuCr398fzwXppuBYquonNH5OTsgUUx0SgNObiOnkTDGVqQNbCrjo3y064V7DEUsXaWqTiLS0cdj82aI/ui2D4znKEUsn8a8lqqbZHpslwGszxFX1BOAdTcbUCeyVIa4yeZL/LuAtwfHs44hlFpbQiGRX5zEAL2JPAUVFJwD/dmzbAbw3KpAKGg58vclthgFfSRBLnRQ5Bx3AKQliqRLPb2UJcE1UIN0815KeV4ci2dU5AQC43bHtFmFRmHuAqY7tD6H+f4+BvI5iBY9eA2wUG0qt7ApsXGC7bYHNgmOpimWAgxzbX0982V3PtcRzDRNxqfsNx/Pjie4BALjEse2GwL5RgVTMqx3bviEsivrZ27Gt55xX2XvxTf/z/EYH4u0BEClFOycAKQrweC8ux4ZEUT0rOrZt9ffZg/EkP55zXlUd+H8j0QnAMsCrHNurB0BKE70oTm6eH8+qWBneB4NiARsH8CywcsHt3wDsDPwnLCKf1YG3A9thT13PY/P1/wA83cR+Zjli2ANLVDsd+6ijcfie4ps955OBt3Z/5jjgGeAG4EKqs1b9W/B1t98H3BkUS4/tKT6jqIv4eETaxnBs/nPREbjvTxDTaY54uoB/JYipWWOArzHwvPN52KC+kQ3ub68B9tNom+w/pAFVdRbAzo64umj8Rrks8GMGrs0wG/gs5T8sDMdulp5zkuLvdaIjnmkJ4hFpK9dT/Af40wTxbO6Ip6ftlyCuRk0Gbuwnpv7a5TRWxngsVnuh6Pl4Y8SBDaCqCcAHHHFNp7HXe+OwaoyN7PMKrNesLJ7z0QUsJE38lzhiuihBPCINq/sYAIBrHdvuGhbFUndi3eQe36f42uIee2FFiRrtet4T+GED/24OlqgV5XnHWleeY/4Xjb0y+TWNj4V5HVaCePuCMXlMwD+18S/Ya41Iw7CemqI81y4Rt3ZPAF4FjI8KpJdGboqDWQ84KSKQJhyEXSQnNLnd4cAODfy725qOaKk1HdvWleeYGyl1/WbgTU3udxKWXHhmJxTxTXwj/wF+EBFIH5viu34oAZBStUICcJ1j2w58GfxAzgMecu7jU6TpoejPUcBvKDaYqQM4ooF/d3+BffdYwbFtXXmO+b4G/s2RBfe9HHAxVqEwh7dgSabHf7HXVdE8v895WI+KSGlaIQF4Gl8Bnj2jAullMfbU4jEC66JNPZ3rUGwQmOe78LoG/o2n+IoSgOY0cq5f59j/KCxhTD1WZRK2xoa3VO7XAmLpj+facSM2LkGkNK2QAICvKy1V8Z2zgSec+1gH+CXp/k5vIeYC20h39RzH/pd1bFtXYx3bDnWuV8Se5D1GAr/HtyzvYEYD59P8K6m+bsd6LKKNwFenQd3/UjolADYOYHJQHL0tAKYE7OcA0iwXvAXWwxAxvWtuA/+mkdkCA5nn2LauPMc81Llu5O/ViGWBPwLrBu2vtx9gi/549UzTi7YjsJJj++j1CESapgTApJpmdhY2zcrrMzT2nr1RK2HFfDxPmb3d3cC/GefYv6f3oK5mO7Yd6rXRQuABx/57m4D1BETOWvk8Md/3vwF/DdhPfzzXjE6qU+xL2lirJAB34+tuT/UaoBM4jpgnkJ8A7w7YT8++NgjaF8CfGvg3nuWOlQA0p5Fz/WfH/vvajrgVCD8GfDlgP4uATwTsZyCea8ZNwAtRgYgI/JziBTlewt45pnKeI7a+xUze5ozl3UGx9LRnaWzA2p8cn/FZ1xEPrqqFgL7viOsnDex/TSyxivoeLMHKNnschSXNEfGc6oxlMKtix1s0tikJYxNpS2/Hd8FIuejMythshYgL22KKd49OwOq6R130F9PYk9Aw5+emnHJW1QTgo4647mrwMw5zfEZ/bSrFx3qcSNzN/z7SDhx9vzO+nRLGJtKWxmFPyEV/lI08NXm8xRFb39aJFQpqdvT+9wJjmIclXY3YzvlZKZZu7lHVBGAfR1ydNF5I6EgGXgegSDuxyeMcAZwe+PmLSVPbo7eLHfE9h61rICLBrqL4D3M66Rc8+YUjvv7a+TQ+kG9jfAlS7/YYzZWEPdXxWQtIWxa5qgnAmo64uoDjm/isPbFXORHfjVk0XnN/AnBZ0Of2tK83cdxFrIRvXYvfJI5PpG19Bt/FI3WJ0xWAe50x9m23A5s18NnnBH3eDTS3qMoo4EnH56WeLlXVBACsS71obHfQXA/RZOK+m40MCNwJq5YZ+Vu4nrRjecCqEnpiPDRxfCJta2t8P84zM8S4MTDTGWffNg84gYFndayJ76mlp91M87XPvau4RYwIH0yVE4AzHbF10XylvlWx8QPe78mLDDztczj2XY3qjeppT5NnzYi/O2LspNwVFUVaWgfwMMV/oDMoVg+/WW8lbsBT73YF/a8i942Afd9L82WJO4B7nJ/7+iY/s1lVTgAOdsTWBfy7wGdOwtdj09OO62ffr8amwEV/7xeQriJhbxPxJS6edUtEpAGn4LuYNLtCWlFfdMY52MXwq8Dy3Z8zHHjcuc8XgU0KHONezs+djpWcTanKCcBKwHxHfF1Yxcdm7Yy/x6j36o8TsMp+i537HKh9qMAxFnGkM85jM8Up0ra8I87PyxRnBzbzIMUFsQtb+/yjWDewd1+HFDxGbzL2/YKf24wqJwAAFzji6wI+XvBzP+383C7sPf9niX/l1bt9oeDxFfFvR5xLsN4VEUnsAYr/UOfjX3u8UcOB3zlibaR5n7r+SfHFgi50fvaOBT+3GVVPAA50xNcF/LDg547AnuLL/O4N1b5b8NiK2ATfa7urMsYq0pBWKQXc1/mObUdT/Im3WUu6P+vShJ/hmXPciXVbdhXcvuh2AP/D1nFvd3/FXuEU1Vlwu8X4S+mmnO/+S/ofZ5DKEfhWzfRck0SkCVvhe7K4B/8Suc0YhS2okvJpqUj7g/O4vub47Kh1D4ZS9R4AsG78ojH+n/Ozr3V8dqp2NulrdvQ2CnulVjTexWj0v0hW3tHnOUYV9zYCu7CVfXHt3V7rPKbdC37ug+SrllaHBGAsxQr1dGLTTj0OKvC5Kdsp5E3OAd7ljPnyzPGKtL2T8P1oz8kfMh3ElkX1tCfwvyLqwGoHNPvZhzs/txnfKhBfT8uVAIDNnW82vksCPncssYsGFW2d3eegDP9oMMaB2gfyhyzS3tbENwhpLs0XvYlyFDGFezztR0HHsg1WqKjRz/0reZ/wftBEbH1bzhHoI7EqjI3G9gJW3S/CH5r43BTtJfyrYBa1Ab6V/2YBy2WPWkRci3Z0AZ/LH/L/tyvw1ABx5WiRJUvfiF3Eh/rMf5H/YnluA3EN1FIuOduflYFbG4jrWWCHwM+NmBJYtE2lWC2DKJ4EsQs4I3/IIgLwZnw/3qdIX1t8MGtS3iCsRtYXaMZ6wEX03yvzBDbQrYxV0v7aTzyNtrNKiHc0VkRqRj/xLAB+BawW/Jnegk5F218prxcOrICR9/XHq7NHLSKADazzVsH7YPaoX2441hMRXTt9qLZCouNZHVtG+Cjs3O5G+mp/g5lG8XN0ff5w/78x2Cp+R2Ir/72ZdPUrNiLvd28O8GHyD/br6/P4juPW/CGLSG9fxvcjvpdq1EvYApsbn+MCvJDyL745jMNX3GU21fhupDaefDf//+KfuRBhNP5XcB/JHrWIvMxkfIN4usi3PsBQlgGm0NyguiJtEfmqIZYpokzyttmjzm9j0t/4Z2KFfXLO7x+Mt+7/HJpfPEtEEvgLvh/zldkjHtx6wJ9Ie0E+KtvRlOdH+M9TzpkAZTmZdN+zTqyqX/S4BY9h+OuI5FhaXEQasCf+C9XrcgfdgH2BW0hzYb4643GUIWKVxC7s/LeyYfjW1hjqO7ZrvkNp2HvxJzXRg2hFxKFIQZre7Zr8ITdsL9Kss759zoPIzLvITu+WY9Gisnhn0vTXrgMOyHkQTRiO/+k/ogCTiATyZvVdwN7Zo25cB/BW7Kkq6kL966xHkNdlxJ2nczPHntNVxJyjTuDvwBvyht+0w/Af6x65gxaRwY0AHsH3w76ReoyO3wRbKrWR4juDtSVYJb9WsztxN/8urLbB5lmPII834T83L2LFcOrQJT4SKzzkOd6bskctIg05Hv8Frapdl/0Zh3+MwN+zR51WB5bIRSYAXdhA01YyErgT3zn5J7aWQF0chf978J7sUYtIQ1bApht5fuC3Uq+53/+H/6J2cPao04k4HwO1d2Q8jtS8i2l1Ae/MHnVxY4BH8R3vNKozjVFE+uFZo76nHZY7aIeJ+BcWeg4rS1x3ryLtynbPAWtkO5p0tgPm4zsXz1NuGe1mfRb/3/+Y7FGLSFPG4+8FeBJYPnfgDhfgv7hdS7kle71WAG4n3c2/p10FjMp0TCmMBx7Gfx6+nztwhzXwj5d5hHolPCJt62T8F7ivZ4+6uB2Jubn9nHoMguxrJHAp6W/+Pe1c6nmeRmMrMnqPfxFWrKouzsF/zEdkj1pEChlH/6upNdPmUa+LXMSFvQt7hVInI4DfkO/m39NOp15JwAhieoq6qNf00R3wrQfRBTxIvXvHRNrOifgvdBdmj7q41xN3c/sm9bi5jcaWIM598+9pP6OcJY6bNYa487QYW7iqDjqA/+A/5kNzBy4iPssBz+D/8b8+d+AOkesHnI3dOKpqDWzcQlk3/572V2ClxMfqsTK21kXU8f4ka/Q+h+A/3nuoR5InIn18Av8F4AFslb462AD/6O7e7QZgnaxH0Jg98S/lGtmmAq9OesTFbI+/OFbv9jz1WUVyIjAd/zEflDtwEYkxGnt/570IfCN34A5fJvbm9iK2dGoVXgmMw6rOed/ppmiLgFOoRrI4GvgKFlPkMX4450E4nYv/eP9DNb73IlLQW4m5uNelZO5I0iwcdDXlLYozErv5PDlEjFVoU7HCSmUVk3orcP8QMRZpl1Kfm+E++I+3k9ZeBEqkbVyO/4JwM/WpAvYqYC7xN4FO4I/AbpmOYzngaPz12wdqdxLbRd673Y69g84xd3wYduOPGPDWX6tTAaSxxNQ5+GXuwEUkjS2x0cvei8KncwfucBhpbgY97SbgY8AqwXEPwxKM7+Ev6DRYmwlshL0njxw30bdNx14NvJr4J+j1sZoXEa+5BmqLgf2C407pO/iP+SVgUu7ARSSdH+O/MMzFnq7r4lTSJgE9N4jrsbEHe9N8QjAMW0nuCOAXxMzcaCTmN/WK4fAMn9mF1aL/CTatbKMmzxPAWsBbgNPwL+TTaDu+QJxl2ZWYRP9zuQMXSaEu7+xymIiN6F/RuZ9bgZ2Ahe6I0huOTQ1801D/MNjTwEPA41j38UvYU/YobJDcWKxLeT1gXfJPNzwaG0zY2xTsaTqnudh5egg7Z3OwAlRLsHM1Dkuo1sLO1YTM8Z1JfSrgjQNuAyY79zMNS/LnO/cjIhUTtVLc/2vvzmO0qs44jn9nmAGGGUAWLYtVoRiBiVTBxmo1tkq3FAFjFzXW2mAwURqFVk3VNrSp1obWRKIt3RtsCwFrYymtxSbSCkgbqVUWhbJVVEBEBIZBmGHe/vG8b3iZzv6e5d77/j7JEwgJk3Pu3HvOXc55nnmhG16CGtysgchKfKOd41QBPJaA9iUlFpOu/e+/wU2/p4duuIiEUQmsovRB4gTpShDUD3iW+JNK7PhmJ8epAityE7udseNJ0pX69kbc9PuJ0A0XkbDqKb18bg57vR36lWwp6oDlxJ9cYsQJYHYXj1MFtmgvdptjxULSVe1wFG4Wix4gPTsdRKQEc3EzWP6OdK2zqMK+fceeZELGUXqWzW0WbhaUpSm+TfrOZxdv9HLAzMBtF5FI+gAbcTNwzAncdhfmYIsYY084vuO/lJaidzKwLwH98B1HSGfBmx/gpv8rSdeNj4iU6FLs1XCpg0cT8NGwTXfiw9iK59iTj6/4I27y1p+Fu6fMJMZG7LNY2nwBN/0/Ss+2ZIpIys3HzSCyFzgzcNtdGAT8mviTkMtoAG7F7RNdL6y8tIu1I0mJE8Cj2ALRtKnHtpa6OA5fD9x2EUmIvljKVhcDyVrCpH314QrgVeJPSqXGMkrfB96Rc4G/JKCfpcbLwCWOj00o/YFNuDkOz5GurY4i4tgFuEsF+6PAbXepBrgXWw0de4LqbqwnXLraCuB6/NUn8Bl7sMWNadriV6wCq0Xh4lgcIJmlrkUksDm4G2RvD9x21wZj2+AaiD9hdRZbsJoHMZ7iemOT6WtdbGvMeAe4H9sKmmYP4O6YXB+47SKSUBXACtwMLM3AlLDN92IQcBf+quWVEs8B1xKv5G6xamwF/TriH5fW8SpwG5Z6Oe1m4O64qNKfiJxiBO62fB0GJoZtvjdVwFRgEbZdLNZk9jpWBGe83+6WZBLwQ6wCYKzj9C5WVGky2dna9nHcbVvdBgwI23wRSYNpWM17FwPNm9gWsiypw16d/gqbkH1OZC1YcZd5WJW3JDztd1UvLFX0fNwtWOtsUvsxcA3hCyv5dj5wEDfH6TjpXfwo0m1ZeQII6XvA3Y5+1gastv1BRz8vacZh+RQuyMcEevZ0lQN2Ya+sX8jHauxJOgtGYjcxF2FvCcbS87SzB7Abo0KswqoJZtEI4Hnc3UjfCTzi6GeJJJ5uALqvF7bVy1Wxn5XYCvWjjn5e0g3CciKcDQzDPiEMxBbNNWNP9oexV9V787GN8jk+BXVYid9hWMnf07Bv9b2wtx1N2GTfDOzGFhvuAg7FaGwEg7ECVhMc/bxFwA2OfpaIZNhg7KnK1SvaFaQ3R4BIaLXYQk9X19/LZGMhpIgEciHQiLtB6PfY07CItK8Gt6WrD2GfXEREuuWLuF2s9TjpWswmElJvrIaDq+utBVsYKSLSI67L5y5AazNEWqvCymu7vNbmhuyAiGRPNe7zv/8EvQkQKegNLMXtNbYY3WiLiAP9sS1XLgeo35LenOwirvQBnsLttfV3tOhWRBwaiW3DcjlQ/YHsJW4R6apa4BncXlNbgaEhOyEi5eFC3NUhL8SfsZXPIuXkNGANbq+lfVjJZhERLz6DJWdxOXA9iyXLESkHw3D/Sa0RuDhkJ0SkPM3AXc2AQqwne7UDRFqrB3bi9to5DlwdsA8iUuZm4XYQy2EpXy8K2QmRgK7E0hu7vGZOYAWqRESCug/3NwENWPldkSy5GTiG22ulBZgZsA8iIqd4EPc3Ac3AV0J2QsSTCiwhj+tPZjnga+G6ISLStu/jfnDLAQvRDgFJrzpgCX6ujXsD9kNEpF0VWHY/HwPdWqy8rkiajAU24eea+E7AfoiIdKoCeBg/A94+YHK4roiUZCrwLn6uhYcC9kNEpFvm4mfgawbuQfnNJbl64e97fwswO1hPRER6yMfugEI8CQwJ1xWRLnk/sBI/5/wJ4JZgPRERKdFt2MDlY0DcA3w6XFdEOnQtsB9/b76+FK4rIiJu3IL7tMHFT0XzsFKqIjHUAb/A39uuo8C0YL0REXHsE8BB/A2S64EJwXojYj4EbMHfeb0fuDxYb0REPJkIvIm/wbIRuBuoCtUhKVs1wHeBJvydz1uAMaE6JCLi2wjgRfwNmjngJezJTMSHy4BX8HsOPw+cHqpDIiKh1AHL8TuANgGPALWB+iTZNxA7p3wtai3EUpT5UkQyrBp/WQOL4z/AVYH6JNn1Ofx+vsphe/wfQDkuRKRM3IR9u/d9I7AM+ECgPkl2jAOexv/5eQj4bKA+iYgkxkRgB/4H2ePYK9wBYbolKTYYO1d8bV8tjs1AfZhuiYgkz1BgBf4H2xxWU+AOLGWrSLFqYCZ2joQ4F5/C1haIiJS1Kiypj48c6m3Fi1jBFn1zlUrgRvzu6S+OJuAudO6JiJxiOvA2YQbiHPAP4JNBeiZJU4Et8NtIuPPtNeCKEJ0TEUmj9+F/q2DrWIPKDZeTycA6wp5jT2DrC0REpAMVwFeB9wg7SP8NmIJez2ZRFXAd4Sf+Q8DN/rsnIpIt9Vh2v5ADdg7LIXAHSsqSBXXY4r5Q3/iL45/Auf67KCKSTTXAfPxnYWsr9gD3A0O891JcG47l7H+H8OfNceBbqDaFiIgTlwAbCD+Y57BPEUuwb8f6PJBcldjvaAlwjDjnyr+w/BYiIuJQNXAP4dcGFMfmfBvO8NxX6brh2O9kG/HOiyP5NijHhIiIR+OB1cQb7AtvBRYDVwO9/XZX2tAP+DyW6jlE1r6O4k/A2X67KyIiBZXA7cT5xts6DgC/BD6FvaUQP/oC1wCLgAbi/97fAG7w2mMREWnXEOAxLMNa7AkhhyUy+imWYKivx36Xi1pgGvA4cJD4v98ccBR4ENthICIikY3FXsXGnhyKoxF4Bvs2PN5f1zNnNLZ1bxlx13u0Fcvy7RMRkYSZDmwl/kTRVmzBKs1NxYogiRmOpeVdAOwk/u+prfg38DFP/RcREUf6AHcCe4k/cXQUrwA/B74MnOflSCRPJZbg6VZgIXFX7ncldgIz0Op+kdTRnu3yVgvMwqqvpSGZzz6sUuFLwPp8bMISy6RRDTbZTwDOz8dEYFDMRnXRG9h3/p+R3uMvUtZ0AyAAA7A3AnNIXw32Jiz3wAbs08YO7Kl0B7AL2wIXU29sC9w5wKj8n2OwSX8M6XtyfgvLILgAW38gIimlGwApNggrMjSL9N0ItKUZeB0rM7sb2N9ONOYDbCV9C3Zj0ZD/t/5Y2tqq/N/B3p70w96cFGJo/s/TsaqN5wAjsNf6afcW8DDwKJbUR0REMqgOK/azk/jfmBVxYyt2LvRDRETKRiWWyW8t8SciRdh4AbiJ9H2iEBERx64ElhOn6qAiTDRhhYIuRkREpJWRWOKencSfsBRuYhfwEHAWIiIinSguLXuc+JOYontxDJVwFhGREo0E7gM2En9iU3Qc64DZKNOiSNnTnb+4Vo+lrb2O8snel3SbgKVYlcDNkdsiIiJloB6Yi+X4j/3kW26xHfuuP66zX5KIlCe9AZBQRmNbCqcAl2P1CMSd94BVwF/zsS5uc0Qk6XQDIDH0Ay7FbgimYalypfu2c3LCfxo4HLc5IpImugGQJDgP+AhwGXZjoLUD/68Fq464Clid/3NH1BaJSKrpBkCS6AzsRqBwQ/BByi8V7WGs8uHqfKwBDkRtkYhkim4AJC1GAJOA8djiwknAWLJRaGc39s1+I7Zifx32tN8Ss1Eikm26AZA064+tch/NyVK7o/JxFlaKNwmOcbJE8Y6iv2/HJvrG9v6jiIgvugGQrKrEEhSdSdvlegv/Vgv0BWry/29g/v9WY1URwV7HN2N1EA7l/+0IlgGxAXgb2EfbpYYLpYhzXnopItJD/wM4YtfE7Sxn7gAAAABJRU5ErkJggg==;" parent="1" vertex="1">
          <mxGeometry x="105" y="495" width="90" height="90" as="geometry" />
        </mxCell>
        <UserObject label="Positive induced mood" link="https://www.flaticon.com/search?word=positive%20mood" id="8HKQdC73j9jO4bcsfkeK-3">
          <mxCell style="text;whiteSpace=wrap;fontStyle=1;fontSize=14;align=center;" parent="1" vertex="1">
            <mxGeometry x="80" y="588" width="140" height="20" as="geometry" />
          </mxCell>
        </UserObject>
        <mxCell id="8HKQdC73j9jO4bcsfkeK-4" value="" style="shape=image;aspect=fixed;image=data:image/png,iVBORw0KGgoAAAANSUhEUgAAAgAAAAIACAYAAAD0eNT6AAAACXBIWXMAAA7DAAAOwwHHb6hkAAAAGXRFWHRTb2Z0d2FyZQB3d3cuaW5rc2NhcGUub3Jnm+48GgAAIABJREFUeJzsnXeYXVXVh99J7500AkF6r4HQkSZNqlQLfIqioqAoCGJDAQEVkSIqSgdpUkNvUUroNZDQAgk1BNIJCSlzvz/WXDKEmVvWbuecu97nWc+AeM797X3K3mfvVcAwDMMwDMMwDMMwDMMwDMMwDMMwDMMwDMMwDMMwDMMwDMMwDMMwDMMwDMMwDMMwDMMwDMMwDMMwDMMwDMMwDMMwDMMwDMMwDMMwDMMwDMMwDMMwDMMwDMMwDMMwDMMwDMMwDMMwDMMwDMMwDMMwDMMwDMMwDMMwDMMwDMMwDMMwDMMwDMMwDMMwckNTagGRWA7YC9gA6Aq8C9wPPASUEuoyDMMw0tEEbA3sAAwHPgGeBW4BPkyoy/BAZ+Bk4GNkoF/WngY2SabOMAzDSMUoZAxoa2yYB/wOGUOMHNIVuJ22L25r+xjYNZFGwzAMIz67A/OpPj7cjowlRo7oAFxL9YtbttnAikmUGoZhGDEZibzzax0frkXGFCMnnEPtF7dsFyZRahiGYcTkEuofH85JIdSon+Op/+KWgI+ALgn0GoZhGHHoSvs+YdXs+AR6jTo4FGhGd3FLwPrxJRuGYRiR2BD9+NCMjDFGBtkFWIj+4paAL8YWbRiGYUTji7iNEQuRsaYQFMWxYRTwH9xDNorSH4ZhGMbncX3HdwZuALbwoCU5RRjwVgZuBXqlFmIYhmEUnh5IoqDVUwtxJe8TgOWAO4AhqYUYhmEYDcMgZOwZmlqIC3meABRmFmYYhmHkjtyvPud1AtAZuB7YPLUQwzAMo2HZBLiZnGYLzOMEoAm4AEvfaxiGYaRnB+BiGqe4XlLOwC2Mo5LtELEdhmEYRlx2INz4cXrEdjQk3yfcxbMJgGEYRrEJOQEoAT+O15TGYm9gMTYBMAzDMHSEngAsAQ6I1hpH8uIDsB1wNdAxtRDDMAzDaIcOwBXAzqmF1EIeJgDrAjcC3VILMQzDMIwqdEEy026YWkg1sj4BGAHcDvRPLcQwDMMwaqQPcBuwUmIdFcnyBGAgcDewQmohhmEYhlEnw4F7kIy1mSSrE4DuwE3AWqmFGIZhGIaSVZFsgT1TC2mLLE4AOiJOFFunFmIYhmEYjmyGOLF3Si1kWbI4AfgLsF9qEYZhGIbhiS8D56cWkXVOImyMpuUBMAzDaFxC5wGoZr8J38R88h38dfJc5XE2ATAMwygu2gmAdkxpy74TvJU1kpUtAJ/LIycDj3s6l2EYhmE8Dpzi6Vx/w7a5P2Uz4CP8zKwuRyoy3ac83lYADMMwiot2BeA+ZGz5l/L4Ze1jYKvAba1Kaq/ENZFEPz5CJG4Dvol0rpZhwMoetBhGnvgIWNTyzzNTCjEq0hWJKe+SWkiOGeZwbAn4HjAU2MNRR3fgZiTa7SXHc6lJOQEYDtyJJPxx5THgIKRYkAtXeNBiGEVgITCv5Z/ntfz7dODDlr+t7UPgg1b//j7uz6KxlC8DPwK2QSYBRjoWI2PNfcBox3MNRMbALYF3Hc+lItUEoC/y5T/Sw7leQR6QedX+j4Zh1EwXln5pllNx17o6thh4C5gMvNHyt/zPbyAvO5eVukahK3Ah8LXUQozPMA8Zcx4GVnc810hkLNwOmO14rrpJMQHoihT32cDDud4DdkW+QAzDyAadgC+02PZt/PdPgDeBl4HxwHMtf1/BVg7KNCE+TbkpLdtgfIiMPeOQLQEXNkDGxN2QZ6OwNAGX4ceJYg6wUTu/o3UCNDMzS2cLgReBa5GcIHvitmebZw4k/fUwW2r3tXOd1kP8Znz8xjVEjsyLvQLwZ+AbHs6zCNgfeMbDuQzDyAadgbVbrDXvAU8BDyHLro8jk4Ui85PUAoyaGI+E9N2Bu3/GgYgPzZGuorLIcfiZJS0BDqnyW7YCYGZWXJuDVAr9DbAT0Jti0Q9oJn0/my219lYAyhyCv2t2XJXfyh1fx1/n1DIztgmAmVnj2GLgaeCPSJx33sPkNiR9n5p91qpNAEDGJh+/1YyMmYXgS8hynY+OObPG37ze0++ZmZnlz+Yi5cS/i59Io9isS/o+NPus/afiFVvKmZ5+byEyduaaTZDlOh8d8m/EibAWfu/pN83MzPJvLwJ/QrYL8hBH3x1YQPp+M1tqtaYB7oCMVT5+cw4yhuaSVYCp+OmIe6hvWW+Up981MzMrls0FrgT2JtuTgRtI31dmS23jypfrM3QB7vX0u1ORsTRXLAe8ip8OeBroo9Bwi6ffNzMzK6bNAi5F0rpmzW9gIyTaKXUfmUmMfr30QcYuH7//KjKm5oJeSJiOj4a/jj7JwnLAJE86zMzMim0zkKx7u5C+RkqZo0nfL41urwGDql2odhiGjGE+dDyOjK2ZpjOS1tBHgz/APc3iUCwiwMzMrD77ADgXP9lKXTkMSRGbuk8a0e4BhlS/RBVZHbmffOi5HRljvVGrU12t57oYuWFdmQfsiBT58cGXkCQL65KjpRTDiEQv5MXShMSgG0t5HPgncDVSNTEFw4HTkCRqPt/Z7fEeMD/C72SRD5DkPtciEwAfjAbuB3p4ONeluFe9/RSfN9PvgZ97OM9iYB+kvK9hGGnoytIXVu8WG9hig5CJ9MBlbDCwAtnbT/fBXGQS8E/giUQaRgNn416FrhqvAAdjmVZ9sgcSmupje+k04EQP5/HGD/GzxNGMzG4Mw8gnHZBJwDbAoUi2vouBsUhFwCI4tj2DpGvt66fL6qIJWQl4pw69GlsAHEWcFYdG4Vv4S4j3w8ja22V/JD2vj0b9IrJ2wzDi0glYC9mSOxUYg0wMUg/qGpsDnAWs5LF/aqUXsuo6v0atWrsJGBCpTY3AL/FzXZYgY29StsPfDXh+ZO2GYWSHfsiqwZHAP1ha8Cf1IF+LLQKuQvKPxGYV4K469dZrU4CtYzWoATgfP9dlPjIGJ2EdJHTGR0NuBjrGlW8YRsbpgQw8P0Kcsj4k/WBfzR4CDiD+++wA4H1H7ZVsMVKi2d7T7nRAUgv7uC6zSRCtsgLwtqPwsj0AdIsr3zCMHNIBieT5HnAZ8AbpB/z2bALwbeJmGxyA5DIIWUnwXiS+3XCjO/Agfq7J28iYHIUBSG5tH8JfAPrHEm4YRuFYA/gxsgweej9cY+8gDlsxJwLbAS95bkdrmwpsG601xaU/Mgb6uCYvEsFXw+es5S0izloMwyg8PYDdkSQ+r5F+8G9tU4Dv4DmRSwW6Ar8lnB/FQuD7kdpSZFZAxkIf1+RBZIwOQkckJ7IPoTMQHwLDMIxQrIasDjxM2GXxemwSkiwt1l76Jvj7ymzLLqCYeR9isi4wEz/X40YC3VuneRI4H/H2NQzDiMUKwE+Q7KKpJwElZIn+YMSvITTdkHLIvsK1l7WH0NdsMYRt8beF9Xvf4jbAzwx6MbCfb3GGYRh18AXgeOAp0k8ExgN7hm3up2xDuAJpbwGbRmpHUfkKfiZpS4D1fAr7pwdRJSTG1zAMIyushmQrnELaicBdwNqB2wqSQOgfhNkSmY9kKTT0/AA/1+IfPkX5KGl4ik9BhmEYHukA7AbcQLoERIsQB8YYmfd2B6YFaseZZKekch45Ffdr8JpPQZ84ivkPllPaMIx8MBQ4gXSRBNOR0MHQg+jywH8DtWEM0DOw/qLSBFyPW/8v8CnI1UPxA6QusmEYRl5oQsqSX4X7R5DGXgB2DtzGjsDvCOMg+ChWfl3DGsiY6dL3M3wK+p+jmBKyjWAZpAzDyCPLA2fgL1yrHrsZWDFw+3YA3g2g/RWkXoFRG8Pwk+FyrE9RR3oQVAKeBvr4FGYYhhGR3sAxxK9gOBc4mrBhg0OAuwNof580hZLyRh+k1LSPPv+eT2HdgJc9CbsXSxxhGEa+6QQcAjxJ3InAI4RNotYBiYrwvSUwF3GyNNqmCzI2+ujrlwiQenoDpP61D4H/Jk4CDMMwjNBsD9xBvEnAJ0ia35D1BfZEKs351L0I+GZAzXmlAzIm+ujjOcD6oYRuj3gX+hD611AiDcMwErA54v0eayLwKvJODsVq+Cv81tpOD6g5j5yJn35dCOwSWuzX8JdE4iehxRqGYUTmi/grmlbNlgDnIQl+QtAHuCWA7nOw0HCAn+KnP5uRsTkKx3oUfWgs0YZhGBHZGj8RVLXYG8BWgdrRhKRO9u0XcAGNvRV8MP769KeRtXOWJ+GfADtF1m4YhhGLPYFnCT8JWAj8gnCVBvcF5nnWfBGNOQnYCX+5Jc6KrB2QWeFlCrFt2Rxg47jyDcMwotGErHa+R/iJwCOEi73fAH/168t2FY2VOng9/OWTuJqEE6jO+IsbnYY4nRiGYRSVnsBJ+Cv92p7NBr4eqA3L439F41pkPCk6X8DfJHAsYSNBaqIPkuDHR4NeQ5JRGIZhFJlVkUEv5CSgPLD2D6C/N/5DH8eQgQEtIIOQGH0fffU80C+u/Pbxlb6whOSPtiIShmE0AjsB4wk7CXgd2DSA9i7AJZ61FnUS0BMZ23z00Rt4SqvvMwxjDeBhYKCHc90G7AMs9nCuMisiey9DaKz9JsOoxMyWv4uAj1r++WPEQQlgVotNj6yrkegEfB8pmR4qVfonSIXBf3k+bxPwayR7oK/x5B6kgmxsFiNpi8cDb3o8byeknsPuHs41HYn2eNnDubyzOf68RC/Ezw21A+IUE3KGbWZWdFuC+OlMQGLcb0Ke0dOQwWs3YC0kbbihYwThEwn9kzBf2N8jTEXBVDYOyefgShMS6eBD0zxkjM00eyJfEz4afLKjluPxl7TIzMysNnsXeYH+GzgV+Cqy+tYITl4+OAiYSrjr8zhhqgsegoQipr7/fNkS4GeOfXKKJy2LkLE1F3wbfxfh+0oNh3rUYGZm5m6fINXOLgOOA74EDMVoiwHI/nqoD5hpwI4BdH8Z2UJKfa/5NG2GPV9VdEvImJorfo2fhi9GElDUQx/gA0+/b2ZmFtYmA1cgL8z1CZfIJo/sDEwiTL8vRr5wfafk3Q7/hYRS2jQk6qEe9kP618fv/7rO384Mf8dPB8wHtqnjd7/p6XfNzMzi22wkxOxXyD5so5cP74Hkzg+1GnBdy2/4ZBTF+gg7rI62b4O/PA9/r+N3M0dHxFnIR0fMoPY62Bd7+k0zM7P0Nhd5j3wXGEnjsivhMgk+jv/tmLURf5DU948Pu6jGNq+DjFU+fvMmCrAa1h14CD8d8ibiKVuNOz39npmZWfbsReBPSAx9EWPGKzGYcJECbyCDtk/WJE7649B2Zw1tHYGMUT5+7yFk7CwEfYHn8PfwV8tsdZ+n3zIzM8u2zUKcCveksbYKDkXyNvjuzznISoNP1iD/KwH3VWljX/ylR34RcQItFMsDU/DTQY9Qec/KJgBmZo1nM1g6GWiEkMM1gafw34+LgCM8a12DfK8EVJoAdAMe8PQ771DgbS6fVZD+Q/v7IzYBMDNrbJsG/A0YTbHpCpyJfwfBZqRokc8IgXWR65L63tBYexOAjsD1nn5jJjJGFprtgAX46bDz2vkNmwCYmZmV7TkkDW5miqcE4CvI8r3vvrsMv1sr65PP6ID2JgB/9XT+BcjY2BAcgL+0kSe2cX6bAJiZmS1rHwOXAltTTNYCJuK/3+7Ar0PaBuTPJ6CtCcCJns69BBkTG4qj8NN5zcD/LXNumwCYmZlVsgnIqkDRKo/2xt+SdGv7L/Unw6nECsAtAXSGsmUnAP+Hv22Xo1Q96AHfGaDq5TTgBA/nWQzsDdze8u/3IUWA6uVWZGZqGI1COaKmC0sHw54t/94JqWE+kOIW+ZmB+Aqch+TfLwJNSIa/U/EbR/4YUvRpZrX/Yx2sg1TJG0kcx83hSLriermfpamTd0eq+/moKns68HMP58klTciSnI9Z1EfAZi3n1a4AaCYNhtEI9EQKyGwM7IIU+DkGOBv5khuPJOxJ/aWmtQVIqVzfcfAp2Qn/++3PILkI8soOuK0AbIa/8MtLSf8RnpzOyB6Tjw6dBqyGTQAMIxWDgE2BA4HfATciuezzUpWzGbgN2NZ3xyRiJPA8fvtoIhLWnUdcJgCr4S+K4Q4aI1S1JnoBT+CnYyehv+FtAmAYYegNbImk8z0fed59lQ0PZfcAW4TojMj0Ae7Gb99MAr4QsxGe0E4AnsdfUaYnkDHPaMVg4FXSPvA2ATCMePQEtkeK/tyBZPVLPei3ZbcCmwTqg1h0RrY4fPbLW8DqMRvhAe0EwJe9Sr63UIKyCuKIYxMAw2g8OiCJUH6E5F73VVHNhzUDN5D/RC0n4nc75i3ytRKQcgIwFRnjjApsQjpnIpsAGEZ26IF4XJ8LvEb6SUAJidm+gtqKkmWVQ/CXjK2ELI3nxScg1QRgLvlfRYrGLsBCbAJgGMZSVgOORUrXpp4IzAN+TX4rtm0DTMdff0wgH0vbKSYAC5ExzaiDbxDfc9gmAIaRD1ZGcog8Q9qJwBTgIPIZzrUG/srXlpBrUa1Sa2piTwCakbHMUPAzbAJgGEZlVkccCV8h3UTgQfK5xDsSv9srj+I3Y6BvYk8AfhanWcXlbGwCYBhGdZqQqIIr8bvHXastQUIc+4RuqGeGIzXoffXDWLK7NRJzAnB2pDYVmg7ANdgEwDCM2hkI/Bi/A1ut9jawV/gmemU54Gn89cEd+K0i6ItYE4BrkLHL8EBXZFZpEwDDMOpla+A6pGZIzInAtcDQCO3zRT9gHP7an8VUtzEmAGORMcvwSB/CO/zYBMAwissXkGVZX7nca7GZwBFkbyBsj574zRr4m7jyqxJ6AjCe7DtCfkpebsoyw5EZ6shA598RqfqUFfogxVdWILt7aiGZgTgojUf2Vw3DBwOA7yPlgGN9od8LfAtJnJN1uiMlhXfzcK4SUjr3Mg/n8sEOfL60ry+mIOmuraJsQNYCPqTYKwDLIw9MljKhpbQ3gR/gt7SpYXRFahP4DIWrZDOAA6K0zJ3u6IuqLWufIM6ZWSDUCsCHyNhkRGBL4GP8X8QsTABGIy+K1INuFu02GnMlxAhLV+Ao5Mstxn18MdkOlSvTC38+ATPJRqnlEBOAj5ExyYjIXvh36kk9AVgLmE36gTbLdrm6dw2jMj2An+Kv5Gslew2Z7GedfviLDngDGBJX/ufwPQFYTP4iPgrDEfi9mCknAP2Al9vRZfZZy8pyolFMegG/AOYQ9j5ehCQwyvrW1nL4C6d8HJlopcL3BOCIuPKNZTkJfxcz1QSgIxI3m3pgzYtdo+tmw6iLocBFiANqyPv5HmBQpDZpGY6/jIHXkc4B3ecE4KS40o32uAA/FzTVBOCMOjSamZetEZdRwEOEvaentPxOllkJfw6Tx8WV/im+JgAXxBZutE9H4GbcL2qKCcBXHfQ2qi0hfyGsRr5pAg4mbMTAfODwWA1SsgZ+qgguJs371scE4Gayv23TcPQAHsbtwsb25NyYMNEMRbeZms42DA/0AP6A7N+Hur8vINuZ5LbFT62FaUiOk5hs5aj5YdL6MBgVGAhMRH9xh0XUOhhZ9ks9mObR7lX0t2H4ZGP85s5f1h4DRkRrTf0cgp9y7Y8Td7KzvIPWicgYY2SYkcA71H9xn4uosSOScTD1QJpXO6z+LjcM73QCjifcKt7bwIbRWlM/J+KnnbH308crNL5DuAy0hmfWB2ZR3wX+RkR9v65Tm9lSewp58RpGVliVcBP6OfhJyRuKf+Gnnd+OqPmwOrXNQsYUI0dsT+2pdG8knlPZdsSvSlYUm4J4IhtG1mgCfkSY9N2LgO/Fa0pddAbuwr2N84FNI2luAm6qQ5flHckpOwIfUPkCXw10i6RnELKsl3ogzaP9l3yVVjUak/WA5wnzDPyBbNaY74OfNk9qOVcMuiPlmivp+QDYJpKeJDRCKNVgJL3nwcCKLf/bIuB/wDnAmEg6mlp+aw/H87wJ3Okuxzt9gIPwf081A6cCv8UqAhr5oBuS2+Mo/D8P1wGHIl74WWIk8CTuCY0uR9oXi72Q67QNS50R30A+DP+IRRwViv7IJCDFHvJPcZ8hf0w2nYIGIN68vr943kNWcQwjj+yK3MO+n4v7kHTFWWMn/GxvHhxbOLKVsTzQM8FvJ6MRVgCywGbAg0AXx/McRnbqapcZAtyNfyeZe4GvA+97Pm8R6YI4og1FUraGilP+GPGGnoqkhV0U6HeKxGAkdfUXPZ93HLKaOMvzeV05ATjN8RyzgA2Q1U7DyDW9kb0t11nxX2MLr4ERwEv4/bpZjBRIyeJeZ5boCOwP/Jv6I1582EzgSuArWFa0anQC/oSfuPnW9hTZqyHQBFyPe9v+h91XRgH4O+4PwzjcVw98szKyV+bzhfYOEiVhVGYnJG9F7EG/PZsAHBC0xcXgQGAufvv+BeImMKuF3rglZCvbibGFG4ZPdsR91j8V2ZvKEmsCb+H3RfYcS500jbbpDlxF+gG/PbuCeBE1eWUN/JXWLdsbyIQ8S6yB+8rUImDz2MINwwd9cS8csojsfRGvh+Tw9vkCu5EGc75RMAx4gvSDfDV7DAvXrEZf4Fb89vsUspep7iu4fwC9QjYdHg2jIhfi/lD/PLrqyqyGf6/mrMY2Z4nuhImyCGVPYwVTqtEROBe//f4q2dsOOBP3dp0bXbVhOLAH7jf9A2TLCWYEfvf8FwFHRm1BPmmiesKSLNq/Q3RGAfkRkt/CV7+/hETmZIWuwDO4tWkJUsXPMDJPP9z3x2eSrf3w5RBHL18vqRmkqQWeRw4g/WCutX0D9EcR2QeYh79+fxbJeZIV1sK9fRPJdolkwwAkTt/1Ad4/uur26Yf7DL61TQJWj9qC/NIZ2QNNPZBr7eWWNhjVGY04/Prq+4fJll/Nkbi36aTYog2jHnbC/Sb/V3TV7dMTeZH4eilNQBLVGLVxKOkHcVf7mvdeKS4rA6/jr+/vJTtRGeVU6C7t+QRYO7Zww6iFrsgXj8sN/jLZmbV3Ae7B38voGWQrwaidW0g/gLvaDd57pdiMwE8MfdmuITtOtoNxdyIeR3baYxif8kvcbuyFwKjoqtvnEvy9hB4hW3uSeaAHfveFU9k8LCKgXgYj+/i+rsEZceVXZDfcQwN/GF21YVRgZSRPustNfXJ01e1zIv5ePmORzGBGfYwm/eDty2LVeS8SA5CcCr6uwXfjyq/IObi1ZQ7ZcpI2GhzXpB4vkh0P1wPwl7P8diSG3aif/Ug/cPuyvT33TaPQG8mJ7+MaLEKqE2aBnrj7OtwYXXUBSVEWt2jsi8T9a1kCHI44uKRmNHApfqpE3gAcgmxtGPWjzab3MjJohGA7JMVrvZjjp465yJL5HcC2jufqhOST2AZJu52SeciKxF3o3zX7IE7X9/oSZRj10hNJwekyk/1zdNVtMxJ/Wf7uIHvFi/LG79D1/SkBNZ2m1HRSQE2NQG/8bQe8TXZqi1yCW1vGYx+xRkJ+j9sN/BrZcJDqAzyPnxfMw2SjTXnnb+j6/xcBNf1aqem8gJoahQH4cwx8lGxsOQ4E3setLT+IrtowECeU+ehv3GZg++iqP08TcBN+XizPYd7+vrgO3TU4OqCmY5SargmoqZEYjKT69fGs/j2y9vY4GLd2fIhMjgwjKq4Z/y6IL7lNjsPPC+U1sleIJM9oUy9/JaCmg5Sang+oqdEYgb9kQd+MrL09XBMEnR1fstHIbIxbAY/pyPJXarZBvINdXyTvkL165HlmKPpIjNEBdW2p1NSMJYHyycq4L52XkBXMTSJrb4sVkNA+bTsWYhkCjYjch9uD9/34kj/HYGTgdn2JTAfWjay96ByCfqDtE1BXf/QTkwMD6mpERuOee6QETCYbHyNH49aOO+NLNhoR11K/T5O+zG9HJHzG9eWxACvTGYK70V2PVyNo00a93B5BW6OxH35KCd9N+ndSJ+AF3Nrx5eiqjYaiI243aTPu8bw+0IaYLWvfji28AVgH/Vf25RH0XaPU1oyUhTX88hP8PMsnxhbeBjvg1obxWJ0AIyBH4HaDXhZf8ufYBT9fDX+KLdyBDsAWSBjbRUjmxgcQT/uzkYmMNvGOb65Cf01iOHV9x0FfjAlKLQwBvoWkpL0W+C9yT1yIhFFuSr4GkvNwf54XApvFFt4GrgWwDoov2WgEugPvor8xZ5PeS34QfpL93E76JcNaGAj8gdocppYgRYv2SaJU2L0NXbXaEuIkeFkRt1TRu0TQ2B57Ide4lgnwVCTPRx7CWjvino68BLwC9IqsfVlWQ7KiatswkXy8m4yc8SPcHq5j40v+HNfi/pKYCPSNLbxOOgDHA7PQtXEcsFFkzYNwyyr5QESt4xx0Tia+09lGyMCv0TsTeXZ9pMcOSV9kAHd9vi+MLbwN/ohbGw6NL9koMt2QFJouL73Umbe+hvvLYQYyQ88yvXFfRiwhHtaxlhN7oB+gyhaz2tsPHbU+TLwiUQfhp6zyDaT/Oq7GmshKo2tbUy+j98ZttfU1oHN01UZhOQq3Byr1jHQ4Eq7n0obFSGGSLDMUfymNS8hS98mE/frriWypuOicRdzBqQ9ucdslJPlLyJTRTci181XZsoTcW1nxFWmPfXFv80zSl9v9Nm5tMAdlwwtdcfv6H0/aPakmJEbW9eV3fGzhdTIU2Z7w9bJvbVcT5ot1GPCkB31nBtBWjbMd9JbtccIMqN3RRytUswmBNPvkTNzbeTdptz06IKnFtfonYwXJDA/8ALcHKXVs6vdx018CxpJtx5qQg3/ZHkNC9HxxIH6yuX2EeLXHZjh+EtG8D+zvUde6yMQi5L2Q9UlAJ+SZdW3n/0XWvSx746b/yPiSjSLRFXgT/Q0Y0zGrLVZBBgjXF3Tq6IVKxBj8y7YQ+bpycYLcDPcl/9Z2qoMWV86ooKteuxUJv9PSDzgLP6mta7GsTwKGIJEMLm2cTprJZZkm3CZz75De98rIMa5fz6mz5LkONM3AntFV107Mwb+1fQRcjNRSqGVlZDkkh8RYzzqmID4EqegNvNWGLhcbi/RVLbUDOiGJtS7BfaLgSCPJAAAgAElEQVSrsaxPAnbB3R/g6uiqP8tuuOk/PL7k/JD10JaUdEK8SUcqj7+ZtDHlB+JehvUsJNNYFhmKDBZrJtYxD9nHfxZxxpuFfHUMQiq3jQJWDfTbeyMRDynZB7gx0LlfBZ5CfHA+ROLD+7XYRkghm5QTIJAJ6A7I13YWOReJ2nBhL8RpMxUPof+YmoBsC5X8yTEaAW3p07KNii/5U3rj5rhYQl68WXWiGYJ73vC82/nOveiPC0jfHyntJcQnIot0w82ZroQspfeLLbwVrimC94gv2cg7LnHZqQufnIXbAzMXWD266toYiszqU7/0U9pTxIujr4UeyApI6n5JaVneDlgfKdzl0r6/Rlf9We5Hr/3+BHqNHLMFbg9Lyr3/DXB3hMpqDO1g7Mv/XaR+etYYjvuqU94tyysBP8atbUuInx2zNVu1o6tW2yS+ZCOvuMQQj02gt0wHJMuay4NyP9n0DbEvf9kH38C1IwOyEZItMnU/pbSsrgQ0IUWPXNqWOqrJJZ/JvxPoNXLISNy+oHeML/lTXLNnLSC9U11b+B78n0Sq2s33eM7QNh3Y2LUjIzCKfE0C5iP3go+ETGXL6iRgNdxzNxwYXfVSXHwBFgMrx5ds5A2XLFqPJtBbphfucb8nRFddnRCDf7nC2w64p7SNYZOBtVw6MTLr4FbYKJbNBrZv0dyfxpgEnIhbu94kbArnajzWjq5a7M8J9Bo5ojf6CnIl0sbM/66CrlrsGST0MUuEHPzLrIeEe6YejNqzB8h2Iqb2GI6Eb6Xuv/bsVT6f2bERJgGdcXfY/GV01Uv5agVd1WwO2a9kaiTEpejPBNLtnQ9FPPe12heTNmyxLWIM/mUGIHkbUg9Ky16T35O9SVk9dAJOR9qSuj9b2420fy80wiRgFG7X5CNg+eiqhU64rS59P75kIy+4VJJLeWP9rYKuWixFMZlKxBz8W3M4bitAvuwFYHTNvZV9Nicb0RszqS2/fSNMAv6EW5suiy/5U35SQVc1ezqBXiMHjMbtxZIqI9nquDktvk76bGqtSTX4lxkCXISEPcUeoKYhWduKWMu8M7LC9gHx+3UJ8E9qSy9cpuiTgJ64pXFegt/iWPXQB7eJetZWO40M4JLN7I8J9Ja5voKuWsxnJTZXeuO2CrOs1Tv4t2ZdJA96jInA28BxLe0vOn2QtsbIGbAYuAJYW6nV9yTgebJ1jb+GW3uuiy/5U1wKUf09gV4jw/RCPIK1L5kvxJcMSGU5l2Ifj5CdmP8O+N2Hdxn8W7MScAr+B6yFSH71/cluyuWQdAEOQPrAdwW/N4Hf4idhku9JwE3IvZ4FmoAH0belmXTJgZZHakNodM8lWxMxIzGHo38IQhVCqQWX9JjNyN5sVjgefy9ZX4N/a5qQ/vo9kmxJ8/J5FbgUODiAvjwzADgE2Vd+lfr7dQEykJ2ClBT2Pan1PQk41rM+F1w/IlIWo7q6gq5q9q0EejNHVr7+UvMI+sFweyTDVmw2R3RruRp56WaBgcAk/IToPAXsjPhlhKQbsEaLrYDs7/Zp9d8/RvYp30LCDF9EkvkY1RmI7C+vAqyIFKJpHXs+C3gf6duXW+yTwJr6A/fgJ6XsLKRtMzycyweXAoc6HL8FaXKg7IRcEw2PIrqNBmcd9LPI8Qn0lhlTQVc1m48sbWeFP5LdL3/DKONzJeCMyNorMRy3MOK74ksG5AN2Uo0a27L14ks2ssaf0d9AxyTQC5IP3mXZLksvnw64ZzAsIeE9AyJrNxqPvrhloyvb+2THFwDg17i1Z+v4kgH4eR0al7WzE+g1MkQHpNa15uZZRLqwnqtq1NiWTSNb2bBcq3zZ4G/ExtckIEs+OL2Qd4O2Lal8AYYiDrUazR+Q70RbhiMuxSVSOf+tilsWr6PjS67ISbi9RG3Z30iBj+2AX0dXXZmfoW9LM+nqVdxYo8a2bOcEeo2M4BL7nyrv/z/r0LisTQW6x5dckYvRt8e+/I2UuK4E/Cu+5Ir0xG077p/xJQOwex0as6LZSExnpL66diBNka3NJfa1RLbCj8rcgQ3+Rn5xmQTcnkBvNX6M/v2ygDSFqzogFTM1mmfQmHk4gGw5ocRmJyTcSMPliA9AbH6I/madTjYzYGnTEP+N7IRRGY3LbOBC5bG9fArxxN8RvygNXYEjPWqplWbgEuWx/YEd/Ukx8sIl6Ge62tSiLnTFzUknZQnPSlyHrj2fALsk0GsYrdkBCavV3MPXJtBbC0eif898SJraImso9ZbQTx6MnNIVfTGJpxLoBfh6HRqXtVlIMpUsci76ds3BYnmNdGyAW/x8VsPQuiFhitp2/SC+ZACeqUNja5uJjAkNR6NuAeyOPhQu1azd5aE6F5kEZJHnHY7tjXgAmy+AEZuByL3nsozvcu+HZAHwV4fjf0iaLLPad3M/GnQ1sVFTAV+OfFFrWBXJPhWTjdDXsZ6HZP370JsavwxD9hxd7sVbgL39yCkkw5BSuIOQgascNtmx5e+Slr8zkftkOhIj/V5EjXmiCcnEuYfDOZoRp96pXhT5ZxAwhc+mYK6HrZGaGTFZBUm7reFK9GOCkSM6oq9Jnmr53yX076wEeuvlUfTtK1ujF/doQuKwDwZOQwaoiej3p0stx05oOddpLedek8b9cCjzXdzv13HRVdfPX9G37+IEegGeqENja5tDA0cDNBIumeeOT6C3H/CRUm8zsHp8yXWzL+4v1FnAkNjCE7M+krxlDPLV7tqHtdqHyKrLscC6wVuZLYYhg4VrH+ZhxWpl9EnHPiaN39FxSr0lpLCbUXBOQX+DrJJA748c9N6dQK+GJqSyoetLVRuOlSc2R77M3iLegF/N3gTOA0YHbHdWuBT3/oq9NO7C9ejbmSIkcCT6Oil/TKDXiMyz6G6OJ1OIRfb+tQ/gvgn0atkY+WpwebEuQao7Fo2RwC+Al0g/2Fezl1q0rhikJ9KyPm5FuEqIT86GsYU7sA36tmr9llzRfkykrO5qRGAE+gf4hAR611ZqLSFfiHkrdHEI7i/Yq6KrDkMTskx8PzKxST2w12tLWrTvRXF8Bq7FrU+agYOiq3ZnIvo2j0qg9ycOeldIoNeIhIvzToovS5ftiqwVGqkVlzaXkD3LkdFV+6MjMhF6nvSDuC97DnEgLEcd5JFVcJ+InRxdtR9cBtTzEuhd00HvdxLoNSJxC7qb4s0EWpuA15V6FwLD40v2QhMSktNoL9rOwKHkY5lfa5MQn5Y8Jl05Hbe2X0t+V0IGIrkBNO2eRpqVyElKvTck0GpEoBt6b/oUOfS3VGotv2zyTHfgcfTtf4t8vWx3Al4m/QAdyyYiKXTzQgfgXfTtfQR5/+SZq9G3P0Wu/fOVWmeTptCbEZjt0N/AKUJ2XGJw8/RybY+1kZUMbR/kwSN9GHAZ6QfkVDaGfOy5bo2+jYsoRqjkjuj74B8J9O7loPeL8eUaofkNupvhEyTlbEw6oc/F/Q7FSfF8FvqH+NQEemulE1J2dTbpB+HUNhvZFsiyw+oZ6NtXlNCyJuBVdH3wAfG/qnui37Y4PbJWIwL3obsZ7kmgdXel1hLw5wR6Q9EPCZvS9MNDCfTWwkr4yXxYNHuE7DpvasPK5qKvOZJFTkJ/fVPk2r9XqfWJBFqNgHRBP5D8JIFel9S/mybQG5JL0PXDArK377oPMIP0g21WbQbZy5DXHVkF1LTnXwn0hsTFu/6iBHqPVWpdhFuRJyNjuOzhrR1ZaxOyjK/ROol8Ob/Vwrbor936CfS2RRfgL7jnOGgEa0ZWsbKSl30j9G3ZIoHe0GjDU2cQ/5quo9Raohh+VFXJ8r6bT76oPG4a4rEck43Rh/CVPXWLxDhk9aan4tg1SV9ydQUknWrqlZmpwNtIzYS5SJ/Oa/lvPVusN7LtMgIYmkAjyAT2GKRmx37IZDglaymPmws85lNIRrgGWE9xXH/kQ+x+v3Iq8iJyz49QHLsVcbUmoVEmANspj3uQ+APqng7HFiULXmsWI1UYt1Ucm9rDfC3grsg6FiEhlA8glfxeBl5BnO3qoS9SSGpNZBVsG2Az4jlzbYZM/nZBciOkQpvS+ElkNaNoXI0k69KwK/EH1QeRxFr1spVvIUYaOqOP//9RAr1PKrVOSKA1Fueg65MzUohtYXOkal6MZfMJSFt3RbdSUiu9Wn7jD7ilh63HPiBtSOef29FVzf6SQmwktPVJUqzG/UCpdTb5zlxptLA5+pfPRpG1Dke/T/yryFpjchK6PkkRfwywG/pJZz0D47mk3VrYrEVD6InOR8jEIwUX1ahxWctrKu5aOB79tYy9Krehg9YNIms1AnAUuos/i/gzwCOUWkvo9uXywjHo+iSFF/bBuCUwqmZPAvuTHSc5EC37o1+9qsUWkqaQjrb879EJtMZiLfTX8duRtXZA3uUarSnKGUelKAljKrGx8riHkeIfMdldedy7wAs+hWSMLA12ldgNyewXYp/8oZbzjwL+gwyIWWEhomkUcg+HqHffGbicdCsB9ZKXe1bDRGCy8tjdPOqohWYk74aGwvsBNMIEYBPlcQ94VVGdjuijFe5GZqxFZaDyuDleVVRmc+A6/A/+45GQpG2AOz2fOwR3IN7eO+J/UtoZmWjE9Amo13myjPaezQvae3En4mcF1E5IbQKQc3qgD+MJ8RVTifXRZw27y6eQDKLdN5zlVUX7rAXcil8HvI+QRCYbA2M9njcW9yPaj0Pa4oueSF+v6fGclZipPC51BEpo7lAe14f4+RG07/KRwCCfQoy4bIVu72cxYb2p2+JHDlqL/rWhzUH+zQjaVkDKRfvc774BWD6C9liMAG7Cbx9NIU4ffVupL2XoYgxccu2fmECr1i+nIRICFRWtA2CKkLr/KLUWMdlIa5ZDHxmxTWBtXXArW7yszafYjkc/QD9otGWPEn6vfXultmaKPzHX5tq/LYHWJ5RaU4SCG564BN1FvyKyzib01f9+G1lrbLSRETFewH9RamvLXiV+2GkKNka/otOWnRlY72AHbbE93mOjzbU/k/jbzxcotV4YWafhkRfQXfRjIut0KbKxZWStsRmLrl9eCaxrX/zl9h+D7I02Cn2QfXwffdeM1H4PyetKbUVPJbsx+uu2bmSt2tVgqwyYU7oi++Oai/7FyFq/o9Q5m2Knc94U/QvmkoC6VsJfVb+LKfY1bI9O6FfolrXphC0lfIWDtlEBdaWmE1LzQNMv34usdTulznlYRsBcsh66C95M/Brelyu13h1ZZ2xuR//iDZU0phPid+Fj4DqD4lVvrIcmJK2wj74cR7gX9dccdI0JpCkr3IOuXy6PrLO/UmcJWCOyVsMD+6O72K8m0PqKUqu2KEceOBD9A7sQqWoXAm1WwmXthED68sgJ+OnTUNn3BiJFlrS6vhJIVxY4CV2fvJ5A61tKrQck0Go48kt0F/u6yDp7IxkHNVpdKgdmmWHonSJLwC2BdA1Hkgu5DlQpixRlFR8rAbMIV8b4NgddUwPqSs3O6PtlSGSt2mv4u8g6DQ9ol9VPjqxTm6ughHgoF43uSHiXy0AQ6ovrakddJeS+bORl//ZoQjyuXfs3VASPy4pUCamTEDu3SAx6o/e12jmy1tOUOm+KrNPwgDbu8+uRdf5QqXNSZJ0x6IHbvn8JWeYLERvu8qVTtjE0psNfrXTG7Uu7hPjwbB9AWxfgbUdttyIT3KKhLQ/808g6v6rUWeRS64WkCf1S7WaRtWrjU6+KrDM0g4BHcB9kQ7xUugAvO+p6lcYK9dPSF3gNt76eQJh88z9z1FVCnBWLll727+j64pLIOtdV6vwYW7XLFSPQP6CxIwC0meR+HFlnSHZHUru6vlzfR5YkfXO4o675NEaSH19sgnvGwMMC6OoLfOCoq4RU0stLVcNaOBJdPzwdWWcX9P5WwyJrNRzYCd1Ffi+yzk7I4KDRGrMiWijWAf6N+wu1bD8IoLEj+iiNshU5vW8otFtjZXuJMGGB2podbdkV6IuVZYlt0LV/AfG3xLSRAJtH1mk4oE0f+9/IOtdR6lxCfvcShwAHIxUMfWXSKyFlc0Ms+x7iqOuGAJoaBdcCQiFyQXRBthh83bfNSGW9g8ivU28/9M/y2pG1PqDU+dXIOqNQVIckbSnOl72qqM56yuPeRFYOskgPpLTxEKRa22Bkz3MI8rCHeOCXIHnXF3k+bxNulcvmEi42vRE4CtgR6KU8/kTgWuQF7ouFyL32IH7y2Tch2wG7IjontNg04MOWv+8goYTPk83nfhbyZb2i4tj1iOtk9wa6ImEredZhBORidLO8YyPr/IVS552RdVajM/AN5IttHv6+jmq13wdq1z6OumJ7OReR43C7BqHqBPjKYFiPzQNuRCKVsvbxNgZdm2LH2P9WqfOfkXUaDmjLVB4YWac27vkvkXW2RxOScdHVQ97FHiDcy3Csg67nA+pqJDqjL+pVIlxBns7Aww66XO0lYD+y453+e3TtuCyyzm8qdd4TWafhwER0F3mryDq1A0wWnMp6ANeQ7gVYQrypQ3nnjkTvMVwiTCx6o6J16i0h11CzNF0Lw5HtuJTPwFVkwx9IWy/hwcg6v6jU+VpknYYD2gpVIyPr1L48doisc1mGIpnNUr74phPWg1qbSjrFS60RGIf+evw8oK51kfr2KZ+FJ0ifangLdNrfjqxzpFLnQqwqYC7QVn1aQpgMcu3RFf0X5vIRdS5LN9xT9braDKRUcEhectC3S2Btjcge6K9HaOfejRGHvZTPxFPIqlwqhrajq5b3bteIOjsig7lG6/CIOg0l2jLAsXMArK7UOZe0+34+4/Y19g6wQeA2bu6g74nA2hqVJmSQ016X0BPGjZB3SMpnI1QdhFpoQjLmaXSvHlnr60qd2qitzOIjjCVraEMAYy9FraI8ruxwl4I9kbj4VDyNpGp+LvDvHOpwrFX6C0MJt779hi8h7fAMce7NSnwNyaqZghKSzVPDSh511MI05XFFS+FcyAnAcsrj3vGqojpfUB6nfchc6YhU00rF5Uj8bujr1IQ+dGw64UoRGxJmOl157D4+hbTDW8jq0TkRfqs9TifdXvXryuNW9qqiOtp7aKBXFRmgiBOA/srjYk8AtN7r73tVUTv7IpkLY/MmsDfyVf5xhN9bD72PxVXI/qIRhoVIYh8NKxAn69wCJF3wPsRfVQS5f/dO8LsgUTkaQkVptIdNAFqwCcBSZnhVUR3tctJUrypqZ7/IvzcPWXFYm7hf1S5FWmLHNDciLn0c0znzZiRK5QziTFxbE/tZLfOG8jjtqq2WD5XH2RZADhigPG6mVxXV0d70KSYAXYDdIv3WbODPiI/EichEICbbKo+biDkAxuAxpLSyBu211fIRcAKwKpK8a06k392dMHUxqqF9N8X+srYVgBaKOAHQrgDkZQKQYgtgFaTgRyiakdj57yGlnH9KmnY2IfHMGsb4FGK0Swl9X29Fmgia94BjkHv7SOAh5J4PRX/i76uD/ss69sBqKwAt2ARgKbEnAHnaAvCdba8ETELClr6F7AFuC/wD+WpKxRroV5DG+hRiVESb3nc5YDWfQupkLvA3xJl1JHA4cCVLw9J8kiJmXftlHXtgtRWAFoqYq1z7Ap/lVUV1tDd9ii9j7QTgJWQvdBZSxeztFptIvOXQethIedwi5KvOiMMDwGJ0768NgVf8ylHxNnBRiwH0QXwGRrRYd2TVbR9kYlovKSYAefmyzovO4BRxAtBXeVzMCUAT+olKigmANsPYA8geaF5YX3ncY6RduWg05iKpqDdXHLse+kiCkMxB7qPHlvnfB6CbAKTICqj9sh6AvBNj5TfR6tSuLmcW2wJYSswJQH90k685ZLMeeFHQZvqy3P/x+Z/yOO0kz6jOHHRhsJ3Qf7hp0L7rs1B0yStFnAD0VB4XcwKg/fqf7VWFsSza7IwTvKowamGi8jjtNTZqIw/7658oj4tZKyYKRZwAaMNfYn5Za4tfLPCqwmhNE/qEJKGLzRifR9vnK5G2lkbR0TpTx/y61ibrilm0KApFnABoZ2mLvKqojE0AsscQ9PumWXAqazS0E4CexE8800jk4es6DxqjULQJQCd0bVpM2LjcZdFOALQ3rlEdbT3197CtmRTMRF/UZYhPIcZnyMPXdR40RqFoEwDt8n/s/O22ApA9tHuQb3lVYdTDm8rjChfOlSG0HykxB9clLVYvHShY5FzRJgB5WP4HmwBkEe0EYK5XFUY9aHNJFC6hS4bIy/J6XnQGpWgTgLysAGhvItsCCIc2esQmAOnQ5l7QXmujOnlZXs/DSkVwijYBsBUAQ4v23rEJQDq0fV+or7iMkZcva+1EpVD3TtEmANoVgLxMAGwFIBw2Acgf2i2AQn3FZYy8fFnnRWdQijYBKDqxUmUahmEUGe27tFA5JIo2AcjLsk5edDYS2mvS26sKox76KI+zlbRwdFMeF/uaaN+lsf3FglK0CUBelnXyorORsAlA/tD2faFe4hnDJgA5omgTgLx8WedFZyMxT3mcTQDSoe177bU2qmMTgBxhEwAh9pd1XnQ2Etoa4TYBSIe277XX2qhOXiYAeQkZD0oRJwAa547OxHXuyEuoTCOhrWKmLSBkuDNSeZxNAMKRlwlAXkLGg1K0CQDkY3ndVgCyx/vK44YSt5a5IfRHX9RHW0PAqE4eJgB5qRkTnCJOAPLgYJcHjY3G+8DHymNX9ynEqIk1lMfNwyYAIdG+o2IureclX0xwijgByMPX9Xzlcf29qjBaU0JfXEY7GBl6tH0+2acI43NoVwBiZjntrjyuUPv/UMwJQB6+rrX7zVbFLCyvKY9b26sKoxbWUh6nvcZGbWi3w2Z4VVGZfsrjChc9UsQJgHYmGXMfdxa6cpTdsEImIRmvPG4bryqMWthOedzzXlUYremF7v20CJjtWUsltCupM72qyACFqm3cwgxgFcVxMb+umxGdGiemQcSfiWr3xrcDTkdytn8MvAO8DUwg7gNfK9rBYTTy8tNWpzPqow8wSnnsCz6FeKQfsqqxAjAc6IG0c1vl+bTPrAvDlMd9QNw059oJQMxViigUcQKgXV6PXSN8OroJwEBgimct1XhPedwawPHt/LfJwKPAfcBdwFvK3/DJs8rjOgNbA3d61GK0zzbo313aa+ybFYFdgB2BzdGHNLbHu57PVwtDlMfFDsu0FYAWijgB0N5MsffX86IT9BOASqzUYgcjs/9HgH8Dl6Ov8ubKy8jETDMZ3AGbAMRiB+Vx04BXfQqpk77AocAhyKAfMvdIignAUOVxsScAWh+Awk0AiugDkKcVAA2xdYI4Ts0KeP4mYEvgPGQl4C/olxNdKE9ENOzpU4jRLk3o+3ocaSpqLg+cg9zb5wBbEHbwnwm8HvD87aFdAfjAq4rq2ApACzYBWErsgVU769XOsl1YBNwe6bf6AD9CJh2nI3vrMXlAedyawGY+hRhtsjmwmvLY//kUUgN9gD8hqw5HES9t9G2kiVkfrDxO+87WonX4DvkRlIQiTgDysrSu1fkFrypq54bIv9cD8R+YCOwd8XddlvG/4U2F0R4ufXyXNxXV2Rdxdv0p+rhzLbGf1TJ52QLQfuzZCkAOyMsKgNaRbyWfIurgJtJ4UI9o+e3LiBMCOR59QqBDsGyNIekCHKg8djIymQxNd+BsZBBePsLvLct44JYEvwv6LYDY/gra62ITgByQlxWAycrjVvKooR6WAD9P9NsgX34PI2FSoblVedxAzBcgJPugn6jHGBRXAh4Hjo7wW+1xPLocIz7Qrk7G9lcYoTxOWy/EiMgGiKNPvRY7Q9haSp1zI+tclivR6fZl7wIbBW7j5g76ngysrVFpAp5Gf120eQNqZRNgqoM+H3Z54DZWogOSn0SjW5O3xYVpSp2W8TMHLI/u4n4CdIyoszuSEEijNWVK4G5I/H7KF91MJPlOSCY66Ns1sLZG5Mvor8eEwNo2QbYeUz4TTyF+M6kY2Y6uarYIfXEeDd3Qv3f7RNRpKOmE3FSaC6xdGtLynlJn6K+ZagwFniDtC28GsE7ANv7CQdtDAXU1KuUQPo2F3LpaD/EOT/ksPEGa6KDW7IJOe+zl/1WVOgsXAVBkXkd3kWPndNe+1LSOUD7pDlxF2hffFCRtaghGInupWm3aZDXG59kZ/XVYgmTdC8HySGx/ymfgSuJHGbTF0ej03xtZ57ZKnVlNIe1EEZ0AIT8OdpOVx4X88q2V+YjX+1eQDHopWBG4ljAZLaegzwkA4gkec2mzqHRGEkNp+R/6qI5KdAauI/6qYZmXkFDDr6EvL+4TbXnmSV5VVEfrRBziHkpOUScAbyiPix1jr9W5gVcVbtwArIt46d9E/CIkWwGnBDq3y8CzLpLQyHDjJ7g5X7lcw0qchmT0i8nHwI3A15Gth5si/34ltBMA7TtQi3bC9o5XFRmhiLUAQP9lHXsC8KLyuPW8qnBnMXBFi3UH1kf2JEcgBY8GtfxdB3mZ+06DeizyMnzU83lvQeKqtf39G+BqpAKiUT8rAr9yOP55YIwnLa3ZCjgmwHlLyDthApIe98OWv28hEQbjycbXflvkZQVgdeVx9gzniK+j2+cZG1nnukqdzcRLK+qbwcBBwB3ovXHb26MLseR+iKOuGwNoagSagJtx6/sQvjJdcIsQaetZvr1FqzaVbmp6oX+W14ys9UGlzm9F1mk4sDW6i/xGZJ2dgAVKrVtG1hqCtfCbV+CHATR2BF5x1PWDALqKjtaprGwTCbPF+WNHXa3tcuIPgCHQOtZ9RPxt6A+UWreLrNNwQJsLIHZMKkh9co3W70bWGZJdEac71xfqNMLE6n7LUdcCYOMAuorKKPQT47IdGkBXX2RZ3vU+nYyEzRWFY9H1g7byppYBSp0l0odZGnXQAf0LZK3IWi9T6vxrZJ2hGYRbrHfZjg2grTPuy76voa9C1kj0Q/aFXfr6RcL4Nx3vqKuE5IhIUZZCtOkAACAASURBVNI7JNeh64u/R9apzfBZuBoAjYB22fagyDqPU+osYsrZ7kgefpcX7FvIPq1vdnTUVWppW1Edb33QGdkPd+njZuCLAbR1QTzBXbTdQjZi9n2jzYUQexXz/5Q6Y69UGB4Yg+5inxpZpzaD1iLiVMeLTXfcUw1/JZA2H4mPrsB/FEQRaAIuwr1/Q+XDP9BR15MU83kdjr5PYodR/l6p85LIOg0PnIruYscupTlUqbNEcbPNDUMqb2n7JdQ1HA7MdtBVtj8E0pdn/oB7v84i3F7tbQ663kNfKjfr7IuuT5YQf0J0g1LrCZF1Gh44CN3FnpxA6xtKrS4x0lnnAPQv3IVA/0C6fHmB20tlKSfgp0+PCqRvEJLrQqtrv0C6ssDp6PrkpQRatSni902g1XBkbXQXuxlxRIqJNhTuzsg6Y+Py1XVwIE2d8FcN8Q809nZAE/BH/PTlw4Sr5qnNK1Ii/opibP6Lrl8uiaxzAPpcBbEdww0PdEKyZmkueOyiQEcqdc6iuOmcATZF/+K9NKCulZBqhD4GrktpzJoBndFHwCxr0wlX8AfcclWkrtwZks7AXHT9cnhkrTspdS4ijFOxEYGn0F302Ilb1lfqLLUcW2TGouuXVwPr2gd/mQxvo7FCBPshmSB99F0zsGdgvW8otY0NrCs126G/bqtF1qoN4Xw2sk7DIxeju+ix41M7oK8pXvSCM0egHxhCx1ufpdTWlr0GbBJYbxYYhXucf2v7U2C9Qxy0fTuwttRoverfS6D1GqXWfyXQanjiGHQX/fEEWu9Uai26H8By6L+0Q2/ldAEeU2pryxYQJp1xVjga9wx/re0Rwm+fbK/UFmMCmhrtCuvVCbS+qtR6ZAKthie0+z4LgR6Rtf5KqXV+Aq2x0T6834ygbQR+0hi3tpvQ1y3PIisgznA++2gykvI7NN9W6kvh5R6T5ZBQvjwMqn3Rf0RsGllrVIrsQAZSDlRDZ2Azn0Jq4EHlcd0Ik/ksS2izHsYYRN9GahlM93jOvZHUw8eRbwfBzsje60T87tN/iCTQilGjXetcWMRMna3ZBf34oX3XadkEXbTNIqQEc2Ep+gRgGvCm8titfAqpgXGIR62G3XwKySBvKY8LlQtgWSYCewDzPJ6zJxIm+AyykpU3dkYcqE7Hb8KXj5C+ftnjOSuhvYe092xe0BYzmo6U7o6J9l3+ArJlVViKPgEAiQ/WEHsCsBC4X3nsrj6FZBDt13Vvryoq8xiSvGiR5/OuA9yD3Me7k+28AU3I4DwOuBvJxeGTRcD+xPXR0VaX9LkilDU6AF9SHjsWWVqPybbK457yqiKDNMIEYJzyuC2I3z9ah75VW6yoLEwtoEbuAL6B/0kAwJZIuOBTSF76LMUmd0U0PYUUPAqR430R0rd3BTh3CPJyz2rYCBisPHaMTyE10AmpAqih6Ns4DTEB0K4A9EO+vmJyh8Ox+3hTkT20MfJLvKqojWuAvfC7HdCajVp+4z3gfOIXVGnNFi0a3m3RtFGg3/kI8SG4JtD5K6G9h2JnE43J3srjmokftbQx0Et5bOEnAI1AR/Qx9rHLVQJMUGpNEboYi3PR9ckZKcS2MBpxVvPp+d6evQKciSy/h9z26A18Gfgz+nLb9doHxHfIbc2f29FVzf6SQmwkXkbXJ9qPMReOVWqdg5XuLgx3o7sJLkug9Uyl1hLF3Qb4H7r++GkKsa1YC/8hgtVsEbLtdTpwGDIR0Tiy9W859jBkIjWu5dwx2zIZWEOh3SfaQkVaf56sMwr99Twxgd6blVpvS6A1Oo0yw3kY8Uqul9g1AUC2AX6iPHZ/5MVfJDqhz6eujQDxxUTEmfR64n3FdkKW5pfdGpiGeKbPQpbUywayRFq2fkjo23IxxFbgUeR+jhHqV4kpyuNGIVuszR61ZIEDHY691ZuK2ugAbK089gGfQoy0aBMClYj/BdIV/ZbFM5G1xmA79NduvQR626ILspTsq3ZAka0ZSe+blfwHG6Jvy5YJ9IakCf2KlnYi5YJLjRWt46CRQXqhX75MkWv/EqXWEsUrXXkpun5YgEymssTeSHhY6kE2qzad8IV96qUb8Am69lyYQG9ItkZ/bc9LoFdbAGgu2ZmAGp7Q5q1OEXa0u1JrCUkpXBT6Id70mn6InW2sVkYiOexTD7ZZs3GELenrwjj0A0mRqjxqnXFL6PMGuPBfpda8hJoadfAndDdDilz7ndF7kL9GtpPF1MNf0L9wTk6gt1Y6IoVxtFs9RbJZwFEtfZJVTkPfvtDVCmPREZiKrg/eJ76/WR8kF4NGbwpnRSMwO6B/iPdIoPdfDnq3T6DXN+ugf4BL6B0HYzIUiTRpVN+AMUgxpayzBfo2LiI7vigufAl9H6QIifyKg97YWWCNCHRBluQ0N8S5CfS6PHBXJtDrk+7AE+jbP4V8rYLsgEQMpB6QY9mL5KuAVQckGkHb3kcRX4I8cwP69qfI46D9gJpDtrJsGh7RxoS+nkBrR2TpTKN3ATAovmQvNAH/xm2A+W101e50QGoJFHkiMAk4gnyGH/8et7ZfS74mpa1ZAb0T9avEb3cTUqVTo/c/kbUaEfku+gd4tQR6/+ag98cJ9PrgZNxetIvJrjNZLXQADgaeI/2A7cueQ+LH85x6/AtIWmCXfvhddNV++B36Np8UXy4bKLWWgG8l0GtEYiT5GlBHO+h9MYFeVw7CfT/8iuiqw9CEhA3ej/vAk8KWtGjfi/x++S7L1bj1STNuiXRS0Bmp9aBtc4oPp18qtTYjfjlGgXkR3c2RIo81uH0JarNgpWAj9CF/rQcd3yVos8CKiGdyHrYHJgA/J9+rMO2xLu6TsY+QL9S8cCD6tj6WQC/As3VobG1PpBBrxEUbDtiM7IXF5odKvSXgugR6NTQhjlKug88/YwtPwGbAOUie/NSDfdneAM4mH5EXrlyMe389FF21nrHo23lkAr2rO+g9Kb5cIzYuaYFTFJfpi/7LeDH5KBC0N+4v1Zmkz18fm7WRuhE3Ibn+Yw3404AbkW2xNYO3MlsMBWbj3ocpQovrZS30W3JzkVj82GiX/0s0xgS24emKhHpobpBUS1radLgl0oQw1ouPzHiHRVedPdZAlmxPRSYFL+C2rTKv5Rw3Aqe0nHv1aK3JLt/G/X7NwyrAeejbd34CvaBf/n+PfDupqiiKc069XAl8VXFcCVgFWfKMydboU9vOQ/ZjZ/iT45WhiJORy714E7CvHzmFZAgwGBjYYn0Q565y9r0lSJjXHCQf/3TkK//96Erzwy241S0oO5x94EeOd4Yg77nuyuPXB8b7k1MTqwGvKI+9GIsAaBhclpyPT6AX9M6LJeAXCfTWiuvX1OvIoGYYMemPxLgXddXqDPTt+l8CvSDvOa3m3RPoNRLhUnL3qQR6wc0Z8D2yVxmvjEuBkdlIymDDSMF66LcTS8BZ8SXXxADc2nVIfMmAlEPX6J2OZf9rOFz21VPEtvbErZTsd+NLron/oGvPJ8DOCfQaRmu2RwqGae7hqxPorYWT0L9nppJmMF1XqbdEY0QPGcuwB/ob5jcJ9II4Ymk1v0k2VwH+h64930kh1jDa4Ah09/DYFGKr0AfxF9K+Z06NLxmAM+vQuKzZh0QD0hn9F/WbpClfOhj910YJKbuaNW5D15ansb1/Iz39kOggzT18SwK91fg5+vfLAmD5+JLphGxzajRPI5+1KQwPXIj+Zt81gV5wKxP8HtAjvuSKuFwDmwQYKXEZ/EvAP+JLrkgP9AXISkjtkhTsV4fGZe28BHqNjLAL+hvn+gR6QZK/uOTLT5HMqBK/Qt+WEvAk4pFtGDHpj9x7LvfuidFVV+YY9G1ZBKwcXzIgKyla3dsm0GtkhE7oZ7yLgGHxJQP6ZfMSEnfcO77kdnEpeFQ2WwkwYuL65V+2jWMLr0B/4EP0bbk8vmRA8hUsrFHjsvYuDZj8x/gsLmFoJyTQCzJrdXnxZCkvQAfEc9gmAUYe8DX4uya/8s2f0belmXThuD+rUWNb9qcEeo2M4VI7+jXSPcT31KixLZtDtspeno77C7WEbQcYYfGx7F+2UyJrr8SqSFitti03xpcMyLv3pRo1tmWNVsfic2RpBpqSx4FNlcfuiNQ9j82myJeI9hpeTHZSXw4AJiFfV648hYT1zPRwrkp0R3Lvr95ifZDCTb2Q9Mtlm4xkjHsJS61bK0MQX5dVkQqc/VtsAZK2eB7ivT0ZeBkpk7wgsKb+yKR7Ew/nmoGkFJ/l4Vw+uAG3VNpbIvU8YrMLcKfy2Aex/X+jBZd0tCmTebj4AiwhW9WvjsPPl1WolYAmYBvky+0hdPuOU5AEVP+HhHQawiDg68AVSP75evv1E2AccBqwBf73dX1++ZcQZ7ussA1ubbkrvuRPubWCrmp2aAK9Rkbphb7E50LkKyUFG+MWETCO7KwCdUCWErM2CVgZGfQne9RWQpxIb0XSpmYxQVNougAHIJPYxfjt23eQhDRf8KDT9+B/Pdl55pqQ1U9tW5rxsyKiYVXkI0ajexbZC4c2EnMB+gfhjAR6y7gOmgfHl9wuvZEKYr5eti6TgHWRL9JFHvW0Z1MRx8xG8F/oixTUeofw/boEWaFbV6nV9+D/PPKxkRW+gVt7rowv+VPOrqCrmv01gV4j42yK/oaaSbrQuvXQz4RLyLJ0lmbDw5A9XV8v3XonAcsBF+G2sqK1GcCxFHNFoAvwY9xCzbS2BPF5qcfx1ffgP7HO3w9NH+At9O35hHRx/73Rr9iWgI3iSzbygLaaVIm0+3pXVNBVi/0hvuSKpJoEfAe3gku+7GWK5aC0FX6vp9ZmI/4+1Sj64A/yFezSprPjS/6UoyroquVdYBhtciT6G2sy6XJKj0A8o7XaF5GtpCQQdxLQD31VwlDWjJSLzXOZ0s5IrLXLClUIuwWJPGmLRhj8t8LtmsxGVspS0IRMkLXaj4gv2cgLfclnHWyAX1fQVYs9TfaKYsSYBGwAvO7xN3zbo6RzMnVhecTJNHX/tWeTkO2z1jTC4N8VeBG3dv0yuuql7FNBVzX7kGxtdxoZ5Cz0N1jK5aXuuHuq/yy26BoIOQnYFvEITj0YVbO3gfWdejEu6+G2vxzL5gA7tGhuhMEf4CTc2vUu0DO26Fa4RC2kKlVs5IiRuHl+bx9f8qccXEFXLfYxEl6TNUJMAr6DW2nl2DYLqZuQdUaTj0lV2eYj90IjDP5rIgmTXNqWMn5+1wq6qtlCZKvUMKpyFfob7Y4Eess0IRmuXB7w+8lOnHJrfE8C8mgzyVbypmUZhWhM3U8pLauDfwfgYdza9l/Svhtc3m2pihUZOWQUbg/KlvElf8omuDtdHR1ddW0MAV4g/Us+pX2ApJHNGiPxU9Qpz/YSMNy1IwPh4jlfQr6gUxX8AdiuHV21WqqERUZOGYv+Zrsvgd7WnI/bwzKfzztIZQVbCZCEMin3YZelJ34TOOXRsvrlDzJwf4xb+1ImOwO4G732/yXQa+ScL+P2wKT0BXBN8lFCvrS7xxZeI7YSAP907kV/XEj6/khpWf7y7wY8i1v73iRtBsPN2tFVq+0dX3I+yOJeb1ZoQsJl1lIe/xBSaCMVewE3O57jbCR7WxYZhvgrpC7pOQd4AngOyeQ3Ewm1GoiE722CaOwY4Lf3I10p1jL7ItXkfFMCXkHCU99Ctj4WITkb+gMbIn2bOrXuS8hkf2piHe1xPvB9x3PsC9zkQYuW24Ddlce+hjx/S/zJMRoFlyqBJeBL8SV/hmtx098M7BFdde2k2g6Yg3yBb05tlef6IRUA78ZviuG3SZeCGmSl6e02dLnY/chzN7CG3++IJLW5CPjIs45aLMvL/iADt2sbUzo1g3u1wqyUPDdySDfcipY8RtpVlqG4p7Z9j2yXro05CVgI/BEZ+LRsiHxN+dKUMo3znyroqtfG4Bbh0Bc4E12ZZo1lffBfAfdnfzbi3JmKJtySSb2OZKM0DDU/xO0h2jO+5M/wLdz0l5CvsqxlCWxNjEnAo+i3g9piHySpiquuj0mz/7w8fvIoTEW2MnyxNnKtQt4LWR/8OyDPrGs7vxlb+DK4rmDUUvfBMCrSFamYp70Jn6W2ZeJQNAH3tqGrXvtjbOF1EnIScDWyGuSbwfgZrP4SQFs1znXQW7bHEIdO33QHrvGgry3L+uAP8Fvc2zkmuurP0hG3lMVvYF//hieOwO1hOjy+5M+wPH6q3B0YW3idDMNvOFozcDJht3G6I8VpXHTOJq4vQF9grqPmWwibl70JuXY+fS6eJ/uD/67AYtza+SHp23k4bm2woj+GNzoj3qTam/F95KWZkv1wfwHOBdaNLbxOeiPRD65tnYekVo5BNyRqxEXvkZG0gntSmYcIs6LSFgfhVimzbNeTPuKgGmviJw1z6ol+NyT0UKt/CvmuomlkkMNwe6hSOmuVuRj3l8PLpJ/MVKMDUthIm5b2YWCjyJoH4lbM6aGIWh9x0DmZ2jz8fbIh+jS404GfkP2Q6QG4faSU7arYwtvgZ7i14XvxJRtFpyMS86u9KReQvtBOb/y8JMYQJq7dNwOQDGa1pKhdgngcp0wasksbumq1ZuKUDV4R/bJ6M2lDY7+MTARqSZX9LnAKEsKZdToh2Uddn+t3kGcmJcNxK8k+BfHbMgzvuFbbS5lMo8xo3Kodlu3c2MId6IDE7P8KiRm/DSksch2S7OhwwjijabgC/TWJ4Wvi4g9zaQR9tTAYyctwNuIs+F9kUvsv4EQkHDHrX/yt8eGQuQTYKbbwNrgSt3YcFl+y0Sh0wD2t5i7RVX+eX+P+wiiR3SyBeWZt9F/YV0bQp/WubwbWiKCv0fgmfp7lX8UW3gZb4+a0mTriymgA9sTtQRtP+pj6jsA9uL80liCxuoZf7kB3PSZF0KZ1zkodVlZEtgM+wf05vpP0A2cnJJ22Szt2jq7aaEjuwu1GPSq+5M8xCLf8BmWbhxTrMPyh3Wpqxi1LYTX6K3WVgAMC6mpENkTv5Nra3kTeBalxjSxJnbLYaCDWwW0ffTZxHLaqMQp/2dxWjqy9yAxBvxQ6OqCuLZWamoHlAupqNFajNsfWarYQ2CKy9rYYjNtkZjHZLV9uFJRzcHv4srIk6ppwo2yTkIRDhh+0WdD2D6hJuzLxfEBNjcYI3MJFW1tWfHguxq0dF8aXbDQ6A3DPrndQdNVtcwF+XigTyXbhoDxxHbprcHRATccoNV0TUFMjMQiYgJ9n9TqyEemwM26Of/OwDw8jEa6FgqYSPylKW3RF8rL7eLE8i+wVG26cj67/fxFQ02+UmvIUMppVegNP4OcZfZpsZDXsheTsd2nLb6OrNowWOgEv4HYDXxxddduMwF9t90dJW6e+CGgLupwSUNNpSk2/CaipEeiGn+p+JSTZz4i48tvFdRv1daSWhqEkdTha3lmMLIve7XCOw4B/I2F5KXkbyZT2AO6D92jEx2F3pFytUT/vK4/bn3AOd9spj5vmVUVj0Q2pQ7C9h3PNQ8KY3/ZwLle2An7geI6jECdmw0iKa/GZSYStjFYPu+MnU2AJybBmKwE6XGuhZ8n28tw3jUJP/KT4LSE5O/aJK79duuGWVr0E3BBdtWG0w4q4l0c9J7rq9vke/l7+j2I+ARpGk37g9mWbeu6bRqAv+gJGbdlxceVXRLuVVLaPkHeuYWSGo3G7qZuB3aKrbp8/4O/l8ywWHVAvPfBTxja1fYTt09bLIOBJ/F2Df8WVXxEftUiyNJkxDEBSabqUSS0B75GdgbIDcC3+XkITsXCdermJ9AO4q/3He68Um6FIunBf/X8H0DlqC9qnN/Aqbu0ZT3baYxifYR3cc3OPIRvxuSB7db72IEuI165lDKydb5B+AHe1r3rvleKyIvAK/vr+AbLjWwRwCW7taQa2iS3aMOpBG77V2o6Mrrp9euF3L3IqVjugVjrhL/FLCnsJizSqlbXwl+GvhGwh9I3ZgCq4llIvIQnLDCPTdEGfxrVs88lWbuu++EtCUm5fVrIgZp2vkH4g19reAfqjiOyEn8I+ZXsZqSeRFUbgnjV1MmELXRmGNzZHwm5cbvjxyBJ8VhiEe9Kj1tYMnBSzATmlCUmlm3owr9euDNEZBeQ7SFEeX/0+hWx5yHcAxuL+rtgltnDDcOE83B/mM6Orrsww3J14lrVzgY4xG5FDugOPk35Qr9WeIlt7z1mkI/AX/Pb7O2TPx+ZXuLfr/OiqDcORXrgPls3IEnCWGIl8Zfh8cY0hW/uVWWQY+ZgEPIZ4shvt0xu4Fb/9PhVYO2YjamAHJFuqS7teJxt1Cwyjbkbhvrw3F4kuyBK+vZVLLefLkt9DFumOpI1OPci3Z5eTrW2rLLI8skLis9/fJXvviBWQFNAu7VrC/7d351FyFWUfx78zk4WQEJYAMUKIHDbZAhgQZJUAiiwimxJBRAVe2eQoIpugR1Fw315RUWRRfJVFCRBAhIRdX3gJsitLEMKeBZKQhSQz/f7xZMw4Z2a6+96nqu69/fuc8xxRTHfV7c6t6rpVzwPvj9xuEVfnkP8v+JMUL6XuGHz3BHRPdj4asxMltTeWXCn1gN8dTwCHB+1xNeyF/VL3vPbPAu+K2IdGDMUygObtW5Gyo4pk0oGdx837l+FaipMfoNva+P+a6QK+i46P1dOBPR66Et8d5I3GXOC3wCFoD0c9HdiG17zL4b2jqMm1fkb+vj2F1UKQgIo2oFTVOOwX2xo5X+cs4ML8zXG1BjAF2Nn5de/Azg5nrYrXSgYDG2OrMusRLvXuYmyj2SvAM1hKVxnYGGyS5lHNr6eHgQ9QvEqLn8QS/uTxNnY/mZ67NSI9rIMNxkMSvPck8s+Kl2PLv0XjWbWsZ7xKseojiDRjH/yX/GvYZtC1IvajUdti5b/z9u9zsRuOjQnjCFdKu5BaYQVgNFY84mNYQgqwgfQu7AjadRHbcgWW3jWP2djmwufzN8fVKsDl+D/Dr2FHKr8ELHF+bZEQupf8z8bOwXuqYXkh5ju/rod9yZ+DYDIrS2HHcDBwMrA7Kx87vgj8HnsUqRXIEtsHGzAHmm1eTbxqZSOxYy15Z8iPUMysWG3At/D/xVPDEiONj9cVkUzGYI+vQvwdqHo8T7yVjVWxQlUDtWc2xVxxlQbsiT2zbOSLN5l4qyE7YL9k8/5luZXiVsX6L/KX/OwrFgOn0horV1I+GwIzST+QljGWAbs0f8kzacdyjzR6z/HevyGBjQfepLkv4NER23dsk23rL4pU57u3fbFlyhA3i2nAJvG6IlLXYIp1NLNscVbzlzyzY5ps25to9bE0xmE7lZv9Aj4SuZ2/zNDGvuLsyO1uxjbY87QQN4xFwJnouKAUw2dIP4iWNf6M/16JgWTJX/ISNrZIgY3CzsZm/SK+M2Jbh+KT2rULO2FQVOvhkxSkv3gImBCtNyJ9m0b6gbSM8RyWTySW9XK09UlsjJECWpX8deu9z7LXswH502XWsD0Fu0VuezOGAj8n3E1kGfAdVIBG0gn1uKvK8Ra2ShjTLjnbfC+6zxROB7aRL+8XcmLshmPpQT0yhM0BNovc9mZ9isY3ZmaJmcDH0SZBiasdW4lLPaCWKbpIk/Z7Ysb29ozJKPtloVyMz5cyxQQA7Iy7R/tfoPjPqSYA/yLszeU+7LSFSCwhEv5UOS7Idplz85gA1LAxRwrgq/h9KVNNANqwfAQefXiGuHsZshiFHWMMeYPpxFKSjonTJWlxV5F+UC1LTCHupr+evCYANWzskYSOx/eLmWoCAPZcyave++MUP6VlB3aCIW+55HqxADiX4lVTlGrxHFiqHP8kf02UPLw/p+PjNl+6fRj/6lopJwAA78B2xXr0ZTpp/6I16r1Y5a/QN55ZWEpobeCRUH5D+gG2yDEP2Dzz1fXhPQFYjo1FEtHO+BSd6B2pJwAAW+BX3vU+YETc5mcyAriEODehV7BsgqtE6Zm0kmHAjaQfaIsYc7DJfmohVmoWEf8EWcvanPr5/bNGESYAYKkn38anT7cTr9ZBXodhN4oYN6SZwAloIiC+2oETsbz2qQfdIsQiirUXJ9SjmtmkX91oWtmOS70T+1U7LtDr7wVMDfTazToa+4vj8RndDByKHcEruvWBX2OFnGJ4DfgpcBE2+RDx0A5sDWxMayaPWYydSpqO7cMpionYj6IQnsdWAl4O9PotbSSW9S3kbLUoKwDdvopf3+6kXBvhDsee28f6pbIEK9f87hidE5EkQm/WfBRYM1pvWsRQ4qTaLNoEoA0blLz6dx/l2BjYbTRWlzvWJKCGHR+8Btg1Qv9EJK4YpzWmYWOWOGgH/kCcm3/RJgAAQ7AlfK8+Tqf4RwR7O5A0ZVafAD5P3FzlIhJOrOOafyBdroNK+RHxbvhFnACAbeK7A79+Pk7xkwX1NhJ7Vt9J/InAEuB/sO9H2fbNiMhKMfM1/ChSnyrLK0Vu2ScAYM/vPavqPQO8K2YHnLwH288QexLQ87p9Be0VECmj2AmbvhSnW9XzCeIX2CjyBABsc8nf8evvCxS/gFB/Pkr4mgL14mHgHGynt4gUX+wJQBc2lkkTPkj4FLFlnAAArIvVpfbq8xxg96g98DMM+DJWVjTlRKAGPIjN9ss6oRJpBSlSNi/FxjRpwATs3GiKm3gZJgAA6wHP4tfvJVgZ3bJaDzstkWJ/QF8xA8srcCAwPGC/RaQ5qWo2LMDGNhnARqQtq1mWCQDAhvjujO/CivOU2ZbYEb4i1WZfAvwFOA3YDtURF0kpZdGmV7ExTvqwLvA0aW/WZZoAAGyK//G4XwGDY3YigO2A60k/+PcV87FSyF8B9qYctRpEqiJ11cansbFOehgBPIDPBX4WeCTjny3bBABsJcDzcUANG6BGxuxEIDsCfyb9oD9QLMP2D/wMq02wK7B6iIshIpknAI/gd599AE38/20wfoluXgc2wXI9t8oEAOwZ+BP4DkyPEK7mQmy7SwHkSAAAEK9JREFUAjdQrEcD9eI5bBXjm8AkYCcsM6KIZJd1AnA7Nra8nvHP946bKf9Ka25twOX4XNC3WFlustUmAGDLSt61EmZhy9RVsTnwS+y5fOoBPmsswhI53Qj8BNtbcCSwL7ADlttBvy5E+pZnAgA2xnidOrqcxInFUmc1uwA40+F1lgMHATet+O+3k20wv5E4lZyWY2fwpwCPOb7umtjMckfH1+zEjtp9C/vSVsFo4GRsyb2qldrexo54zsGOIXUB81b8u0Ur/j3AG/GbJpLMO4EDMvy5qVi1WID9gMnAIIf2XAic5fA6pXMKPrOoLuCYXq+ddQUgRdwAjM10Bfu2GmEKJ11LuaoJNmI4cBL2izr190ChUBQ3epcQPga/R4qn0GIOx+/Mdl9H18o0Aahhqw7bNH0V+zcMWw3xbueT2DJ6Fe0CXAYsJP33QaFQFCt6TwDAxh6P1+7ExsSWsAewGJ8L97N+3qNsE4AaMBfLc+9lEPCLAO1cQLW/rCOB47Gd+am/EwqFohjR1wQA/IrVvU219lv1aWvsmaPHBbuG/pOqlHECUMN2mG7V+OWsqw07b+69+70L+B7Vr3m9PfDfpE1OpVAo0kd/E4AO7PGox3u8gY2RlbQ+tvHN40LdCawywHuVdQJQw38SAFY4x2vVpWc8Box3bmsRtWNHCX+EJgMKRStGfxMAgCHAbU7v8xLVOX79b6uTPTlP73gM2+0+kDJPAGrAa1haW0+7YMf6vNu6GDiV9CdKYulg5WTA60ywQqEodgw0AQAb47wqtT4BrFXn/UpjGHAPPhfmBWwloZ5bnN4vZbyCf835LbAEMyHaewOtl+JyCHbc9NvAo6T/zigUijBxC/V5rnLfg42dpdYBXIfPBZlL47+KL3V6z9TxMjZoexoN3B+ova9iCWla1VjgOOyZ4DzSf38UCoVPXEJjtsTGKo/3vI6SFw/7OT4XYjGwWxPve4zT+xYhZmGb0TytClwdqL1dwI9XvEcrG4x9Z8/BEj55bX5VKBTx42gatxt+e65+3sT7Fsp5+FyA5cDBTb73SKr1fHYe8P4mr0E9bcDp2PUN0eYZwD7ObS6zdmxz52eB32DXJ/X3SqFQ1I/XaD4J2iH43VvPa/K9kzsWv4t/QsY2HOXYhiLEIrKlsKxnImEnS5dR3XS7eY3GJkmnYdfpQcpdp0ChqGJMIpsTHdtwbMY2RHcgVuLUo9Nfz9mW0/HLOFiEWAp8POc16ctYwu0LqGEz6CMCtLuKBmH7Pj4GfA24ArgbeJFyVTNUKMoencAXyed8p7Ysw8bWQtsJv1Sql+BztGwP4F6nNhUhOsm+KjKQocDFgdvuXfeg1QwFNgU+iD1KOB+rbvgn4C6spsGr+E3AFYpWjC5sF/7u5NcG/NqpXQuxMdaN59ntzbCB1mO5dwrwEewZipf1sXz7o/Gp4tSsw/B9Jv414KvYF8PTsViZ2YESLeWxAKsueBG+n6/8pzWws8SrYd/3DmxvDNgGze4sjvVyaoi0iuXYBPphLCGPl0FY9cD9HF5rDpbT5Z8Or+VmDH7ny/+GVWmrmqHYL2DPmeoV2Fl0bzsQfpPaY2iToIi0huHY2OZx73wOG3MLYSQwHZ+OPU21k8kMwS9vdHfcA6wdoK2rEaaYUO/4C/65DkREimYU8A987puPYqt8SQ0BbsWnQ68DG8dtfhId2DEwz0H0aWCTQO09DFt2CjkJWIql1l09UB9ERIpgQyzLq8d9cxoJC7K1YUvQHh2ZD2wXt/lJdWDHvjwH0VnYs6EQxgJ3OLe3r5iN1RUodfYrEZEBeFbF/T2WYyS6H2RobF/REnWQ+9CB3+7Q7lhI80mTmmnv2div9dATgYeBD9M6BYZEpLXsjY19HvfLH0RuO6c7NbyL5lIsVk0btuPec/DsAi4k3Kxwe2wHauhJQPdE4PBA/RARSekI/PLU5M1X0LAj8UtI8oVYjS6wEJOAGnbiINQz9REr2hwrydI9wJ6B+iIikspp+P3wOzJ0Y/fEL1Xpd0M3tmTOwD/T21M0XkExi/dhx/liTAI0ERCRKvoePvfHpViSsCC2wTbreTT0dyTauFBwn8Y/i9s87Hl6KEOwhERez7MaiVuwGgYiImXXjo2JHvfG+cB47wYOw35NejTwNsIkr6mK/bBseZ4DZhc2SIecdG0J3Ofc7nrxIFYbIUVmRxERL0OwsdHjvvgPnDO5nuTUsOmsTEcq/dsBK6DjPWDeiqVCDqUdOBm/laJG43lsP0mzJTtFRIpiJPAQPvfEz3o27E6HBs2gQOkLS2Aj/FZdesYrwF6B274BVqAm5iSgBrwJfBur+yAiUjZeafWneTYqb9KCWVgVM2nOOvjlj+4ZnVip5dBL53tjKStjTwSWYgky9ka5BESkXDbDxsw898C5ng3Ku8HrGnQjzmo4/kWEuuNOwv9aHgSciGX5iz0RqAHPAGeh1ScRKYc28teMWeLZII/KcOd7NqjFdOB3VKR3zAIOiNCHNbF8/6lq1S/DHkvsh1INi0hxfQOfHz5ufunQoBr2S1Cy+wSwmDAD5MXE2US3OXaML8UkoDtewE5FbBa2qyIiTfHacP8Lz0aNxyfr23LgEM+GtaAdgJmEGRhnALtH6sf+wCOB+tFMPIQ9ItgobHdFRAZ0KD7jbCewlXfjLnBoWA37Bbubd+NazDuwrHghBsRO7HGD6znSfrQDHwOeDNSXZuMBrM7FuJCdFhHpZXf8Vne/EaKBHfgd7ZpL2BS1rWAItmwfajB8HJgQqS8d2OONZwL2p5noAv6K5el+d8B+i4hshV954D8RcI/TMOBup4bOROe1PZxIuBK9S4GvAUMj9WUwcCzwr0D9yRozgIuwlMrDQ3VeRFrOWPwe6d6NjdFBrYX9OvRo8GPY7nDJZ3fCZA7sjn8A74/VGWx14yTgJcc+eMUSLGXnF9EqlohktyZ+xdQex8bmKMYCLzo1/C7iPG+uujH45ZLuK7qAXxPxS4atPHwGvwlniJgJXIlNWLZBRwxFpD7P1fQXsTE5qi2xZ/keHbge3Tg9tAGnEu6RQA2YAxxP/MROuxIuIZJnLMA2aF4IHAisEeJiiEhptWPJ8TzuN/OwHx5J7IHfzsWfRm57le2KnXUPOdD9mTRH5yZgpTNTJRRqNpZhpwsuxgol7YEee4m0sovwubcsxu4nSR2Gz9nFGnBO5LZX2VrAdYQd3JYA3wRGROpTT+OA7xO/8qBXvABMwVYKJmE7gVUmW6TavozP/aMTG3sL4WR8OtUFfCpy26usDTgFG6hDDmYvAUeTpt7D6sAJWKnp1IO6x1/qmdi+mMuxbIXHYLP8cegxmUiZfRob4zzuFSd7NMjzhv1NLKNaXsuBg4CbHF5LzHZYdbzQFRnvx/Yg/C3w+/Rne+wY4SSstnbVLMMmW69hezHmYEWWuv95Vo9/XoiVR65hxbwWJWiviJj9sRVZjwqsFwBnO7yO6wSgDbgU+KTDay0EJmIDiod9gY9iGxfXdnrNshlGnIp4NeC3wJnAyxHery/DsQyDxwE7JWpDUc3HVhqWYxsWRWSl2djRvKuwfU4edgSmAqs6vNbl2Cp5zeG13A3Gfrl7LHG8Tv5frGOAO5zao2gu5uEzGcxra6wK4eukvyYKhaI8MRVLu57HptjKnEd7bsLG2EIbgf1y9+jwDLJ/AOviU8ZYkS8+V++DiqQD2AerbDmH9NdFoVAUP54F1iGbMfiNQfeTZrN1JusAT+PT8elkK1N7o9P7K/LFMmDbOp9VbIOBDwGX4ZeDW6FQVDMm07yR+G1Mfprsk5BkNgJexecC/IXmjki91+l9FT5x7cAfV1JDsRz/v6W8RwoVCkXYaKYw2hD8srK+SolLlU/A76Z6JY1vWvQqXazwicXEKyiUxxBs8+l3gEdJf90UCkUx4nwa044lKvN4z/nEq8gazAfwS0373Qbf849O76fwiy0G/MSKaSx2kuCP2KbG1NdQoVCkiWtozPec3m8pNnZWwlH4JUD4fAPvN9XpvRR+MX7AT6z4BmMVEb+FpfYtSypihUKRP26nvi84vVcXNmZWyun4XJxOLNHLQDQBKFZ0YRn7qmQ49rjgXOAWtEKgUFQ56k0AJuH3I/f0Ou9VWt/H5wLVWx7RBKBYcc8An1VVdGCJpo4GfkGxSxgrFIrmYqAJwJ74pVuvdFG8NuAKfC7UfCzFbV80AShWfKSfz6nq1sAqMx6PJSO6B3iL9J+HQqFoLvqbAGyN31Hi32ObCKPxyEvcjBq2qWp9bNaUx2pYNbVdgOdyvpaE8zssB3YrehMb9HuugHQAG2N7IsZjN5BNgQ2BVWI3UEQy2xC4FZvo5zUNy5za5fBaDUtRvQ3sefCdwDYOr/VP7FfW7B7/21TyTzAkvyuwCd/S1A0piTHAu7AbS+//3IASpAEVqaipwF49/vvawL34FFh7GKv4Oc/htZoSewWg2zxgP+A+rMxpHpsBN2AfjiqepbcEm9z9ENscJ417ZUX8tY9/1wGMBkb1iHVW/Ofavf73USv+/92/TFbBikGJSH7DsUyzHoP/89hYGH3wh3QTALBKcftiy6Ojcr7WTsAfgIOxKmdZHUXfN19pzNtY4Qv94vfXif2dyVthcXXsOeNgSpRbXMTJ+7Csn1kNwsaaHR3aMgcbA1NVTS2E9+K3Meo32GONrJsAJwbuq4iIpDOR7JsA24BLMv753rEI27+WVMoVgG73Y7XbryN/e45CGwJFRMTf14FPO7xOJ3AktodAVjgOvyMbCzL+Oa0AiIhUV9YVgKxjSl9xXPBeltRX8LvImgCIiEhPWScAXnFe+C6W20/QBEBERPylnABcHKF/pdeB1Y/XBEBERDylmgDcQDH23P2HqGkHG9SJbeZrhfzxIiJSbf8LHEG+I+pBFHECALAYOAB4NHVDREREMnoSS/SzMHVD+lLUCQCszBY4M3VDREREmvQy8CFgbuqG9KfIEwCAF7EL+EbqhoiIiDRoPrA/luq3sIo+AQCrq34wlmNeRESkyJYChwJ/T92QesowAQArLnMEtkFQRESkiLqwTey3pW5II8oyAQCYDJySuhEiIiL9OA24OnUjquxClAdARESaFzIPwAUR+9Gy2oBL0QRARESaE2oCcCU2NkkEg4Gb0QRAREQaF2ICcDswJGYnvJRpD0BPy7Bdln9L3RAREWlZDwIHYTv/S6esEwCARcCBwFOpGyIiIi1nBnbW/63UDcmqzBMAgNlYoqDXUjdERERaRiXGnrJPAKACszARESmNyqw+V2ECAPYc5jBsb0AeXQ5tERGRYsp7j18GHIL2nxXS0dgHnHU35/j4TRYRkUi2Jfv40IWNMVJgZ5Dtw32Lkh7lEBGRhgzFSvNmGSPOSNBeyeDHNP/h/ipJS0VEJKZLaX58+HGSlkom7cBVNP7hvglskKSlIiIS0wbAPBofH66iOvvlWsZQ4Hrqf7iLgA8kaqOIiMS3L3bvrzc+TMbGEimhQcB59P/M5/+A9yRrnYiIpDIBGwP62xN2LtCRrHURtErxgrWAA7Bd/iOAl4CpwH3Yhy0iIq2nDdgZqxGwHjbwPwxMAeYmbJeIiIiIiIiIiIiIiIiIiIiIiIiIiIiIiIiIiIiIiIiIiIiIiIiIiIiIiIiIiIiIiIiIiIiIiIiIiIiIiIiIiIiIiIiIiIiIiIiIiIiIiIiIiIiIiIiIiIiIiIiI/Kf/By40rHDxEs+XAAAAAElFTkSuQmCC;" parent="1" vertex="1">
          <mxGeometry x="388" y="513" width="75" height="75" as="geometry" />
        </mxCell>
        <UserObject label="Flexibility =&gt; &#xa;Employing wide-ranging and comprehensive cognitive categories to form associations &#xa;&#x9;&#x9;&#x9;&#x9;&#xa;&#x9;&#x9;&#x9;&#xa;&#x9;&#x9;" link="https://www.flaticon.com/search?word=positive%20mood" id="8HKQdC73j9jO4bcsfkeK-5">
          <mxCell style="text;whiteSpace=wrap;fontStyle=1;fontSize=14;align=center;" parent="1" vertex="1">
            <mxGeometry x="308.25" y="588" width="234.5" height="70" as="geometry" />
          </mxCell>
        </UserObject>
        <mxCell id="8HKQdC73j9jO4bcsfkeK-6" value="" style="shape=image;aspect=fixed;image=data:image/png,iVBORw0KGgoAAAANSUhEUgAAAgAAAAIACAYAAAD0eNT6AAAACXBIWXMAAA8eAAAPHgH67H1EAAAAGXRFWHRTb2Z0d2FyZQB3d3cuaW5rc2NhcGUub3Jnm+48GgAAIABJREFUeJzs3XecXUX9//HXbnpIQigJEJDeOyJVBKVIFSkqCkixoaiABYWvIrEBCqKoKIoFRFQUKYIIgiKC9Bp6Dy0ESAIkJKTt3t8fn+yPzWbLvfOZmXPuue/n4zEPRbl3PnPO3jPnzJn5DIiIiIiIiIiIiIiIiIiIiIiIiIiIiIiIiIiIiIiIiIiIiIiIiIiIiIiIiIiIiIiIiIiIiIiIiIiIiIiIiIiIiIiIiIiIiIiIiIiIiIiIiIiIiIiIiIiIiIiIiIiIiIiIiIiIiIiIiIiIiIiIZNVWdAAiLaIdWBsYDcwGngAWFhqRiIiIJLMm8CvgNaDWrbwB/AHYrLjQREREJIUjgTdZvOPvWRYCX0ejcSIiIpVwKNBJ/51/9/KtYsIUERGRWCYAM6m/869hNwvbFxGsiIiIxPE9Guv8u8o1RQQrIiIifu3AFMJuADqAVfOHLCKtqL3oAEQqZntgpcDPtgP7R4xFRKRPugEQietA5+cPiBKFiIiIZNMGTCZs+L/7a4AVM8ctIi1IIwAi8bwDWM35He3AvhFiERHpl24AROLxDv930WsAERGRJvIIvuH/rjIfWCZz7CIiIhJgU+J0/l3lo3nDF5FWo1cAInHEGv7vouWAIiIiTeAB4o4AzAGWytoCERERaci6xO38u8oHcjZCRFqLXgGI+KXqqPUaQEREpMTuIs0IwExgeMZ2iIiISJ1Wx7byTXEDUAP2ztYSEWkpegUg4nMglgI4Fb0GEBERKaGbSff0XwOmAYOztUZEREQGtDK2eU/KG4Aa8J5cDRKR1qFXACLh9ifPb0h7A4iIiJTI9aR/+q8Bz5N2noGIiIjUaXlgAXluAGrAtnmaJSKtQq8ARMLsT97JeXoNICIiUgJXk+/pvwY8ladZItIq9F5RqmYUsBIwpo//fyY2cz/Em8BcYDTwODA08HtCvRN4GBiCtTPUUvQe+5vAVGCG47tFRESyGQx8GrgTWEjeJ/MqlgeA44BhjZwEERGRnNYA7qX4TrOK5UFgrfpPhYiISB4rAc9RfEdZ5fICMKHeEyIiIpLDlRTfQbZC+Ue9J0RERCS1bSi+Y2ylskN9p0VEmoXyAEiz+nDRAQS6ougAAh1adAAiEpduAKRZbV10AAFqwLHAa0UHEqAZj7eI9EM3ANKsxhUdQIDbgKexuQvNZoWiAxCRuHQDIM3qjaIDCHDJov+8tNAowswpOgARiUs3ANKsJhUdQICujv9qmq9DfbDoAEQkLt0ASLO6ZOB/pVRuA55Y9N/n0HyjAM0Wr4iIVNQg4B6KXx5Xb9m/R/ybkXc7YU95DKUFFhGREtkUmEXxHeRA5aI+4j+5BLENVOZgORdERERK5Z3AKxTfUfZVrgBG9BF7G3B6CWLsq8wA3tPPsRcRESnU24AbKL7D7F6mAp/HXlUMZG9sB76iY+5ebsE2WhKRimorOgCRSAYBXwNOwrYHTu1mrNPubh7wEnAXcP2if27EVljK3ZWApXv8f+OA/Uj/m+0Evgd8A9taWUREpClsDTxJ+ifkN7GsfjnsjO3Kl7pNLwF7ZGqTiIhIdGOAC8kzVH4psGyidgwGJgIdGdrxT2DFRO0QERHJ6hPAbNJ3nk8TP1f+WsAdGWKfC3wBvQ4UEZGKWZ88+QLeBPaNFPO2wLQMMT8KvD1SzCIiIqUzDDgLm+CWskOdDWzijHUC9i4+ded/HjDKGauIiEhT2Bt4mbQd63+cMf42cXyvA4c4YxQREWk6KwHXkraT3TwwtuWwd/Kp4rodWDswNhERkabXDnwVmE+ajvargXEdkCieTizj4NDAuERERCpla2yHvtgd7rmB8Xw1QSxTgd0D4xGRCtN2wNLKbsdmwf8+8vfWk/63N7EzGP4T23XwmsjfKyIiUhkfBWYS56n7W4ExHBap/vnA8Whtv4iISF3WxkYFvB1wX0Pu7cAywJA+/v/VI9T9BLangIiIiDTgK/g64NdYfLLdUtieAbdhm+vUsNS+k7ANd5brUf8kZ/2/jHAMREREWs6t+DrgC7t9147AUwP8+9NZfF3+RGf9L5NnN0QREZHKWAV/tsADsEmAE3nrib+e8jssM99mzvprwC6Rj4uIiEilHYev450NrAfcEPj5R7AkQt6liT+LfWBERESq7L/4Ot4p2JC+5zvexH8DMJXwpYgiIiItZQUaG7Ive9kp7uERkapRIiAR0/Xuvio+UHQAIlJuShQSZgSwLrA0NuT7KPb0KM3rWmDXooOIaArwNmxSozSnwdh1ZhQ2v+QxYEGhEYm0sG2Bv7HkJjJvABcAGxYXmjgsh11Yix62j112iHmQJJv1gfOBWSx+PucAf8bSV4tIJm3AaQy8RGw+8OWCYpRwR1J8Z52i/CjmQZIsjmHgXSo7sGWmGsEVyeD7NHbhPbGYMCXQlRTfWacoz6JOopk0ugz1u8WEKdI63kXjyWEWonzszWJpYC7Fd9apyrbxDpUktAkDP/n3LJ3oNY9IUlcRduG9qohgpWGHUHwnnbKcEe9QSUJ/Iuz8XltEsCKtwLM2vAObhS3l9leK76RTlqfRa4CyGwvMI+z8dgKr5Q9ZqkB5APq3P+Frw9sXfV7KayR9b91bFasD7yg6COnXviy+g2Qj2rAcFiIN0w1A/w50fl4/zHLbG9uut+q8f8eSlq4zIiUTY214B7Bi7sClbqHvXZutPBXrgEl0o7D1/d7rzEq5A5fmpxGAvr0P/77q7Yu+R8pnOLBX5jrnYmvzX81c7xrAFpnrlPrshWUW9WgH3h8hFhFZJNbacK0GKKd9yfsU/jC21S/Y5FDvzoONFq0ZL6c/E+f8XpM7cJGqGo1tyxrjhzkfWCZv+FKH88nX+f6OJecaDMKyueXagfAxz8GSJIYDM4l3nVk2b/gi1XQwcS++h+YNXwYwBNvEKXWn+zr2t9SfnYDnMsRSAzZt8DhJWvsR9/wenjd8kWqKvTb8r3nDlwHsTvrO9nZgrTrjWRq4KENM36z7CEkOFxD3/F6WN3yR6hmJbb0Z84c5e9H3Sjn8nHSdbAdwKjbK0Ig24HPEe/XUW3mgwZgknaHYZNCY53cOtqpARAIdSJqLr9bqlsf9pDnHLwF7OGPbEJiUKL4aMMEZn8SxJ2nO7wdzNkKkai4kzQ/z9zkbIf3y5nforfwdGBcpvpHAuQlirAHvjhSj+KQ6v3/M2QiRKhmGTdxK8cN8jfB0nxJXzGH2ecAXSJNv/0PEHyZ+b4I4pTGDgJdJc515HbuOiUiD9iHNj7Kr7JmvKdKPJ4hzPh8Dtkwc6+rAzZHirQEbJI5XBvYe0l5n9snXFJHq+A1pf5jn5muK9OMc/OfyfPJNuBqMJfLpcMb8ItoZsAx+StrrzG/yNUWkGgYD00j7w3yZ8N0FJZ7NCe9MZ1JcXoedgRfqiLGvMjF7xNJTO75zWE+Zhj+NuUhL2Y20P8quslOuBkm/QiZh3QGsXUSw3YwDrqDx2J9CS8TKYHvyXGd2ztUgkSpIuTa8e/lxrgZJv0YAN1LfOesETqc8kzjbgGOxzYXqiX86sEkhkUpPPyDPdebsXA0SaXbt2PvRHD/MZ9F72LIYjt349fc64HHKO3N+U+Ae+v97uwNYt6gAZTFtwNPkuc68gHZ7FanLjuT5UXaVrfM0S+q0Hpa970ZshcD92C5th1D+JVXtWPKqi7Gby5nAM4v++QDUCZTJluS9zmyXp1kize0s8v4wT8vTLBEpkVPJe505PU+zRJpXG/bElPOH+XiWlolImTxC3uvM03maJc2q7EtF1sYSoaS0OrBq4jp6WhsbnnskYR2dWFYwEenfWGAF0q6SeBv2qimn1YF3Ag8lrEPXGYlqNPBt0q+VbYUyB7gO25Ne+QdE3jIC+BI236OT4n+rzVzmANcCB6E5J+KwBTaRqeg/6CqWm4GV6z8VIpW1CfHSQassXm4AVqz/VIiYdYEZFP8HXOXyFDC+3hMiUkHroetM6vIosGy9J0SkDfgfxf/htkK5os5zIlI17VhehKJ/g61Q/lLnORFhV4r/g22l8q76TotIpexH8b+9Vipb1XdapChlmbDxgaIDCNSsT9OHFx2ASAE+XHQAgZr1OnNk0QFIc7id4u9WGy0d2DKb10oQS6Ml5bIgkbJ6iuJ/eyFlK+CxEsTRaLmvvtMiRSnLCEAzThi5DZgMXFlwHCG0GkBa0biiAwjwLHAncEnRgQTQdabkynID0IyJJLp+kJcWGkWY+UUHIFKAN4oOIMBl2NN0M94ALCg6AOlfWW4A7ik6gABdHf/VwJtFBhIgZQZCkbKaVHQAAbo6/juA54sMJMBjRQcg/SvLDcCfiw6gQbcCTy7677OBvxUYS4hmfG0h4tVsT9HPAjct+u814MICYwnx96IDkObQhm3FWvSklXrLfj3i35b+95QvU5lOc865EPEaQf6Nvzzl8z3iXwV7jVF0XPWUGcBy/Z4NkW7WAF6h+D/cgcqf+oj/hyWIbaDSieXrFmlV78bmwBT9Wxyo3EDvm7V9ugSx1XOd+Ug/50CkVxtS7qU6V2BPEb0ZBPyqBDH2VRZiFw+RVrcPMIvif5N9lZvpf5Tua5R3A6OFwGf7iV2kX2OxOQFF/yF3L1Ox4bh6dtQ7CHi8BDF3L89hTz4iYtbHJh8X/dvsXl4FTgKG1RH/LsC9JYi5e3kB2LmO2KUk2ooOoB+fAM4CRmao63/Agz3+t3nAS8BdwL9pbOlcG7AdsD22+c7SPf7/ccD+QZE27lLsWM7IVJ9IsxgGfA84hjzXwluw7Ye7W4C9+rwH+Bc2qbgRWwI7Aiux5HVmeew6k6NtVwAfA6ZlqEtaxPrA3aS/c30TODZTm3bB7pRTt2lOxjaJNLPdgCmk/03OByaSZ/XVjtiywVzXzjI/TEoTGwacRp5Z9pcAyyRqx2Dsx5+jHQ9ge56LSH3GA1eR/rdZA67FnthTaMM65BwTHR8GNk/UDpHF7AO8TPo/6qeIv4vV2lg6z9Sxd2KrEep5hygii2sHvkKeznMq8N7I8a+Iva7McRPzC/K8nhX5/1YCriP9H/cc7IYjhm2xtfc5Lih7RIpZpJVtRZ6JvAuBj0eKeX0scVDqmGcAB0aKWaRh7cBXSX+XPhvYyBnrBGwiYeof5VXACs5YReQto4ELyHMT8J4Isea4YfkvsKozVimRZp64sTXwB2CthHX8B9+P8zzg8CiR9G4ecAK2WqKWsB7p2zDsorgqdhO2XI8yGJud3Y4tIx2Dzfzu2phmDnYe38BGiqYtKtOxiWmTsVdfUoxDgZ9hnWwqj2E5UDoCP/8dLDdAKh3AtxfVExqjSHRjgN+T9q53s8DYlsMu7KniesgRmzRuArA7cDx2Y3cjNss6x6TO2djEziuBM4AjgLcDwxO2V96yFnA7ac9x6CvHoaTNoPoMsENgbCJZHAbMJM0P4CuBMR2YKJ4acA6agJPSGKyz/yY2Y3sa6Tv5kLIAuxE8H/gU9sqqmUf1ymwIljMg1Q3fjwPj2iZRPDXgYtKtihKJam1sy8zYP4JfBsZzQoJYppMvgVArGQHsib1KuQ97L1t05x5aZmAjBccC68U8SALArqTJGXBVYDyHJohlNnZDKdJUhgLfJ26e7F8HxvL1iDHUgOux3cAkjtWwTvIf2Hv4ojvuVOVJ4Gxgb+z3IX7jsK1uY56nawJjOSJyHPcBGwTGIlIK7wVeJM4PYmJgDIdHqn8+cCJ5sodV3SrAF7CUrGXdTCVleRX4LTbaMcR5LFtdV8KducQ5N6EPGrtEqr8Tew2heSVSCeOBf+L/YezWx/e3Y+/H+rqQrhGh7iewd3wSbiT2lPRf8kzYa5YyDRsZ2CL4yApYJryH8Z+PI/upYxn6Tu61FP6bkFeA9zXYbpHSOxnfD+NVFh82XQo4DriNt94TdwCTsF28lutR//3O+n8R4Ri0qs2xDu41iu9sy17uAI7CJj9K436I7/gvxB5YugzFNvC6gcVXEj2CTUTs+SrQm8L4JxGOgUjpTML3w7ig23fthKUJ7u/fnwYc3O0z33TW/zL1bUEsph1bffE/iu9Um7HMwiZCrtHogW9hbfgz8P2n2/dtxsDXrTdYfAfDTzrrfw6tHpGKWQf/BXF/rAOeSGMzw38HjMKeQr0xaH/tgQ3HloLGGIpVsVGtK7DtrKV/2+E/3scs+q7DsBn49X7un1jyqeXxr1zZNupRESmYdxnebGwZ1X8DP/8QsCkDjxoMVH4W+8BUyEgsT0PKRCitXq7DOjnp3Rn4jm8n9qBwWeDnnwPehb0u8MRxeuwDI1Ikb06AF/Bv4jMHm8jn+Y4X0QqAnoZjM7CnUnwH2Srl78CW9ZycFtIGPI3vuL6G/xXCAvyjX09GPjYihVmNai3z2jHu4Wlabdjyyuco/py0YunEssOtOdCJahFbUfw5iVm0IqTFVPXJ8kCqNanlA0UHUAJbATdhefiVEKkYbdhv6xFssmCrrxqo2u9S2/xKJdxE8XfTMcvzVPdmbSATgAup1ohOVcoUbESmSjfbjfC+3itbeTju4ZGyq+IPdwI2RFy1DnMHbHlbq2jDljd9H9tOtxm9uqgAvI7dxHQ3FmvnGCyHRLP+Hv+N5Y5vpffIWwB3Fx1EAhsDDxYdhOQxuOgAEtif6nX+YMONrXIDsC62CdNORQfSj1nYhfJxYHK38iI2eXQ6je2d3obdBCyHLe1aHVuPvzq2He3GlHdntp2xpFcnY0lxFhYbThZVG/7vcgC6AZAm9i+KH0pLUZ6heZ8Q69UGfBF4k+KPd/fyOnA1lg9iP2wSXBHn4m3Ypj7/h63T965SSVHuBNZPdQBK5FGKP9Ypyr0xD5JITuOwJTFF/4hSlSrvCzABuJbij3ENe7q/HPgslsuhrNkY24ANsVclf8FeNxR97GpYDo1PJ2x30Tal+GOcsqwd71CJ5PMJiv/xpCxVTdZxAJZGuchjOxn4Aba7WrNumzsYSwpzCvAYxf+9Xo7dlFfNtyj+2KYsX4l3qETy+QfF/3hSlqeo1muAIdgWpEUdz+eAM7E0qFU6rl22AE7Fn43SU16geimFH6L4a0HKclu8QyWSx1gW3zmrquUdsQ5YwcZhs8dzH78O7FXDB6nmJNi+bIntLjmH/Md8AfDV9E3MYiOKvwakLp3AqrEOmEgOH6X4H06OclqsA1agHbA15DmP21TgG8BKGdpXZssDx+NPPxtSfgeMSN/EpL5B8deAHOXYWAdMJIfLKf5Hk6M0+1rrw8k7UvMYdjFr9o4ntnbgfcCt5P37vZfmzuR4P8VfA3KU/8Y6YCKpjSL/0Oab2JrnGZnrrWG7hzWbNuCb5MvoNwnLCVHFd/ux7QncTr6/38nYUHqzWY/8v/V5wJ/wb/fbaOkAVoxz2ETS+hB5fxwPAZstqns18qce/k6EY5bTUOAC8hybh4EPU81kUCm1AftiT+g5ztOrWAKhZvI18v7On8D2wABb3fFM5vqrvJRTKuQi8v0ozsX2oe9uMLY0KNdd+iOuo5XXUtie8qmPyTRs3X4rTexLoR04kjxzNOZhN+/N4h7yXWd+z5KbLS0LXJIxhmtdR0skgxFY4pbUP4bXGPhi9W5s454cP85NGjtMhVia9KMj87Gd6cqaJrdZjcaWEKbOyrgQOCJPk1zWJs/vehY2T6Y/nyHPK88FWGpqkdLaj/Q/hNuxfOz1GEueEYmJ9R6ggixD+glm92DL2ySdtUg/gtMJHJerQYFOJP1v+i5sH4x6bADclyGmI+s+QiIFOI90f/wdWFa1RoeV24DPkfbp6f4GY8ppeWwSXqq2zwa+RHlT9FZNG3AUNgqWsrP5Uq4GBUg5SbITm1A8rMGYRgDnJIyrBlzZYEwiWT1Mmj/8KVhaWI/NSJs1rIyzdMdi26SmavOtKFd5UVYm7X4NncDR2VpTv+Gk22PkZWAvZ3wHkm410iwsY6dI6bSRZuLdlcTLYb4U8KsEMdYo33a5o4BbSNPWhdhES03yK1Y78GVgLmnOcwcDvwPPLdXmP9cRLzHVqsCNieJcJ1KMItHFvBDNxd5Fplg7/iHiD6HuliDOUCOA60lzAXoOeGe+pkgdNifdhkMLsVTNZbExcdu3AJtTEHupaqrVSJshUlJPEOeP/FHg7YljXZ24T8hl2Xe9nXTLk64HxudrijRgaeBvpDnv87BVNWUwnngJrJ7GNp9KaSfspjnWuajijo5SETEmwZyHDV/nMBibWNjhjHkK5clydyZpOoEz0JB/2bUBJ+H/e+6tzMBmu5dBjEmtF2E3TTksB1wWIeZmyjkiLWhzwi8+rwMH5w8ZsAmGL9QRY1/l5Pwh9+pzxL/wz6N874Glf+/HVmfE/lt4inKMAB1DeBtmAx/PH3KU1Uhfzh61SINCJtk1srY/lXHYhMOQi+JSBcTb017Ef9/YjClixWyF7boY+ybgVmwmfpGGYq8JG439XoofxdiUsNVIj6FNtKQJjKD+jHOdwPcpz9KWNmziYb2TGadhk5KKtjbWWce80D8DbJizERLd6qRZmvvrjG3oy3rAK9R/nfkJxd+4dBmJpTGv93jPoDk3bJIWNQL4Of2/DniMcs2c724zBs41fjvlWJKzFPET/TyObawkzW8cafLmfypnI/qwBgNnuHwW22q5jA7Ecg/0F//9FD9qIRJkPSyH+Y3YCoFJwJ+xd/1DC4yrHu3AB4CLsYvITOyp+GLgAMqzw90fiHthfxCYkLUFktoyxM8JMRfYJmcj+tC1c+JF2N4fbwIvAf/G3rmX4fVcf8YCJ2Cph7te4b2Jrbg5kvKMjopIycSe9DcJLTOqqtHET07zLLYrnsTRTr6VCSLSxDYk7i5kjxEvE5qU0xji59G/JGsLRERa3DBsRnOsi/gz6J1/q0ixP8THsrZARKSFxUz2MxVYM2/4UrAVgSeJ9zc0i3JMiBURqbT3EC8V6mxg67zhS0msT9xd625BW0KLiCQzjHjrujuw1QzSut5F3A28jskbvohI6ziNeBdrpRUVgMOI+ypgtbzhi4hU3xbY1qUxLtR/yhx7mQwC9gCOB87CNs85iHwbUJXRT4h3E3BV5thFRCqtHbiDOBfo+2ndzu4T2Nr13o7L68Dp2GuWVjOE+tN311MOyhu+iEh1HUmcC/NMYN3MsZfBUOAC6jtGdwArFxNmoSYQb/OgZ7B89yIi4jAaeJE4F+bDM8deFo3uUHkf5dk4Jqc9ibfC5OTMsYuIVM6pxLkgt+p7//cSdry+XUSwJfBj4vy9zQbeljl2EZHKWJ04y7SexTaEaTWDsDkPIcdsDq3ZgQ0n/Jj1LBdkjl1EpDJ+Q5wL8T65Ay+JT+E7bufnD7kUNifOipMOYNPMsYuINL11iHMR/l3uwEtiFDAFfwe2Ze7AS+IM4tx8/iV34CIize5C/BffV2jd7X2/SZwO7N+5Ay+JkcAT+I9fJzaiICIiddgQe/r0XnwPyx14SUwA3iDODUANmx3fivYgzvH7W+7AC9QO7AWcB9yJbbp0K/BTYIfiwhKRZnEe/ovurUBb5rjL4tfE6/xr2KS4Vt3o5grijAJsnDvwAmyAbYrU37G4GlipqABFpNwmAPPwX3C3zR14SWwKLCTuDUANyyLYitbF//dYwya0VtnbgenUdyyeB9YoJkwRKbMY6/5/nz3q8ria+J1/DZtQuFTGdpTJD/Afv7lU98l3GWAyjR2PB7AMlSIigM1c9+7RPp/WfbrYnTSdf1c5OV9TSmVZ4DX8x++U3IFn8l3CjscXighWRMrpaPwX2XOyR10Og7AUvilvAGZR3afYgUzEf/ymU70Uy+3ANMKOx0MFxCsiJXUPvgvsXFozex3Ax0nb+XeVX+ZqUMksTf3vuPsrh+QOPLHN8R2PVl2mKyLdbIX/4np29qjLYSngBfLcACwENsrTrNL5Ov7jd332qNPaC9/x2C5/yCJSNr/E3zGtlT3qcvgGeTr/rvL3PM0qnWXx51foxLJcVsV++I7H3vlDFpEyGQXMxHchuTh71OWwEvZuPucNQA3YJUfjSijGboGnZY86nV3xHYuD84csImVyCP6LaqsOJZ5L/s6/BtyLTQBrNWvg36PiWaqTpGobfMfi0/lDFpEyuQzfReT2/CGXwsakSfpTb2nVVMuX4D9222ePOo0N8B2Hr+YPWUTKYmls9r7nIvLJ7FGXw1UU1/nXsCfZEclbWT7eiW814EfZo05jZXzH4bv5Q45iGWxvg12AtWndVNkiLh/FdwGZBYzOHnXxvO9eY5UTUje0hAZhNz+e4/YC1XiFMgbfcfhp/pBd9gf+x5Kblb2A7cDZqtkyRYL8Dd8FpBXXpbdj7+CL7vxrWIa8VlzLPRH/savC7njt+HbuvCB/yEFGAn9h4PZMRts/i9RlGP5lVVW4iDbqCOJ03rdF+p6fJG1tOa2J/7hVJTWwZwVPM2yVPAS4lvrbNAObGyEi/dgN3wX0eaoxjNqIkVi7vZ3PFOzVyV0Rvms+tmteq7kD33G7O3/ISXj+Hv+TP9yGnUjj7boLzQsQ6deZ+C6gZ+YPuXCxkv50be+7U6TvuyRZi8vreHzHrBPb/rrZPUz4MbingHgbsTzheTb2LyBekabxEL4LaFWWUtVrRfwJk2rA/Sz+dHJFhO+sAXukaHSJrYZ14p5jdkTuoBPwvEp6qoB4G3EG4W27qIB4RZqCd/nQS1R7+H8ksC22Q+K52JDiPOJ01Hv2qGsD/MltusoM4DrgdOAjwHpU+zzdje94/T5/yNFdR3j7pxcQb71WwDdH6cn8IYs0hw/hu3Cenz/kZEZjkxmPBX4H3Em8zr5n+VcfMfw8UX01bAj1zkVtO3ZRW4eFHarSOQXfsZmcPeL4PImRFhQQb708T/814JX8IYs0h7Pw/bg+kj/kKMayeGf/IL5lVI2UDuDtfcQ1Hng9Uxw1bOLggyx+UzCykQNZEjviPxarZI86rvPxtb+M593z7r+rPJYitSkzAAAgAElEQVQ9apEm4ZlBvRBYLn/IDVsZeB9wMpbu2Js8xlt+O0C8Mba79ZQFwH2L4jwGuykoe5KnwVguBE+7D8oedVw/wdf+Mk6E9D7919AcAJFeLYXvnXMZl09NwDr7idikuhcptjPtWeYAbxugDSOAZ0oQa88yZdExnbjoGI8foB25eSdRnpU/5Ki8r0HWzx9yv2I8/deAfXMHLtIM3onvh3V2/pB7tQf2/nMGxXeSA5Vv19mmI0oQ60ClExsp+CIwtM52pXQCvvbcnD/kqLzt3zZ/yP2K8fT/CMoDINKrT+P7cRW9h/hY4A8U3xHWW6ZS/1B6mdIM11PuxXZFLNIO+Nowk+beHvhofO1/b/6Q+7QCMBv/3+WhuQMXaRY/w/fjWi1/yP/fcODWPuIqazmqwTa+pwQxN1KmYTuyFWUY/h0t18gedTzeDb0+kD/kPsV4+n8MmxsiIr24kfAf18sFxNvdb/BfIHKWhwi7GBW91XCjpWdyo9y8aYHfnz/kaN6Pr+2fWPIrC6Gn/wJVOVmIvKUN2MTx+UmxAgmwDnBYgfWH+Aq2aiLkcx2RY0lpYyy3RFG8f5ee30TRZjk/v3SUKPyOx78k8VHgjxFiaTm6AWgNK+D7wd8fK5AAn6C5JvZcB1wZ+NkHgF9HjCWHTxZYt/fvspk3U5rp/PyYKFH4rAB8JsL3fIfmunEuDd0AtIbVnZ8vcgRgqwLrbtRM/EOrX8FyFzSLzSluMp33BqCZ5wB4RwBGRYnCR0//BdMNQGvwXugeihJFmGa5SM/E1iA/4/ye17H3u82S0nQZbIVGEbx/l6vHCKIgM5yfnxMlinB6+i8B3QC0htWdn58cIYZQ3qHOHK4HtgNuiPR992J5G26M9H0pdQJvFlT3VGfdE2je/RFewbepT9E7AurpXySTXxA+u3Y2xa6XvrSPuIosr2Kd/inAO9I1nTZgbyy9aRmzBdawfemL9DC++NfJH3I0oXkxOoBVC4i3i2b+i2TkSZta5PA/WAKiIju457FJfd8GDgTWTNvcfi0H7Io9PV2InZuFFHt86s12mIp36eSO+UOOZntsBKbRNv+5iGC7UdY/kYxuJvyHdnUB8Xa3FPAC6TuyDmxI8SLgq8DulC//fW9GYmldP4ON9NyBDYvn6Pxfx57miuTdUnn//CFHdS6NtXcGxSb10tO/SGaPEv5Du6CAeHvaizTb9/4D+Bz2vr3sO+A1YjC2xv2jwJnYFsApbgCOyNSe/nwbXxuKXMYYwzDgGupr6yws42SR9PQvktl0wn9sPyog3t58nvgd2OPAijkbUYA1SDOCckrORvTjOHztOCF/yNENxmbD9zfyczuwaVEBLjIePf2LZDUI39PzSflD7tNJxO/IJgHL5mxERhOAJ4h/zM6hPBvpHIqvLWfkDzmZlbD5IZdhr4JuxF6R7Eo5Vnx9Ff/fnp7+RRowBt8P7uj8IfcrxhBiz3IL5UiMEtNyWGbB2Mfqj5SjM+myJ772/CJ/yC3rFvx/f3r6F2nA8vh+cEfmD7lfbcCviN+xXUvzrgnvaQw25Bv7GP0dGJKxHfV4N742/TZ7xK3rVXznSk//Ig1aGd+P7uD8IQ+oHXsSjd3BXU7zbyk6AstREPvY/A9bkVE22+Fr14X5Q25Zb+A7V3r6F2nQGvh+dGXaN7y7oaTZPvd8yvN+u1FDsJwFsY/JXZRn97ie3o6vbRfnD7lleVYj6elfJMB6+C6Q++YPuW4jgf8Sv8P7cc5GRDKINKMiDwHjMrajURvha98V+UNuWZ5Xd3r6FwmwAb4L5Pvyh9yQpbEn1Ngd37dyNsKpDfgl8Y/BZGCVfM0IsiG+Nl6VP+SWtTXhN6F6+hcJsA6+C+QB+UNu2PKkSXZzfM5GOHyP+G1/GRs9KrvN8LXz8vwht7QLaOz8dAK7FBKpSAWsju8C+eHsEYdZBXtijdkJdgIfz9iGEF8nfuc/A+tYm4F3DsBf84fc0sbQWGryLxYTpkg1eFcBfDR/yMHWAV4kbme4EPhgzkY0IEV2xDewmfXNYht87f1T/pBb3ijg1/S/kdFrNNe1R6SUxuO7QH4sf8gum2JPsDE7xXkUn0O9p0MI2wmuvzIX2C1nIyJ4J742l2Gvi1b1dixT4f3Yb3YacAOWnnm5AuNqGc2+5lkGtsD5+RFRoshnErZ50LXEy+43FLgEu7l4LtJ3emyK7QIXc7liB5bz4dqI35mDNzHRHOfnh2OvnyYAq2K73S2DXVuXxnJWjMXO1TLYcZ656LNzsfz9b2D7dUzrVqYAzwLznfGV2d3YLpZSEN0AVN+bzs+PjRJFXrdi27xeSbzsfmOBb1CO3eN+TNwbsxrWrksifmcuY5yfn1XHv9MOrAlsjt18bbLonydgE1BT6cQ2cpoMPA08jN3g3k85bkRFpAl49odv5s1S9sNGQGK+ChiZtQVL8q57760cl7UFcR2Or+0n9/KdE4DDsOHpm7GbhNjH3FtmAP8BTsOW6qa8EZH6DcZeSx2KbZe9M803iioV45kY95sC4o3pMOK+K981b/hL+Azx2lIDJmaNPr5j8bX/i9iror2xra9TbKCUo3RiIwTnYtk7m3Hkrpkthe1W2tvW628AZ2Ovh0Sye4TwC8ulBcQb2zHEu9AWvTnSD4jXlrMyx57CRHzH4DnsPXvRHXjssgDLknki9spC0tkNe0Uz0Dl5Edi2oBilhd1K+IXkpgLiTeEbxLmwFp0X4EzitOM8mnfPg+5+TPGdbTOUh7DXHRuEHWbpxVgGXs7Ys7wGrF9EsNK6/kH4heOZAuJNJcbT837Zo17c1/C34VKqMwH4MorvXJutTAK+gOYNeLwfW6kRcvxvpxo339IkfkP4xWIB1eks2rDMb56L5+bZo17cIfjif5h4KyPK4B6K71CbtczFNpDaGXVI9RqPJY/yHvs9cwfem/aiA5AsXnB8djCwUqxAClYDpjq/Y3KEOIqsv4atZqiK1YoOoIkNw1J9/wu7MfwUmrHen4OxPUcOivBdRY8kSgv5NL671XfmDzmZvxN+HF4tIN6eJuA7l7OpztPeGIp/iq5aeRmbK1DmLaBzWxnbNjrmcb45awv6oBGA1jDF+fkqTVpZzfHZp6NFEW4qNnQbaiTVubgfWHQAFTQOW1kxGTid6vythGjDEmQ9COwT+bu9CaxE6ubdMe3M/CEn40nqUpZMeY/iO59b5Q85qncC/6P4p+VWKLOA7wLL1nVmqmNN4DrSHdd/5WtK3zQC0BqecH5+oyhRFG85fPsDTI4Uh9dk5+dXixFEATbAVjDcBGxfcCytYhTwf8BTwFeo1gTS3rRjyaUmAbskrOeWhN8tsoQXCL9b9UwiLJMt8d21H5M/5F6dg68dX84fsssE4JfETeusElYex5bAVdEG5BlZ6gA2zNSmflVleZcM7FHsQhpiArAi/hn0RVvN+fmnAz83Gks1uyE2CvEycAc2xBiy29vkwDi6eI9DLu3A0cAp2DGU4q2N5V64Dvg8lmW02Q3GRjdOwnZ3TO08LDGTSDY/w3fXun/+kKP7Ar5j0GhK1bWBX9D3ZkwzsPer4xv83g872/G3BusrwoZU4z3/bOw8z8CSak3t9s/NPqIxF+s0vVsyF2lzbFviXMfsbmzfAJGsPofvD/f7+UOO7kf4jkG9T6GbYwlWFtb5vXOAn1D/k/m2znbcV2c9RRiKLUObR/EdXH9lNnAncBE2W/5z2K582wDrYCM99Sy3HI6NsG0M7IitNT8B24nwKuBJ4m5mlaLcv6jdzWQQ8E3y7gNxFdqkSQqyHb4/3irsCeBJG/tKHd//LuxHHnrBng+cz8CTLldwtKMGvF5HW4qwHbbkqugOrWeZhuWP+AawL7AWeSdQLwW8A9uI6qfAXZRv9GAh8D3sBq7shmG/01zHZia2i2dV8m9IExqB76Ixj+Z/D+tJG3tHH9/Zhq0Rvsnx3T1LB3az0tdTVRv2BOqpY5kBj1Y+7dhM87J0aq9g6V4/DqybsN0eI7EbzonYq5KyHLu7KH/eEE9q9EbL1cCqeZol0r978f0xN3v6yhmEt/0vPb5rMDZce5/jO+sp/wbe20tbHnJ+b9F7GnQZD1xD8R3XJKwz3ZLmXB69NDZP53dYxsoij+VsLPtoGe1AnmPwKsVvHS6ymF/h+6P+Rf6Qo/GmjT190fcMxy5uTzq/r9FyJ/AB3uqcPCmNa5RjKde78S1P9ZYHsfft6yRuZ25Dgd2xrWpnUtzx/SPlm/D2F9K3+3LCV1yJJHM4vj/sZ2ne91ib4mv7CdhSoRed3+MtjwAfA851fs+xvsPp0o7NHq93kmTM8io2wW7r5K0sh6WAw7CRpCImE95PeW6w2kh7Q/QK8JFsrRFp0Nvw/5Fvlz3qON6Hr90dzs/HLt54ikrvPIr4G6vUUx7Adrsbmb6JpbUuttrEkw47pLyG/f6K5p0821+5iMaX84pk580j/+P8IUfhXQZZtfJX3+EMshI2SSxnO68CdqV5R65SWBr4IvAc+c5Dx6I6i7Qi8ds1hWrkSJEW8XN8f/AvYmtom80ZFN/plqnc5TucDdsYS4STo22d2ChDs296lNowbHlarvNSw5YxFnX9GIzl3IjVlvMo12oakQF5h8JrwF7Zo/bLMfmnmco03+FsyK7YMHCOdl2DzeSX+g0FjiLf/JYr8G3K5RFj/f+zwJ65AxeJYQT+d4BXZo/a73aK73TLVnJchA8nT7a1+4E9MrSnykYB38afY6KecivFPD3vGRhvDRtZOgdbUSTStLxPwx3AGtmj9nmJ4jvcspXU2zx/ivQzz2dgT6/N+FqqrFbBlvCl/vu7l2ImzoVkBH0S2LmAWEWiOxj/j/f0Jb61vEZS/nzqRZS9PQd1AEeR/phfiM3sljT2IH2+i4eBlXM1aJFR1L/RVAdwFuXLZxCFZsa2plHY+z7PEPAsYHXsCazsNkDbb/bms9gukbEdhU02TXV9mbyojn8m+n6PZbCbkuUWldG81XmM5K2dITuxPRlexeZjTMd2ClyQOd6BjMA2Z/oy6UZZngJ2Ap5P9P29GQaciv0G+tq/4G7gGOxmQaRSfov/7n1i7qAD7UHxT9tlLN/zHNQ+fJq0T/7nUfw72CHY1tAHA6dhQ8r3YR26p20LsZub/2BZ/I4DdgHG5WjUALYHniDdeX2YYl4HrIol+Locmyf0H+zmdQ/0gCwVthP+H+10bE1x2R1F8Z3tK9hucqtgOQmeLkFMf/Ic1F6kHPZ/BTgwcrz1GoVt+HQqcANxl5LVW54CLsCW7W2Qtrl9GoU/A2V/5V60rE4kizbgcfw/2lNzBx7gVIrrZCdjw4g9M9ANBg4h/WZC/ZVbGz+UfdqPdNkSbyb/e+K1sWHv67CdMIs6R32Vp7En1X2w4eycDiJdNsFbKW6JoEhLORb/D3YOlmK4zP5A/gv0A1gO9iEDxNaGLU36TwExvljf4RvQ1qRbOvZj8u0xvyrwVfJnK/SWV7FXI3uRbzVE17yaFO25MmM7RFrWGPzvLWvA73MH3qD/ku9i/D8s2VLI+8NtgEvIt+9AJ/4L7RrY5LXYsc3B3rGnNgRL5XoV5dvvIaQ8D3wLm6Cb2ijg4kTtSDE5VUR6+CFxfrC75w68AXeQ9qLbiW3P+65I8a6PTQLLMfQ83BHnMqR5CnwJuxlKaSz2tP98gvjLUDqAS4EdYh2wPrSR7hXblxLHLtLy3gbMxf9jfZryrpW9nDQXqAXYWvRNE8W9MpZvIdUWpi85YhsKXJ8gpgdJm2RqBWwnxNw74hVZbsXmCqT0ceJnfOwA9k0ct0jL+xlxfrBFbTE7kKOJe2Gag21qkisb4ljgROIPtf/OEVOsv5nu5b+L2prC8sD3yZPmtqzlVuC93gPZj/cCb0SO+TVgnYQxi7S8WKMACynnDmwrEefC/yrwHYrb93s4ts4+1nrs0Nz5B0Wqv3u5hiVXSsQwFJvNn2szomYo/8R2Z0xhe+If6/sp7+iiSCX8iDg/1nsZeOZ7Eb5CeJtewDqR0dmj7t0g4EP4ZqtfFlj3OsSZONozlhRL2fYBHosca1XKAmwUK8WIy9uxvA0x442ds0JEulkWS+wT48f6g8yx12MwdhFppB2PAp8g/zrrRuwGXEtj7XqAsBz6w7H0qDEv7BcT/4ZxPI2f61YtU0iTYGkj4OXIsX4mQZwisshxxPmhdmJL4cpmEDapbqDJSncAHwDaiwkzyJbAn7HXMP217TrCU8v+fIDvbrRcSfw1/h/BcusX3bE2W7mE+CmHt8Bem8WKcTbFZUEUqbyh2CzsGD/WaZQ3QdD62CS2R3kr3qnYjP5dCowrhjWxHP8P8NaNzqvYMsU9Hd/7IeJ2ONfhW4LY09JYPoqiO9JmLi8SPi+kL9sRd8XFPZR7RE6kqe1AvHzuN2FD71KMwcSZPDWeuO907yRuutetKcfeClUondhqnpivZXYj7hLBMyLGJiI9xNzw47TMsUt8MVMpP4Otyojlk8RZwaKyeLkBWLGB8zCQj0WMrQNbbSBO2u5QejMW26Rm1QjfVcOWjf0lwndJfntj7+pjeB0bYXogwncNAc7GbgDKoAO7uXkC22TrCSyB06xF/zlnUQHLoDhyURmDdbTrYhsQrQ0slzPwfkzB0iTfHun7vgN8LdJ3PYStNpgX6ftEpJt3Ey83+hvAZlmjlxhGA88S76kt1vvlpWl85UPs8gyWSOkTwIbEncy4LLZd9zewuRJFJi+aje30GEMb9iAQK7aJkeISkV58j3g/1qeJP8tY0vop8c7/1yPF9DYsMUzujnA+cAVwBLBapLbUawg25D0ReKSBmGOVDmzn0BhGEW+i8Tzs5ktEEhhK3HXf11POJEGypO2JNwL0N+K8blyTvJP9OrB34UdRnmF5sCWfZwDPkfdG4ORI8a9HvGRS/44Uk4j0YkPs3WWsi8jZecOXAG1Y3vgY5/spbMjea33y7dw3C9slc7UIcafUji3tvJ58NwGnE+dm7sCIMR0QIR4R6cOniXsRUUavcou15n8h8M4I8ayLrVFP3bm9hL2qWDZCzLltjWVVjDVqM9BNQAy/jBTPk8TNKSEiPZxPvAvIfGDnvOFLnYYSb7Ohb0WIZ3XiTUTsq7yKZcEcESHeoq1L3Il2fZWJEWJdisWTcXnKCRHiEZE+jCDufIDpaJvPMoqVDvo2/EmgViDezUhvpQP4FdWcnLoL8Sbb9VWOixDnlsRJEvQ65ZqnIVI5qxI3I9wjpNv/XRo3ljh59BcAmztjGQHcHCGWvsqdWJraKhuMzd5PtRVyB3Hev58SKZ5TI8QiIv14LwNvONNI+Qe2SY8UL9ayT+/Qfzu2OU2KTms+cDzNtdGT1wRstnyK4zkH2MYZ33DivAp4g7BdLkWkAScQ9yJySt7wpRfLYhdQ77l8CP9mLd+KEEdv5UlsslwrGgSchI3OxD6uU/Cnd96JOHuQnOmMQ0QG0Ebc/PCdpNmTXOr3deKcS+/kzn2JtxlV9/In4ixHbHbvIs2kyhvx5/iIMdF4DhoFEEluBHAH8S4gs4CNsrZAugzHtkP2nsNLnXGsTfz31R3AMc64qmZZLMFR7JuAHzrjmkCcrYO/7YxDROqwEnGTszyGJgUWIUaeh3n4VnUMBm6JEEfPmD7siKnKhgEXEfd4dwL7OOP6vwhxTCfudtMi0odtgTeJdxG5HO1SmVM7cSZgefdoj/3e/3WUa2Igg4BziHvcpwLjHTENJ0665886YhCRBhxG3IuIfrz57I//fM3Ct5Z+G+KuLJkKbOGIp9VMJO7v9zJnPB+LEMMTtNZKD5FCfZ94F5A5aD5ALv/Bf76+66h/KHF395uO/nZCTCTuTcCHHLEMBh6PEEOs7adFZADt2HapsS4gD1CN1Kxltgb+Gfev4cudf7Kz/p43jjs4Yml1PyHeuZiK7+/ioxFiuNhRv4g0aGlsHXisi8iP8obfcmK8d/c8/a8FzI0QQw1b3/4+RyxicwIuI97v9+fOWLyjAPPRkkCRrNYBZhDnAtKJhvFSaQcm4zs/c/ElgLnUWX/3v5MjHXHIW0YANxHnvCwENnXEcnSEGL7iqF9EAuxOvG1JnwPG5A2/JeyM/9z8tuD6u8r3HXHIkpbDfncxzs2/HHGMxL/3yEOO+kUk0HeId4H/aebYW8Hv8J+XTQLrbsM244nxt3Eb/gx0sqSdiLcyYy9HHDFeU3lGIUQkwCDgeuJcQDqo/s5tOY3Gn/f/Rkf9MZYe1rAJiGs64pD+TSTOebqT8NweK+Pfv8AzT0VEAq2AbRQS4yJyN9o1MJaD8J+PwwLrbgPujVB/DTg4MAapTzs2hB/jXL3fEcffnHU/4ahbRBx2Jd58gE9kjr2qvJuuvEr4Es39nHV3lfMC628FbcCWwLHYTpsnYZtthcylWQXLqug9X3cGt8ZWd3jrf7ujfhFx+C5xLvovoR3dvNqBl/Gdh7Md9d/orLvrBsSTebDK9qDvxEpzsAmToxv8zi/28X2NlncHtmkw8IKz7pMD6xYRp2FYYp8YF5FvZY69arbFfw5Ck+1sE6HuGtrdry8nU19ip0nAqg187xDgwTq+d6BypaNtP3TWfaujbhFxipXvfSZ6+vPwzqp+nvAc6xc66+7qvAYH1l9lP6Dx49jIjnm7Nvj9vZVObMvnENs5614ILB9Yt4hEcAb+i0gN/85zrewufMc+dM/35Yiza+S7A+uvskY7/67yvQbruTiwnu7ltLAm0oY/cdVHAusWkQhGEmeTj9nobj7EBPy5/98ZWPdxznprwFWBdVdZaOdfw+YENDIxcB38o3gvEp63wdPWGpo4KlK4nfB3QjVsjbI05kP4jvl0wpdiTnLWXUNP/z15O8QatjqgETFGAfYNaCvALs56nwysV0QiipGFbjqwVO7Am9yZ+I75nwLrXd9Zbw24PbDuqjoV/zGtAV9vsN6tItR5YePNBWzr6FnOulcOrFtEIlkFG8b3Xkg+kzvwJvc/fMf7iMB6T3bWW6PxJ9Uqi/Hk31VC3sn/21nnTMLzSFzurPsDgfWKSETfxH/xui971M1rKP5JeBMC6/YuAX2U8JUHVROz869hyYIatUeEeg8IqBfgs856QyexikhEo4Fp+C8k2+YOvEl5h25D35+u7qy3BpwQWHfVxO78a8AWAXG0Ac846/1VQL0AmznrvSWwXhGJ7ET8F7DfZo+6OX0e33G+ILDezzjr7QRWC6y7SlJ0/vcRvknP9511Px9Ydzu2CVRovbPQaJJIKYzGv9/3G2gyYD1+j+84h8638G7kclNgvVWSovPvBN7riGmLCDGEbtN7tbPe0GREIhLZyfgvJB/OHnXzuQffMd48oM52LG+/p97PBtRbJSk6/xpxltE+7IwhNKXzN5z17h9Yr4hEtgIwF98P+rLsUTefmYQf3/nYJMJGbeKos4btA9/KaZ9Tdf4/Inzov7uTnXFcFFjv+531nhxYr4gk8Ft8P+i5wNjsUTePFfEd30mB9R7lrPe2wHqrIFXnfxZxOn+ArZ2xPB9Y75rOekPzWYhIAm/Hf2E7OHvUzWMHfMc2NHHLb5z1nh5Yb7NL1fn/mHidP9imTN7EPKsE1NuGb0RLOwMuotmQUgZ341/Tv1eMQCpqLefn7w/8XOgkry7/dX6+Gf0A+GKC7/0ptua/FvE7F2LJpTxC/kZq2PbEodZwfLZSdAMgZXG+8/O7E56nvurWcX7+qYDPDAI2dNTZib9zaTankqbzPxebcBez8+9yo/PzoTeJIX+TXcajlUMipTIOm2zmGU5UUqDe/RHfcd06oM71nHXeG1BnvUZh75HLlBc+1bD/2cQd9u/J+3rp94H1fsdZ70aB9VaKRgCkLF4B/uX8Ds+65irzdnSTAz7jXWsdO83zcGxS4l1YIpknsUlor2KjTyHLHGNJNez/c+BzpHny73Kv8/tDX0897agTwuYeiEhCn8Z3V39t/pCbgicX/xuBdXpztp8UWG9vNmDg7YgXAt8l7dNyb1I9+f+cfG2Z4ohzamCd3q2BDwmsV0QSmQB0EP6jnoXNTJbFvUD4MQ1913q6o84a8ZI7rQW82EC9P49Ubz1Sdf6/IO+NzA2OWDuBkQF1buSos0Z4EiIRSehWfD/srfKHXHpzCD+etwfW6Z13sGVgvd21Y5u/NFp3jiWlqTr/X5J/FOPXzphDJql6c1t8K6DOytEcACmbfzo/v0OUKKpjOOF7rwNMD/zcco46AZ5wfh4s5WvIxNAzgaUj1N+XVO/8f8Vbr9Fyetz5+eUDPjMdXzu9f5+VoBsAKZvrnZ9/R5QoqmMZ5+dDbwBCLupd5gCvOz7f5dDAz60AfD1C/b1J1fn/Gpvk2Jnguwcyxfn5kM54AfbKL1TKG7ymoRsAKZtbsNS+oYqczV1G3huA0Ius5wnLc2HvLmT5Ypdj8OdP6ClV5/8b4FMU0/mD/3yF/q146h3m+Gxl6AZAymYudhMQaj18Q95VM9r5+fmBn/Ocg9CVBz2t6PjsUOCMSHFAus7/t8AnKa7zB//5CpkECDDPUaduANANgJST5wZgELBxrEAk+AYgZPfALrFuAN50fn5fYLcIcaTq/M8DPkGxnT/4RwBCO2PPDYDn77MydAMgZXS38/ObRYmiGrydQ+hFtgw3ADGyCZ6Jb2lpqs7/fODjFN/5g/98hf6thN6cgkYAAN0ASDnd5fz8elGiqAZvB9ER+DnPvgwLHJ/t7tII37ExNrkuRKrO/3fAxyhH5w++jhjCb7AWFlBnpegGQMroGcJnn4M/DW2VeDuJ0KczTyc+yvHZ7s4FZkT4nm/S+GTKVJ3/BZSr8wf/xjpFjDJ5b1oqQTcAUkY1LHVrKN0AvMXbURTxfjbWDcBM4OQI37McMLGBfz9V5/974EjCR2VSKWqiqWcYXzcA6AZAyusxx2fXIn82tLIqagTAc4GNdQMAcA62F4LXZ7A9BQaSqvO/EJMwZ4IAAB0USURBVDiC8nX+4D9foTeLugFw0nsQKStPdrER2MX6xUixNDPv09nwwM/NJHwZXswbgIXAccB1zu8Zgk0I3LOffydV5/8H4HDK2fmD/29sZuDnQv82QTcAIqX2PtLkSldprPx1oBPVh5sddS4g/sPJpY54upe9+/j+VLn9/4BvQmUOR+Fr466B9c511PnrwDorRa8ApKy8+cUljtAsbdMcdQ4GVnV8vjdfwjcvocsPsNGAnv9biif/PwEfpbxP/l3WdH4+ZMLvaHyvAF51fLYydAMgZbQn8OeigxAg/AbgZWe9sdPwPoUN4XutB3yu2z+n6vz/THN0/uA/VyF/K97NfHQDIFIyo7HJTkUPe6u8VULnUZzkrPdzS36l2yjgBWdcNazzGEe6Yf+LaK75WZMIb+tcwh5E3+GoswYcHVBn5TTTH5lU28rA31EWv7IZjw21Njp8PtlZb4qlnG8AJ2JZ9DzGArcBa7gjWtJfgEPwJbnJqQ1bdRPqWcJWqqziqBPgFefnK0GvAKQMNsTy/6vzL592wt7HT3bWmyqb4wVY5+2VovO/GDiY5un8Ad5G+GY+AE8Hfm51R50Azzs/Xwm6AZCiLQdcgV1IpJxWC/jMw846tyPN7Pca8FnKlUkP4BKar/MHeKfz86F/J94bsGedn68E3QBIkQZjTz3eWcSSVsjFdhq+PAxLA5s4Pt+fu7CsemVxCfBh4u2BkNOOzs+HJmla3VHnQmCq4/OVoRsAKdLXgHcXHYQMaP3Az3nSOYO/c+nPicTbddDjUpq38wf/Obo/8HOeV0RTaI7VFcnpBkCKsjLwlaKDkLqEPol7t+NNeQMwBfhuwu+vx2XAQTRv5z+e+tIj92UhYSMAI/FNEvWkGa8U3QBIUb6Lb/KQ5LNp4Odudta7I2mvUT8Enkz4/f25nObu/AF2wrfnxr3A7IDPbYhvfsgjjs9Wim4ApAgrYUudpDmsgD3tNeoWbNJdqHFYJ5PKPODLCb+/L38DPkTz56M/0Pn5mwI/550bohuARXQDIEU4FOWgaDZbBXzmFfzDrR9xfn4gl+HfKKgRVwAfpPk7/1HYfh0eoTcAWzrr1Q2ASIEeoPgMdyqNldD35T921jud8C2J67URNhSf+hhekaEtuRyC71gsBJYNrPseZ93jAusVEacJFN+ZqTReru/tZNZhrwh1e5806+G9URmo/APf9rVlcyW+4/G/wHrHYDcPofU+FVhvJWkYVnLbOsJ3zMYmUT0OvBnh+1rBeHyb1myN7YLX6KS167FzNMJR96HY03NKE7FEPN5NZnrzd+x9eYzdCMtgHLCb8zuuDvzctvgmAN7l+KyIOJ2K78nhZjSEF2IItu7dc+x3CKz7Mme98wnLRtioo51x9lauwrdtbRlNxH9cQleWnOKs96uB9YpIBH8g/Mf7BvYKQcL8C9/F8zuB9R7srLcGnBVYdyMG49vZrmep2rA/wFJYlkfPcXnIUf/dzrp3ctQtIk5XE/7j/UsB8VbJN/FdPO8MrHc0MMdZ9xukGZ7vaWdnnFXu/AGOwX9sJgbWvRK2h0NovW9SzXMi0jRuJ/wHfEoB8VbJbvgu3B1YToAQFznrrgHfCKy7UX91xnk11exohmC7PHqOTSewbmD9Rzjr/k9gvSISyW2E/4BzDANX2UhgLr6L6KcC6/befNSwvAJLB9bfiDWwp8WQGK+hmp0/wJH4z+ENjvovcdY90VG3iERwFeE/4DsKiLdqrsN3Eb02sN52LO2utwP5YWD9jfpyQGz/xLfaoczGYLs7es/fRx31h96UdZWUe0uISB0uwPcj3it/yJVyPL7jv4DwVRgnOOuuYSsCNgqsvxFtNPYq4Gqq2/kD/AD/uZtG+DE61Fn3DLTsXaRw38L3Q54FHI5+zKE2w38hPyqw7mWw8+etP1fq3kHA6fSfeKYD+B7V/nvcALvx8p63bzti+Juz7j846q4sz05OIiH2IU5SlxlYTu85Eb6rlbQBuzi/41Zgu8DPnoXNJPf6IHBxhO+pxzrA54D3AKtg6/ofB27EMgg+nimOolwL7Or8jrnA6sBLAZ8dDzyHL43yIegmQKRw4/E/SagUXzbueWLrtAZxnianELZDoTTmk8T5eznHEYP3tdV8wvcdEJHIvJt5qBRffrTEWa3fuZFi+AcaxUxpIyzttvc8zQVWDYyhDRvp89T/98C6RSSB4yi+A1PxFc+ErtWwvPgx4jg+MAbp3wjgfuKco5864tgxQv2HOeoXkcjGE2cYWKXYEpoTAOAnkWKYT5wNpmRxvyDO+ZmNL323NynTm+TJHSEiDfgVxXdgKr7yMOFD8MtjEzljxPEUmg8Q02HE+xvxZG9cG9/WvzXsBkJESmYFYCbFd2IqvrJPzxPbgGMjxnEfMNYRi5idifd65lks+2Son0WIYU9H/SKS0EkU34Gp+MqNS5zV+g0BHogYy7X4loq1uq2Ik6ehq3zQEct4/BMQn8FyOYhICQ3CcqcX3Ymp+MpuPU9sA7bBP8zbvfwRSzssjVkLmEq88+CdeX9mhBhOdsYgIomNx4YKi+7EVMLLzUuc1cb8OHI8Z6ObgEasRpx9GrrKTOBtjngm4N8+eoEzBhHJZGPgeYrvyFTCi+dd62jidkA1LOubXgcMbBPgBeIee8/qEIizQuSPzhhEJKNVgQcpviNTCSuT8L1v3Q57aosZ0z+xmwvp3U7Aq8Q95pc5Y1qHOJMQtTRUpMksC/wO6KT4Dk2l8RK6SVCXbySI6U60RLA3B+DfXrdneQFb3ulxeYQ4bnLGICIFeg/+9J8q+cvL+JKuDMJm8seO6ylshrvY3IivE3fiZQ0bvdnJGdtukWJ5vzMOESnYYODDwH+xLVeL7txU6is/7O1kNmB5bPlW7LjmAV+itfcOWAn4F2nO+xecscVaEnoPrX2OG6IDJc1gFWw70ndhEwY3BEZF+N75wIvYDUZVtWEX/uGZ6uvA3uff4fiOd2A3fqF7DfTnKuAI4JUE311mewLnkeZ1yJ+Ajzi/42vAdyLEcgBwaYTvEZGSOh/fU8I04GDsqaMVtAP7k2+lxb3YCI7HgaQb+XkB2M8ZX7MYA5xFunk1/8N/c7keceYj3IseakUq707CLxILgS3zh1wKa+FfX11vOSFCvF9KHOM1wPoR4iyjNmyk40XSHb/H8U/6awNuiBSPJy21iDSJlwm/SLT65iDnkOcGYC6wWYR4Y2SE66/MB06nWssF3wHcQtrj9iK2WY/XFyLFc32EWESk5NrwbSX8pfwhl8pHyHMDUMMmdXmHh9uItzVtf2UqcCLNvaHQlsBFpJ80Ow2bi+O1GXaj6I2nE7vpEZGKa8d3sfhc/pBLZS/y3QDUgB9FiLkdyw+RI97XsRGBlSPEnctupFk+2Vt5lTid7QjiJf66MEI8ItIkPCMAPy0g3jI5mrw3AJ3EmXDXDvwyY9zzsJuO3fFPaExhPPBZ4G7yHZOXgM0jxX9upJhm0lw3ayLi5Nm1bCqwVP6QS6ENm7Wd8waghj1Vrxsp/h8WEP9L2I3jDhQ7y3xpbGLfNcRP5DNQeZ54EyY/HjEub/4BEWkyt+K7aPyecj7VpfZt8neeXeV+4t14HU9xyaGmYBsNfRrLR5HSSGAX4JvYTPkY78tDyiTi7az3DuKlII6x3LSlac2kNKPfYk9CHk9jO4Y9AbzhDajEhgNrYglSNi04lr8CH8JeC3h9EBuiz5XgqC8vY9shP4r9LT2+6D9faOA7hmHnaF1sZv3a2LnaiuJzVfwTO9YzI3zXisBt2MZfXh3YiMytEb5LRJrIURT3JKviK9/r5XyG2gp4tgRt6q3MwUYLHsfyVlwP/B2brHczcB+2BfJ0ypvq+ofEe8JeCssOGSu20yPFJSJNZm2KvziqhJdPLnlKg40jXX77Vi1v4E/t290g4uzy11UeIU2aaBFpEvdQ/IVSJazMB/Zd8pQGGwRMxHakK7ptzV7uI/7chrMjxrcQ22tCRFrYMRR/sWylMoW4aWXfxCa4xbQ9tvVv0ceqGUsnNuQ/rOGj3r/TIsf5zcjxiUgTGg28RvEXzlYpX8Q67Jjvq2cR/2luDPbEWdb36mUsjwM7hxzsAXwtcpw3oln/IrLIiRR/8WyF0j13QuylhK9hT+6x7QA8FDnWqpUF2BN6ivfpX4kc6wzirB4QkYoYjs2kLvpCWvVycLdjPhj4T+TvnwW8h/iGYns/aKRoyXIN6fIYfCtyrB3A+xLFKiJNbAfyZ0VrpXJlL8d8BeC5yPXMAfbspa4YxgE/w5dCuirlQdJ1pqkyNeq9v4j06QSKv7BWsTwGLNPHMd+a+Jnp5gNH9lFfDGtgSaRacbXAY8Ah2J4KKQzDMmzGjvuKhDGLSEX8nOIvslUqLwHrDXDMU6QW7sSW9KXMUro2NiIwO0H8ZSt3Y69wUk6eW5b4r4W6/hZipSAWkQprw7aeLfqCW4UymYE37xmCJWRJFUOONL/LAydR3myCoWUBlngn9jLL3qwNPJywLadlaIOIVMTRxNtspBXLv6hve9UvZojlDvLM/B4E7AVcQnEb7sQojwP/B0yIe3j69D7g1cRtmguslak9IlIBm2Brhou+IDdTmYltrVrP+9bx5JtZ/zJp1qj3ZSy20dRVwLxIbUhZnsL2V9gywbHoSzs2078zYjv6K5flaZaIVMkBwC0Uf5Euc5mJDbMu18Bx/WXmGBdiHU7uJDCjgPdj80ueCIw9dpmN7dD3RWCDdE3v08rAdQ3EG6vsmqNxIlI9bwe+i+0friWDltL3Ymyb10aTwGxR4DG8Bds2tygrAR/Alrpdj+3kl7K9C7BkRhdhozNbU+z2wPsD0yjm3D+AsgBGl3KmrUgZjQQ2wpYsDTTRbSB/BC51RzSw9bEnYK/vAOfQ2F713bVhs713jBBLqJnAl4FfYR1D0VbBzs/q2DLD1bBXJOOwUZVR2N9czxz7r2Ed/PRu5XngaWwS5pNY5z8vcfz1GAucAXy84Dg+D/y04BhEpAI+gf+pZBo2kzy1GNvdTsWf8vXDEeKIVW5k4GWK4vc+4id9Ci0zyPN7E5GKG4Y9CXsvSj9PHOchEWKsYfsmeIwAnokUS6wyZ1G7Yu9gJzaScSnFn+OeRSMAIhLF8fgvSB3AtoniG0Ocm5TXsWFcj4kR4khVngUOc7ZPzEjgq9j+DEWf197KQmDTZK0XkZYxhjjL2e4mzeSsWNkNv+eM4200R9a8a7EJn9K4QdhNVFmG+/sr1yU6BiLSYk6hHJ1sT+8nzjrrN/EnhvlDhDhylU7gr8DGzja3inbgIJpv6+T9UxwMEWktY4mztKkD2D1STKtGiqmGP5XqDsS5Efkjlp42VwfRAfwJjQj0ZTA2qXMS+c7JFOBA4I0I3/UkmvshIhEcR5wL3OvYEkOPUVi+ghjxvAIs7YilHbg9QhyzsDX0bdhcglwZ5LrKTdhsdi17tr+vY7GlhjnPwb3YxEKw/RdifKd3YquICEOxPOoxLkqPY+vAQwzBtj+NddH9fGAcXT4eKY4TenzvR7AZ/Dk7oBq2ac2XaM2lZFsAZ5MvhXP3chE2ubDLCOLcgMwi374HIlJhHyDeBe9BYMUG6x9G3CHyR/FNTByD5Q7wxtHXUO0mpN1NsL8yF3s9sDd281dV47HNse6kmOM8Dxtt6G3k5YOR6jjfdYRERLCL1P+I2wFvWGfd47AZ7DEvvt5JUqdniGM0NjegiM6pq0zHsgq+l2LT7MayPJbk6lqKTXv9DLDNALHeEKGezjrqEREZ0EbE3Q52NvBJ+t9hb3firPXvXrzpidclzk54/6qzvk8RZ2KYt8zEtgT+JLb0sRm0Y3sEnIztlVCGvS7+Sn2bS8XaV+IWNL9DRCI4kfgXxEewTm5V7IK9EvAh4o44dJVXgBWcxyDGPISF2DB/vdahfDs3PoENMX8SG82pZ6vk1EZiezH8H3Allh636OPUVV4DDm+wPbF2lvxog/WKiCxhMHAbxV9MQ8tBzvbvESmOnwXUPRj4OnFGH1KUN7C/jV9iEyx3w25cUswjWBrYHNvS+iTgz9iNZBme8Hsr/+atWf6NGE+ciYkvYCscpAEaNhFZ0obAXcDwogNpUNcWv6GGAPfh32f+Vew1wrTAz2+EdbLbO+PIpRPrgJ5j8d39pmMd9uuL/r052DEegmXeG4P9jS3XrayAdaTL5Avf5VVsd8bfYh1xiC9huw16nQJ8LcL3iEiL+zLFP1U1UqZikwk9YuVDONYZB9hw+9FY51n0sVXpvfwR/+smsBGURyPE8ya2JbOIiEsb5dwNrbcyH3sv7DEOe5rzxvIQcWfTTwDOI3/yIJW+y33Azv2csxD7RIrtr5HjEpEWNQZLHlP0BXegckyEtp4TKZY9IsTSm62AmyPFqBJWXsImsw4a4FyFujpSnLFvTkSkRa1JnIQ4qcrZEdq4GXEml10ZIZb+tGGTHItKINSq5XUshfOYAc+QzwbYaJY33kmku0kRkRazJeXcH/0K4lzoro8Qyzxs4l8O7dhkxycixK3Sd5kL/II47/nr9aNIsR+dMWYRqbgdKddNwJXEWaUQKwVyjFnc/6+9O4+xq6oDOP7t1FImdWQpEELZBBQFIlDAkCIhuIeERTFEQAEliIgaFIVgkE0EMQiuEXBpAqFWFmVVg4mECG4QAaWKLEJE1ArF4gBtLZ36x69joc70vfvu7y7vzfeTnH+azLm/c+7rPXc553eK2oB4Jf1QD/FaJi9LgQspns46wyZELouybXia/llJIakP7Ec7ZqX/kJy158PAYwnxLKbcroNlDRE3MndTvi1TufwNOI3qX/V3chI57flq3YFLGmy7kTNo9louJ2+W/VlJMZ2QFE+GvYg+WkbzA2q/lHuINyltyXsxnVhpULZdKymWjVKSOtqCnI1MipTlwIcT27A1Ofn376WdE662JD5LND24trn8gfYOkG8mp4231R24pME3RCS8qSNt7QNEWthMVyfFdkByXJm+TvODbJvLSiLrYlv9gJx2HlJ34JKmht2JPOhVXKBHiU1fZibHPI+cxDrXJMeVaVdigGt6kG17+VGvHVyDHcjZnfNh8v8PSdL/HErebnajwNeIXQOzDZEzWe4FYPsK4svyU5ofXPulHNRjH9fhQnLaeFrdgUuaevYlNrIpmjxoFbE98CnAxhXG94GCcU1WPldhjGUdSvODaj+VB6lmR8MMI8TqhLJtfJZmljW2mrsBStUYItLX7kV8JtiBWJe8MfFacymxVvkBYsbzz4mbhiqNEGvmy14InwR2Bp4vHVG+mcAiYMeS9awCjiD6bPc1ZQ9g05L1ljEGPArcR/xm7gcOA45PqPtU4JKEeqpwHLHbYFnzgQ8m1CNJfecicp4Y31d34AWcTk4bL5+k/q2A/YFjgXOBq4A7iafop0seczlxc3U/8GMizfOpwLuIG5BZE8SzacJxVxM3pFtM1qkNGwJ+Q/k2rgL2rjn2VvMNgDQ17ES8bSg7GepXxCTC1aUjyrcl8YZjpGQ9S4m0xk/18LfTgdnAZkSipemsTawzi8h1v5LYe2F0zb8/Qwzio/TmZGLFQ1nfIvIBtNE84kar7Jj1C+BNtPP3K0mVuInyT1BjwBvrDryA+eQ8/Z9Sd+AlZSXOafsTctbS1aPrDlySmvIWci6c8+sOvIC5xABWto1/JC/TYp2yEudkPGVXZQ45yav+ysSfU6acNmbwkpTnFcTT/+Yl63mO+BZd5DX1NsR6/NcTr+efIl59Z5sGXAdsm1DXMcCfEuqp22PEJMXXlaxnWyJD4KLSEf2/GcTE2HcSv4ltibdK4/trdDJK/J4PLBnHq9Yc9/aS9UhSq32cnCfDMyapfzox4/5gYq31fODXwL8nqGMFcC1x8c90dEL7VgO3JsdVtx3JSZzzODF/IctGwDlMvpHWMiKl9PeAM4mNnXZh4jcxw2viK9vGtuexkKRSZhMTzMpeLP9MTKzblbg4f5a4WN9Lb5vuvEjs+JZhFvBEQhtXEEsb+11W4pyzkuLZg97Pz3+ITzLXAecDRwF7EssCM9p4bVIbJal1vkHOhXKUatLqfiqhjeclxfKlhFjaICtxzvPEhlFl7ER89sn+3WSksR4vB5RsoyS1Tj/kwh8jku30ahtioCobx2Kqzb5Yt+PIOT9Xl4hhhFh22vRvrFN5gJhXIEkD4zaav7h2U0aBN/TYxmuTYjihx+O31TRiHkbZfhkjkh4VNQTcnHD8usqJPbRRklrpcJq/qBYpj1M8C91+5LwKvpfBXA21Lzn981tiQC/iiwnHrbMsIebLSFJfm0lsf9r0RbVouZPuN6QZAu5JOu4BXR6zH11FTh8VyZ///qRj1l0uLdBGSWqlM2n+Ytpr+W6XbTwx6XgLuzxev5pDfGIp20+LiaV8nexFLK9r+nfUS1kJ7NZFGyWplbYg54LfZPlohzZuDPwz4TgvANt17NH+l3VDeFGH48whZ/VBk+XGzt0pSe10Ac1fRMuWlUTq4slcknScc7vq0f63IZElsGx/LSeW9U1kmJzd+pouY+QnqZKkWjxE8xfRjLKEyGq3rp2J5DBl63+CqZUL/j3knJeJnpCnAQuS6m9DmSzjpSS11gi5CVKaLotYu43uuFuT6j6qWNcOhNvJ6bu3rVPvGUn1tqUsKNivktS4OTR/8cwuN7N2CdpBSXXeRXt3u6vS7kQK5rL999LEOYeQswNjm8pNPfWuJDVomMF6AzBeLiQ2hXkwoa6273dftcvIOScfIzJNTrThU7+XK3ruXUlq0H00fwHNLmPkvfrvdpnhoNoc+Bfl+3EJ8GhCPW0sx/bcu5LUoA/R/AV0NTFRLyNHf2Z5Ftiy964dGKfQ/LlYtzwEPNeCOP5O7jbIklSbGcAj1HfBHAXuJjLOfQZ4N7GMagYwl3bdBJxWol8HyQxii92mz8d4uZ6YkzEN2B54B/AJ4HLgDnJyPnRbTu69WyWpebsQr2gzL4zPEKl3rwROBw4GdqBzjvjDace8hEeIFMkKb6X5c7KaiVd6TGQTIsvgMcAXgGvW/G3GpMbxcllXPSdJLbc3xZ/yXiQGyluIzVyOB+YRF98yzi8YRxXlkJJtGES30Ow5eQp4dck2DAN7Au8FziNuDH5HJC3qNo5VwMUM5oZQkqaomcTT+rqz55cRkwUXAmcDRxBLxKp6Qh4CbiB38ChSbquoXf3utcAKmjknK4EDK2zbdCJr4cHEp5/vAL/k5RMgnwC+Tfz2JWlgzSYy621F8a1dM4wAv6eZgWbXGtrXry6mmRuATvs9VGkYPwdJUq22p94JXauBr9TRsD42Qsx8r/OczK+lZZKkVtmf+l47LyHefGj9TqC+wf8ufPqWpCnrZOoZbD5SV4P63BCxlLPq8/Ek8QlKkjSFfZNqB5tFrM1Xr87mUe1yzWXAPrW1RpLUWjOAn1HdgPP2+poyMBZSzbkYA46ssR2SpJabTTVZC6+vsxEDZGuqScd7QZ2NkCT1h12IHP1Zg80K4DW1tmCwnEPu4P8TTLAjSZrEYeTtKf/5mmMfNMPA4+SciweBjWqNXpLUd86m/IDzD7rLK6/1O5Ly5+IZfBMjSerCNMpPQjum9qgH1x30fh5WAQfVH7IkqV8N0/t69HtoJsXxoNqT3j/LfLKBeCVJfW47YDHFBpzlwNwmgh1wX6b44H9lI5FKkgbCXF6+a1unclIzYQ68DYgd9Lo9Dzeu+RtJknq2D/Aw6x9wluF3/6rNAr7P+s/DGHAFDv6SpCQbAp8mvu+/NE3tX4BLic8FqseBwA3E7P7x87AEWADs22BcKmla0wFIUgevBDYhnvqfbjiWqW4zYoLgUuJGQJIkSZIkSZIkSZIkSZIkSZIkSZIkSZIkSZIkSZIkSZIkSZIkSZIkSZIkSZIkSZIkSZIkSZIkSZIkSZIkSZIkSZIkSZIkSZIkSZIkSZIkSZIkqVv/BQ1oxsi86x0kAAAAAElFTkSuQmCC;" parent="1" vertex="1">
          <mxGeometry x="660" y="515" width="70" height="70" as="geometry" />
        </mxCell>
        <UserObject label="Originality =&gt; &#xa;Uncommonness or infrequency of the ideas, solutions, or products&#xa;" link="https://www.flaticon.com/search?word=positive%20mood" id="8HKQdC73j9jO4bcsfkeK-7">
          <mxCell style="text;whiteSpace=wrap;fontStyle=1;fontSize=14;align=center;" parent="1" vertex="1">
            <mxGeometry x="569.38" y="588" width="251.25" height="70" as="geometry" />
          </mxCell>
        </UserObject>
        <mxCell id="8HKQdC73j9jO4bcsfkeK-9" value="" style="endArrow=classic;html=1;rounded=0;exitX=0.996;exitY=0.622;exitDx=0;exitDy=0;entryX=0;entryY=0.5;entryDx=0;entryDy=0;exitPerimeter=0;" parent="1" source="8HKQdC73j9jO4bcsfkeK-2" target="8HKQdC73j9jO4bcsfkeK-4" edge="1">
          <mxGeometry width="50" height="50" relative="1" as="geometry">
            <mxPoint x="380" y="460" as="sourcePoint" />
            <mxPoint x="430" y="410" as="targetPoint" />
          </mxGeometry>
        </mxCell>
        <mxCell id="8HKQdC73j9jO4bcsfkeK-10" value="" style="endArrow=classic;html=1;rounded=0;exitX=0.996;exitY=0.622;exitDx=0;exitDy=0;entryX=0;entryY=0.5;entryDx=0;entryDy=0;exitPerimeter=0;" parent="1" edge="1">
          <mxGeometry width="50" height="50" relative="1" as="geometry">
            <mxPoint x="467" y="550.17" as="sourcePoint" />
            <mxPoint x="660" y="550.17" as="targetPoint" />
          </mxGeometry>
        </mxCell>
      </root>
    </mxGraphModel>
  </diagram>
</mxfile>
